M48
; DRILL file {KiCad 9.0.0} date 2025-08-20T08:39:22+0200
; FORMAT={-:-/ absolute / metric / decimal}
; #@! TF.CreationDate,2025-08-20T08:39:22+02:00
; #@! TF.GenerationSoftware,Kicad,Pcbnew,9.0.0
; #@! TF.FileFunction,MixedPlating,1,4
FMAT,2
METRIC
; #@! TA.AperFunction,Plated,PTH,ViaDrill
T1C0.200
; #@! TA.AperFunction,Plated,PTH,ComponentDrill
T2C0.200
; #@! TA.AperFunction,Plated,PTH,ViaDrill
T3C0.300
; #@! TA.AperFunction,Plated,PTH,ComponentDrill
T4C0.400
; #@! TA.AperFunction,Plated,PTH,ComponentDrill
T5C0.800
; #@! TA.AperFunction,Plated,PTH,ComponentDrill
T6C0.950
; #@! TA.AperFunction,Plated,PTH,ComponentDrill
T7C1.000
; #@! TA.AperFunction,Plated,PTH,ComponentDrill
T8C2.200
; #@! TA.AperFunction,NonPlated,NPTH,ComponentDrill
T9C0.750
%
G90
G05
T1
X-33.8Y17.15
X-32.05Y17.15
X-28.75Y18.45
X-27.75Y17.75
X-27.75Y16.8
X-27.75Y16.0
X-27.75Y15.2
X-27.75Y14.4
X-27.75Y8.0
X-26.0Y17.75
X-26.0Y8.0
X-25.2Y20.2
X-24.7Y22.25
X-24.4Y17.75
X-23.5Y13.65
X-22.55Y12.7
X-22.125Y21.125
X-21.2Y19.8
X-20.05Y21.125
X-20.05Y20.45
X-19.0Y19.9
X-18.95Y27.65
X-18.2Y19.9
X-17.45Y12.35
X-17.337Y9.688
X-17.1Y25.5
X-16.95Y38.35
X-16.95Y37.85
X-16.95Y37.35
X-16.95Y36.85
X-16.95Y36.35
X-16.95Y35.85
X-16.95Y35.35
X-16.95Y34.85
X-16.95Y34.35
X-16.95Y33.85
X-16.95Y33.35
X-16.95Y32.85
X-16.95Y32.35
X-16.5Y19.175
X-16.5Y17.875
X-16.5Y16.575
X-16.5Y15.275
X-16.0Y19.825
X-16.0Y18.525
X-16.0Y17.225
X-16.0Y15.925
X-15.575Y11.34
X-15.35Y31.6
X-15.35Y31.0
X-15.35Y30.4
X-15.05Y28.05
X-15.05Y27.3
X-14.85Y24.8
X-14.55Y11.35
X-14.25Y30.25
X-14.0Y32.0
X-13.75Y35.95
X-13.4Y24.8
X-12.85Y6.2
X-12.55Y34.35
X-12.55Y33.1
X-12.45Y36.0
X-10.9Y33.7
X-7.8Y21.75
X-7.8Y15.25
X-7.5Y21.3
X-7.2Y21.75
X-6.9Y22.2
X-6.75Y13.95
X-6.75Y12.75
X-6.6Y22.65
X-6.6Y21.75
X-6.3Y22.2
X-6.0Y22.65
X-4.95Y38.1
X-4.4Y37.4
X-2.5Y36.9
X-0.65Y37.15
X-0.65Y35.15
X-0.65Y34.25
T2
X-13.05Y22.4
X-13.05Y21.2
X-13.05Y20.0
X-13.05Y18.8
X-13.05Y17.6
X-13.05Y16.4
X-13.05Y15.2
X-13.05Y14.0
X-11.85Y22.4
X-11.85Y21.2
X-11.85Y20.0
X-11.85Y18.8
X-11.85Y17.6
X-11.85Y16.4
X-11.85Y15.2
X-11.85Y14.0
X-10.65Y22.4
X-10.65Y21.2
X-10.65Y20.0
X-10.65Y18.8
X-10.65Y17.6
X-10.65Y16.4
X-10.65Y15.2
X-10.65Y14.0
T3
X-40.5Y20.45
X-40.5Y18.9
X-40.5Y16.0
X-40.5Y14.5
X-40.5Y13.0
X-40.5Y11.5
X-40.0Y36.5
X-40.0Y35.0
X-40.0Y33.5
X-40.0Y32.0
X-40.0Y30.5
X-40.0Y29.0
X-40.0Y27.5
X-40.0Y26.0
X-40.0Y24.5
X-40.0Y23.0
X-38.5Y36.5
X-38.5Y35.0
X-38.5Y33.5
X-38.5Y32.5
X-38.5Y31.5
X-38.5Y30.5
X-38.5Y29.5
X-38.5Y26.0
X-38.5Y23.0
X-38.5Y15.625
X-38.5Y11.875
X-37.5Y34.0
X-37.5Y29.0
X-37.0Y41.0
X-37.0Y38.0
X-37.0Y36.5
X-37.0Y35.0
X-37.0Y27.5
X-37.0Y24.5
X-36.5Y34.0
X-36.5Y29.0
X-35.5Y41.0
X-35.5Y39.5
X-35.5Y38.0
X-35.5Y36.5
X-35.5Y34.0
X-35.5Y29.0
X-35.5Y26.0
X-35.5Y23.0
X-35.0Y33.0
X-35.0Y30.0
X-35.0Y1.5
X-34.95Y32.0
X-34.95Y31.0
X-34.0Y32.0
X-34.0Y30.5
X-34.0Y29.0
X-34.0Y27.5
X-34.0Y26.0
X-34.0Y24.5
X-34.0Y23.0
X-34.0Y21.5
X-33.25Y28.25
X-32.5Y30.5
X-32.5Y29.0
X-32.5Y21.5
X-32.45Y26.5
X-32.45Y25.7
X-32.45Y23.5
X-32.35Y39.75
X-31.85Y36.2
X-31.85Y33.2
X-31.6Y29.0
X-31.5Y23.5
X-31.3Y26.5
X-31.3Y25.7
X-31.075Y3.5
X-31.0Y21.5
X-31.0Y1.5
X-30.7Y29.0
X-30.55Y37.2
X-30.5Y23.5
X-30.15Y39.75
X-30.15Y26.5
X-30.15Y25.7
X-29.5Y23.5
X-29.5Y22.5
X-29.5Y21.5
X-29.5Y1.5
X-29.2Y38.4
X-29.2Y32.3
X-28.5Y21.5
X-28.25Y29.05
X-28.25Y26.1
X-28.1Y38.4
X-28.1Y32.3
X-28.0Y23.0
X-28.0Y1.5
X-27.25Y22.25
X-27.0Y38.4
X-27.0Y32.3
X-27.0Y29.05
X-27.0Y26.1
X-26.5Y23.0
X-26.5Y21.5
X-26.5Y1.5
X-25.75Y37.15
X-25.75Y35.95
X-25.75Y34.75
X-25.75Y33.6
X-25.75Y29.05
X-25.75Y26.1
X-25.75Y22.25
X-25.35Y41.1
X-25.0Y23.0
X-25.0Y1.5
X-24.0Y20.2
X-23.85Y5.25
X-23.45Y26.6
X-23.15Y27.7
X-22.2Y28.3
X-22.2Y27.1
X-22.2Y25.9
X-22.2Y24.7
X-22.2Y23.5
X-21.25Y27.7
X-21.25Y26.5
X-21.25Y25.3
X-21.25Y24.1
X-19.9Y22.45
X-19.5Y1.5
X-19.35Y16.0
X-19.075Y3.5
X-18.35Y14.8
X-18.0Y1.5
X-17.9Y24.35
X-16.5Y1.5
X-16.4Y26.8
X-16.0Y9.75
X-15.325Y3.5
X-15.0Y1.5
X-14.5Y41.0
X-14.5Y39.5
X-14.25Y9.75
X-14.15Y23.7
X-13.05Y23.7
X-12.9Y10.7
X-12.15Y12.5
X-11.4Y10.7
X-11.2Y35.0
X-11.2Y32.4
X-11.15Y23.7
X-10.75Y31.7
X-10.65Y12.5
X-10.5Y1.5
X-10.3Y32.4
X-10.15Y35.8
X-9.95Y31.7
X-9.625Y3.5
X-9.4Y35.15
X-9.4Y32.2
X-9.35Y30.8
X-9.3Y38.1
X-9.0Y1.5
X-8.85Y37.4
X-8.85Y31.5
X-8.85Y30.1
X-8.5Y26.0
X-8.375Y3.5
X-8.35Y38.1
X-8.3Y35.15
X-8.3Y34.25
X-8.3Y32.2
X-8.3Y30.8
X-7.9Y37.4
X-7.7Y31.5
X-7.7Y30.1
X-7.5Y1.5
X-7.45Y38.1
X-7.1Y35.15
X-7.1Y34.25
X-7.1Y32.2
X-7.1Y30.8
X-7.0Y37.4
X-7.0Y26.0
X-6.75Y24.65
X-6.55Y38.1
X-6.5Y14.55
X-6.5Y13.35
X-6.5Y12.15
X-6.1Y37.4
X-6.0Y41.0
X-6.0Y28.5
X-6.0Y27.0
X-5.95Y35.15
X-5.95Y34.25
X-5.9Y13.95
X-5.9Y12.75
X-5.65Y38.1
X-5.65Y7.05
X-5.3Y13.35
X-5.3Y12.15
X-5.2Y37.4
X-4.8Y35.15
X-4.8Y34.25
X-4.75Y24.65
X-4.7Y12.75
X-4.25Y26.0
X-4.2Y31.5
X-3.65Y35.15
X-3.65Y34.25
X-3.65Y32.2
X-3.05Y31.5
X-3.05Y30.1
X-3.05Y24.65
X-2.5Y35.15
X-2.5Y34.25
X-2.5Y32.2
X-2.5Y30.8
X-2.5Y28.45
X-2.5Y27.0
X-1.9Y31.5
X-1.5Y24.65
X-1.5Y23.0
X-1.5Y21.5
X-1.5Y20.0
X-1.5Y18.55
X-1.5Y17.0
X-1.5Y15.5
X-1.5Y14.0
X-1.35Y35.15
X-1.35Y34.25
X-1.0Y30.5
X-1.0Y13.0
X-1.0Y9.5
X-1.0Y7.5
X-0.8Y27.0
T4
X-41.15Y39.5
X-41.15Y2.5
X-40.667Y40.667
X-40.667Y38.333
X-40.667Y3.667
X-40.667Y1.333
X-39.5Y41.15
X-39.5Y37.85
X-39.5Y4.15
X-39.5Y0.85
X-38.333Y40.667
X-38.333Y38.333
X-38.333Y3.667
X-38.333Y1.333
X-37.85Y39.5
X-37.85Y2.5
X-4.15Y39.5
X-4.15Y2.5
X-3.667Y40.667
X-3.667Y38.333
X-3.667Y3.667
X-3.667Y1.333
X-2.5Y41.15
X-2.5Y37.85
X-2.5Y4.15
X-2.5Y0.85
X-1.333Y40.667
X-1.333Y38.333
X-1.333Y3.667
X-1.333Y1.333
X-0.85Y39.5
X-0.85Y2.5
T5
X-33.845Y34.7
X-31.845Y34.7
X-10.25Y27.795
X-10.25Y25.795
X-9.645Y9.35
X-7.645Y9.35
X-4.25Y30.168
X-4.25Y27.668
T6
X-3.8Y22.5
X-3.8Y20.0
X-3.8Y17.5
X-3.8Y15.0
T7
X-40.0Y7.5
X-37.46Y7.5
X-34.92Y7.5
X-32.38Y7.5
T8
X-39.5Y39.5
X-39.5Y2.5
X-2.5Y39.5
X-2.5Y2.5
T9
X-3.475Y8.5
X-0.725Y8.5
M30
