%TF.GenerationSoftware,KiCad,Pcbnew,9.0.0*%
%TF.CreationDate,2025-08-20T08:39:56+02:00*%
%TF.ProjectId,SPARK,53504152-4b2e-46b6-9963-61645f706362,rev?*%
%TF.SameCoordinates,Original*%
%TF.FileFunction,Soldermask,Top*%
%TF.FilePolarity,Negative*%
%FSLAX46Y46*%
G04 Gerber Fmt 4.6, Leading zero omitted, Abs format (unit mm)*
G04 Created by KiCad (PCBNEW 9.0.0) date 2025-08-20 08:39:56*
%MOMM*%
%LPD*%
G01*
G04 APERTURE LIST*
G04 Aperture macros list*
%AMRoundRect*
0 Rectangle with rounded corners*
0 $1 Rounding radius*
0 $2 $3 $4 $5 $6 $7 $8 $9 X,Y pos of 4 corners*
0 Add a 4 corners polygon primitive as box body*
4,1,4,$2,$3,$4,$5,$6,$7,$8,$9,$2,$3,0*
0 Add four circle primitives for the rounded corners*
1,1,$1+$1,$2,$3*
1,1,$1+$1,$4,$5*
1,1,$1+$1,$6,$7*
1,1,$1+$1,$8,$9*
0 Add four rect primitives between the rounded corners*
20,1,$1+$1,$2,$3,$4,$5,0*
20,1,$1+$1,$4,$5,$6,$7,0*
20,1,$1+$1,$6,$7,$8,$9,0*
20,1,$1+$1,$8,$9,$2,$3,0*%
G04 Aperture macros list end*
%ADD10RoundRect,0.140000X0.170000X-0.140000X0.170000X0.140000X-0.170000X0.140000X-0.170000X-0.140000X0*%
%ADD11RoundRect,0.250000X-0.650000X0.325000X-0.650000X-0.325000X0.650000X-0.325000X0.650000X0.325000X0*%
%ADD12RoundRect,0.250000X0.475000X-0.250000X0.475000X0.250000X-0.475000X0.250000X-0.475000X-0.250000X0*%
%ADD13R,1.600000X1.600000*%
%ADD14C,1.600000*%
%ADD15RoundRect,0.150000X-0.150000X-0.700000X0.150000X-0.700000X0.150000X0.700000X-0.150000X0.700000X0*%
%ADD16RoundRect,0.250000X-0.250000X-1.100000X0.250000X-1.100000X0.250000X1.100000X-0.250000X1.100000X0*%
%ADD17RoundRect,0.135000X-0.135000X-0.185000X0.135000X-0.185000X0.135000X0.185000X-0.135000X0.185000X0*%
%ADD18RoundRect,0.218750X-0.256250X0.218750X-0.256250X-0.218750X0.256250X-0.218750X0.256250X0.218750X0*%
%ADD19RoundRect,0.135000X0.185000X-0.135000X0.185000X0.135000X-0.185000X0.135000X-0.185000X-0.135000X0*%
%ADD20RoundRect,0.100000X0.675000X0.100000X-0.675000X0.100000X-0.675000X-0.100000X0.675000X-0.100000X0*%
%ADD21R,3.100000X4.050000*%
%ADD22RoundRect,0.140000X0.140000X0.170000X-0.140000X0.170000X-0.140000X-0.170000X0.140000X-0.170000X0*%
%ADD23RoundRect,0.218750X0.256250X-0.218750X0.256250X0.218750X-0.256250X0.218750X-0.256250X-0.218750X0*%
%ADD24RoundRect,0.135000X-0.185000X0.135000X-0.185000X-0.135000X0.185000X-0.135000X0.185000X0.135000X0*%
%ADD25R,2.920000X1.270000*%
%ADD26R,1.650000X3.430000*%
%ADD27C,0.750000*%
%ADD28R,1.000000X1.550000*%
%ADD29RoundRect,0.125000X0.625000X0.125000X-0.625000X0.125000X-0.625000X-0.125000X0.625000X-0.125000X0*%
%ADD30RoundRect,0.125000X0.125000X0.625000X-0.125000X0.625000X-0.125000X-0.625000X0.125000X-0.625000X0*%
%ADD31R,1.700000X1.700000*%
%ADD32O,1.700000X1.700000*%
%ADD33RoundRect,0.200000X-0.200000X-0.275000X0.200000X-0.275000X0.200000X0.275000X-0.200000X0.275000X0*%
%ADD34RoundRect,0.062500X0.062500X-0.225000X0.062500X0.225000X-0.062500X0.225000X-0.062500X-0.225000X0*%
%ADD35RoundRect,0.056250X-0.293750X0.056250X-0.293750X-0.056250X0.293750X-0.056250X0.293750X0.056250X0*%
%ADD36RoundRect,0.062500X-0.062500X-0.212500X0.062500X-0.212500X0.062500X0.212500X-0.062500X0.212500X0*%
%ADD37RoundRect,0.100000X0.100000X-0.525000X0.100000X0.525000X-0.100000X0.525000X-0.100000X-0.525000X0*%
%ADD38RoundRect,0.100000X0.625000X-0.100000X0.625000X0.100000X-0.625000X0.100000X-0.625000X-0.100000X0*%
%ADD39RoundRect,0.100000X0.400000X-0.100000X0.400000X0.100000X-0.400000X0.100000X-0.400000X-0.100000X0*%
%ADD40RoundRect,0.062500X0.212500X-0.062500X0.212500X0.062500X-0.212500X0.062500X-0.212500X-0.062500X0*%
%ADD41C,0.700000*%
%ADD42C,4.400000*%
%ADD43RoundRect,0.090000X0.660000X0.360000X-0.660000X0.360000X-0.660000X-0.360000X0.660000X-0.360000X0*%
%ADD44RoundRect,0.225000X0.250000X-0.225000X0.250000X0.225000X-0.250000X0.225000X-0.250000X-0.225000X0*%
%ADD45RoundRect,0.135000X0.135000X0.185000X-0.135000X0.185000X-0.135000X-0.185000X0.135000X-0.185000X0*%
%ADD46RoundRect,0.250000X-1.375000X-2.000000X1.375000X-2.000000X1.375000X2.000000X-1.375000X2.000000X0*%
%ADD47RoundRect,0.250000X0.325000X0.650000X-0.325000X0.650000X-0.325000X-0.650000X0.325000X-0.650000X0*%
%ADD48RoundRect,0.140000X-0.170000X0.140000X-0.170000X-0.140000X0.170000X-0.140000X0.170000X0.140000X0*%
%ADD49RoundRect,0.150000X0.150000X0.700000X-0.150000X0.700000X-0.150000X-0.700000X0.150000X-0.700000X0*%
%ADD50RoundRect,0.250000X0.250000X1.100000X-0.250000X1.100000X-0.250000X-1.100000X0.250000X-1.100000X0*%
%ADD51RoundRect,0.150000X-0.700000X0.150000X-0.700000X-0.150000X0.700000X-0.150000X0.700000X0.150000X0*%
%ADD52RoundRect,0.250000X-1.100000X0.250000X-1.100000X-0.250000X1.100000X-0.250000X1.100000X0.250000X0*%
%ADD53RoundRect,0.250000X0.725000X-0.600000X0.725000X0.600000X-0.725000X0.600000X-0.725000X-0.600000X0*%
%ADD54O,1.950000X1.700000*%
%ADD55RoundRect,0.140000X-0.140000X-0.170000X0.140000X-0.170000X0.140000X0.170000X-0.140000X0.170000X0*%
G04 APERTURE END LIST*
D10*
%TO.C,C22*%
X-7450000Y22470000D03*
X-7450000Y23430000D03*
%TD*%
D11*
%TO.C,C8*%
X-5950000Y36175000D03*
X-5950000Y33225000D03*
%TD*%
D12*
%TO.C,C17*%
X-17700000Y13850000D03*
X-17700000Y15750000D03*
%TD*%
D13*
%TO.C,C1*%
X-31844887Y34700000D03*
D14*
X-33844887Y34700000D03*
%TD*%
D15*
%TO.C,J8*%
X-19075000Y4850000D03*
X-17825000Y4850000D03*
X-16575000Y4850000D03*
X-15325000Y4850000D03*
D16*
X-20925000Y1650000D03*
X-13475000Y1650000D03*
%TD*%
D13*
%TO.C,C23*%
X-7644887Y9350000D03*
D14*
X-9644887Y9350000D03*
%TD*%
D17*
%TO.C,R7*%
X-16310000Y25500000D03*
X-15290000Y25500000D03*
%TD*%
D11*
%TO.C,C7*%
X-8250000Y36175000D03*
X-8250000Y33225000D03*
%TD*%
D18*
%TO.C,LED5*%
X-26000000Y8787500D03*
X-26000000Y7212500D03*
%TD*%
%TO.C,LED2*%
X-16000000Y8787500D03*
X-16000000Y7212500D03*
%TD*%
D19*
%TO.C,R13*%
X-35100000Y16640000D03*
X-35100000Y17660000D03*
%TD*%
D20*
%TO.C,U3*%
X-8975000Y13975000D03*
X-8975000Y14625000D03*
X-8975000Y15275000D03*
X-8975000Y15925000D03*
X-8975000Y16575000D03*
X-8975000Y17225000D03*
X-8975000Y17875000D03*
X-8975000Y18525000D03*
X-8975000Y19175000D03*
X-8975000Y19825000D03*
X-8975000Y20475000D03*
X-8975000Y21125000D03*
X-8975000Y21775000D03*
X-8975000Y22425000D03*
X-14725000Y22425000D03*
X-14725000Y21775000D03*
X-14725000Y21125000D03*
X-14725000Y20475000D03*
X-14725000Y19825000D03*
X-14725000Y19175000D03*
X-14725000Y18525000D03*
X-14725000Y17875000D03*
X-14725000Y17225000D03*
X-14725000Y16575000D03*
X-14725000Y15925000D03*
X-14725000Y15275000D03*
X-14725000Y14625000D03*
X-14725000Y13975000D03*
D21*
X-11850000Y18200000D03*
%TD*%
D22*
%TO.C,C20*%
X-16620000Y19950000D03*
X-17580000Y19950000D03*
%TD*%
D10*
%TO.C,C4*%
X-13150000Y35920000D03*
X-13150000Y36880000D03*
%TD*%
D11*
%TO.C,C9*%
X-3650000Y36175000D03*
X-3650000Y33225000D03*
%TD*%
D19*
%TO.C,R12*%
X-30750000Y16640000D03*
X-30750000Y17660000D03*
%TD*%
D23*
%TO.C,LED7*%
X-33800000Y16362500D03*
X-33800000Y17937500D03*
%TD*%
D24*
%TO.C,R10*%
X-29100000Y8510000D03*
X-29100000Y7490000D03*
%TD*%
D25*
%TO.C,J4*%
X-31315000Y24600000D03*
X-31315000Y27600000D03*
X-26685000Y24600000D03*
X-26685000Y27600000D03*
D26*
X-36785000Y20715000D03*
X-36785000Y31485000D03*
%TD*%
D24*
%TO.C,R8*%
X-17337500Y8510000D03*
X-17337500Y7490000D03*
%TD*%
D17*
%TO.C,R14*%
X-21710000Y20450000D03*
X-20690000Y20450000D03*
%TD*%
D27*
%TO.C,SW1*%
X-725000Y8500000D03*
X-3475000Y8500000D03*
D28*
X-1250000Y11125000D03*
X-1250000Y5875000D03*
X-2950000Y11125000D03*
X-2950000Y5875000D03*
%TD*%
D29*
%TO.C,U2*%
X-20625000Y12000000D03*
X-20625000Y12800000D03*
X-20625000Y13600000D03*
X-20625000Y14400000D03*
X-20625000Y15200000D03*
X-20625000Y16000000D03*
X-20625000Y16800000D03*
X-20625000Y17600000D03*
D30*
X-22000000Y18975000D03*
X-22800000Y18975000D03*
X-23600000Y18975000D03*
X-24400000Y18975000D03*
X-25200000Y18975000D03*
X-26000000Y18975000D03*
X-26800000Y18975000D03*
X-27600000Y18975000D03*
D29*
X-28975000Y17600000D03*
X-28975000Y16800000D03*
X-28975000Y16000000D03*
X-28975000Y15200000D03*
X-28975000Y14400000D03*
X-28975000Y13600000D03*
X-28975000Y12800000D03*
X-28975000Y12000000D03*
D30*
X-27600000Y10625000D03*
X-26800000Y10625000D03*
X-26000000Y10625000D03*
X-25200000Y10625000D03*
X-24400000Y10625000D03*
X-23600000Y10625000D03*
X-22800000Y10625000D03*
X-22000000Y10625000D03*
%TD*%
D24*
%TO.C,R3*%
X-10100000Y31010000D03*
X-10100000Y29990000D03*
%TD*%
D18*
%TO.C,LED3*%
X-14250000Y8787500D03*
X-14250000Y7212500D03*
%TD*%
D31*
%TO.C,J6*%
X-40000000Y7500000D03*
D32*
X-37460000Y7500000D03*
X-34920000Y7500000D03*
X-32380000Y7500000D03*
%TD*%
D33*
%TO.C,TH2*%
X-15875000Y28050000D03*
X-14225000Y28050000D03*
%TD*%
D15*
%TO.C,J1*%
X-9625000Y4850000D03*
X-8375000Y4850000D03*
D16*
X-11475000Y1650000D03*
X-6525000Y1650000D03*
%TD*%
D10*
%TO.C,C13*%
X-14700000Y30820000D03*
X-14700000Y31780000D03*
%TD*%
D15*
%TO.C,J5*%
X-31075000Y4850000D03*
X-29825000Y4850000D03*
X-28575000Y4850000D03*
X-27325000Y4850000D03*
X-26075000Y4850000D03*
X-24825000Y4850000D03*
D16*
X-32925000Y1650000D03*
X-22975000Y1650000D03*
%TD*%
D34*
%TO.C,U1*%
X-12950000Y32287500D03*
D35*
X-13175000Y32462500D03*
D36*
X-12450000Y32275000D03*
D37*
X-11875000Y32625000D03*
D38*
X-11350000Y33050000D03*
D39*
X-11825000Y33700000D03*
D38*
X-11350000Y34350000D03*
D37*
X-11875000Y34775000D03*
D36*
X-12450000Y35125000D03*
D35*
X-13175000Y34937500D03*
D34*
X-12950000Y35112500D03*
D40*
X-13250000Y34450000D03*
X-13250000Y33950000D03*
X-13250000Y33450000D03*
X-13250000Y32950000D03*
%TD*%
D41*
%TO.C,H4*%
X-4150000Y39500000D03*
X-3666726Y40666726D03*
X-3666726Y38333274D03*
X-2500000Y41150000D03*
D42*
X-2500000Y39500000D03*
D41*
X-2500000Y37850000D03*
X-1333274Y40666726D03*
X-1333274Y38333274D03*
X-850000Y39500000D03*
%TD*%
D43*
%TO.C,LED1*%
X-18550000Y22450000D03*
X-18550000Y25750000D03*
X-23450000Y25750000D03*
X-23450000Y22450000D03*
%TD*%
D24*
%TO.C,R9*%
X-12937500Y8510000D03*
X-12937500Y7490000D03*
%TD*%
D17*
%TO.C,R6*%
X-14410000Y25500000D03*
X-13390000Y25500000D03*
%TD*%
D41*
%TO.C,H1*%
X-41150000Y2500000D03*
X-40666726Y3666726D03*
X-40666726Y1333274D03*
X-39500000Y4150000D03*
D42*
X-39500000Y2500000D03*
D41*
X-39500000Y850000D03*
X-38333274Y3666726D03*
X-38333274Y1333274D03*
X-37850000Y2500000D03*
%TD*%
D44*
%TO.C,C25*%
X-16550000Y22625000D03*
X-16550000Y24175000D03*
%TD*%
D19*
%TO.C,R1*%
X-13600000Y30290000D03*
X-13600000Y31310000D03*
%TD*%
D45*
%TO.C,R5*%
X-17090000Y28050000D03*
X-18110000Y28050000D03*
%TD*%
D46*
%TO.C,L1*%
X-28225000Y35350000D03*
X-16975000Y35350000D03*
%TD*%
D47*
%TO.C,C2*%
X-31325000Y40900000D03*
X-34275000Y40900000D03*
%TD*%
D48*
%TO.C,C15*%
X-11800000Y30980000D03*
X-11800000Y30020000D03*
%TD*%
D10*
%TO.C,C16*%
X-19150000Y14320000D03*
X-19150000Y15280000D03*
%TD*%
D24*
%TO.C,R4*%
X-16425000Y12360000D03*
X-16425000Y11340000D03*
%TD*%
D49*
%TO.C,J2*%
X-10125000Y37150000D03*
X-11375000Y37150000D03*
D50*
X-8275000Y40350000D03*
X-13225000Y40350000D03*
%TD*%
D51*
%TO.C,J7*%
X-37150000Y15625000D03*
X-37150000Y14375000D03*
X-37150000Y13125000D03*
X-37150000Y11875000D03*
D52*
X-40350000Y17475000D03*
X-40350000Y10025000D03*
%TD*%
D48*
%TO.C,C19*%
X-7450000Y14780000D03*
X-7450000Y13820000D03*
%TD*%
D53*
%TO.C,J3*%
X-3800000Y15000000D03*
D54*
X-3800000Y17500000D03*
X-3800000Y20000000D03*
X-3800000Y22500000D03*
%TD*%
D10*
%TO.C,C5*%
X-14450000Y34870000D03*
X-14450000Y35830000D03*
%TD*%
D24*
%TO.C,R15*%
X-27600000Y21460000D03*
X-27600000Y20440000D03*
%TD*%
D13*
%TO.C,C12*%
X-4250000Y27667620D03*
D14*
X-4250000Y30167620D03*
%TD*%
D23*
%TO.C,LED6*%
X-32050000Y16362500D03*
X-32050000Y17937500D03*
%TD*%
D33*
%TO.C,TH1*%
X-14950000Y12350000D03*
X-13300000Y12350000D03*
%TD*%
D48*
%TO.C,C24*%
X-16250000Y14580000D03*
X-16250000Y13620000D03*
%TD*%
D11*
%TO.C,C10*%
X-1350000Y36175000D03*
X-1350000Y33225000D03*
%TD*%
D48*
%TO.C,C14*%
X-10950000Y30980000D03*
X-10950000Y30020000D03*
%TD*%
D47*
%TO.C,C3*%
X-31325000Y38600000D03*
X-34275000Y38600000D03*
%TD*%
D24*
%TO.C,R16*%
X-28750000Y20110000D03*
X-28750000Y19090000D03*
%TD*%
D13*
%TO.C,C11*%
X-10250000Y25794887D03*
D14*
X-10250000Y27794887D03*
%TD*%
D22*
%TO.C,C21*%
X-7520000Y12600000D03*
X-8480000Y12600000D03*
%TD*%
D55*
%TO.C,C18*%
X-19080000Y17000000D03*
X-18120000Y17000000D03*
%TD*%
D24*
%TO.C,R11*%
X-24650000Y8510000D03*
X-24650000Y7490000D03*
%TD*%
D41*
%TO.C,H3*%
X-41150000Y39500000D03*
X-40666726Y40666726D03*
X-40666726Y38333274D03*
X-39500000Y41150000D03*
D42*
X-39500000Y39500000D03*
D41*
X-39500000Y37850000D03*
X-38333274Y40666726D03*
X-38333274Y38333274D03*
X-37850000Y39500000D03*
%TD*%
D18*
%TO.C,LED4*%
X-27750000Y8787500D03*
X-27750000Y7212500D03*
%TD*%
D41*
%TO.C,H2*%
X-4150000Y2500000D03*
X-3666726Y3666726D03*
X-3666726Y1333274D03*
X-2500000Y4150000D03*
D42*
X-2500000Y2500000D03*
D41*
X-2500000Y850000D03*
X-1333274Y3666726D03*
X-1333274Y1333274D03*
X-850000Y2500000D03*
%TD*%
D48*
%TO.C,C6*%
X-9900000Y34180000D03*
X-9900000Y33220000D03*
%TD*%
D24*
%TO.C,R2*%
X-12700000Y31310000D03*
X-12700000Y30290000D03*
%TD*%
M02*
