%TF.GenerationSoftware,KiCad,Pcbnew,9.0.0*%
%TF.CreationDate,2025-08-20T08:39:56+02:00*%
%TF.ProjectId,SPARK,53504152-4b2e-46b6-9963-61645f706362,rev?*%
%TF.SameCoordinates,Original*%
%TF.FileFunction,Copper,L1,Top*%
%TF.FilePolarity,Positive*%
%FSLAX46Y46*%
G04 Gerber Fmt 4.6, Leading zero omitted, Abs format (unit mm)*
G04 Created by KiCad (PCBNEW 9.0.0) date 2025-08-20 08:39:56*
%MOMM*%
%LPD*%
G01*
G04 APERTURE LIST*
G04 Aperture macros list*
%AMRoundRect*
0 Rectangle with rounded corners*
0 $1 Rounding radius*
0 $2 $3 $4 $5 $6 $7 $8 $9 X,Y pos of 4 corners*
0 Add a 4 corners polygon primitive as box body*
4,1,4,$2,$3,$4,$5,$6,$7,$8,$9,$2,$3,0*
0 Add four circle primitives for the rounded corners*
1,1,$1+$1,$2,$3*
1,1,$1+$1,$4,$5*
1,1,$1+$1,$6,$7*
1,1,$1+$1,$8,$9*
0 Add four rect primitives between the rounded corners*
20,1,$1+$1,$2,$3,$4,$5,0*
20,1,$1+$1,$4,$5,$6,$7,0*
20,1,$1+$1,$6,$7,$8,$9,0*
20,1,$1+$1,$8,$9,$2,$3,0*%
G04 Aperture macros list end*
%TA.AperFunction,SMDPad,CuDef*%
%ADD10RoundRect,0.140000X0.170000X-0.140000X0.170000X0.140000X-0.170000X0.140000X-0.170000X-0.140000X0*%
%TD*%
%TA.AperFunction,SMDPad,CuDef*%
%ADD11RoundRect,0.250000X-0.650000X0.325000X-0.650000X-0.325000X0.650000X-0.325000X0.650000X0.325000X0*%
%TD*%
%TA.AperFunction,SMDPad,CuDef*%
%ADD12RoundRect,0.250000X0.475000X-0.250000X0.475000X0.250000X-0.475000X0.250000X-0.475000X-0.250000X0*%
%TD*%
%TA.AperFunction,ComponentPad*%
%ADD13R,1.600000X1.600000*%
%TD*%
%TA.AperFunction,ComponentPad*%
%ADD14C,1.600000*%
%TD*%
%TA.AperFunction,SMDPad,CuDef*%
%ADD15RoundRect,0.150000X-0.150000X-0.700000X0.150000X-0.700000X0.150000X0.700000X-0.150000X0.700000X0*%
%TD*%
%TA.AperFunction,SMDPad,CuDef*%
%ADD16RoundRect,0.250000X-0.250000X-1.100000X0.250000X-1.100000X0.250000X1.100000X-0.250000X1.100000X0*%
%TD*%
%TA.AperFunction,SMDPad,CuDef*%
%ADD17RoundRect,0.135000X-0.135000X-0.185000X0.135000X-0.185000X0.135000X0.185000X-0.135000X0.185000X0*%
%TD*%
%TA.AperFunction,SMDPad,CuDef*%
%ADD18RoundRect,0.218750X-0.256250X0.218750X-0.256250X-0.218750X0.256250X-0.218750X0.256250X0.218750X0*%
%TD*%
%TA.AperFunction,SMDPad,CuDef*%
%ADD19RoundRect,0.135000X0.185000X-0.135000X0.185000X0.135000X-0.185000X0.135000X-0.185000X-0.135000X0*%
%TD*%
%TA.AperFunction,SMDPad,CuDef*%
%ADD20RoundRect,0.100000X0.675000X0.100000X-0.675000X0.100000X-0.675000X-0.100000X0.675000X-0.100000X0*%
%TD*%
%TA.AperFunction,HeatsinkPad*%
%ADD21C,0.450000*%
%TD*%
%TA.AperFunction,HeatsinkPad*%
%ADD22R,3.100000X4.050000*%
%TD*%
%TA.AperFunction,SMDPad,CuDef*%
%ADD23RoundRect,0.140000X0.140000X0.170000X-0.140000X0.170000X-0.140000X-0.170000X0.140000X-0.170000X0*%
%TD*%
%TA.AperFunction,SMDPad,CuDef*%
%ADD24RoundRect,0.218750X0.256250X-0.218750X0.256250X0.218750X-0.256250X0.218750X-0.256250X-0.218750X0*%
%TD*%
%TA.AperFunction,SMDPad,CuDef*%
%ADD25RoundRect,0.135000X-0.185000X0.135000X-0.185000X-0.135000X0.185000X-0.135000X0.185000X0.135000X0*%
%TD*%
%TA.AperFunction,SMDPad,CuDef*%
%ADD26R,2.920000X1.270000*%
%TD*%
%TA.AperFunction,SMDPad,CuDef*%
%ADD27R,1.650000X3.430000*%
%TD*%
%TA.AperFunction,SMDPad,CuDef*%
%ADD28R,1.000000X1.550000*%
%TD*%
%TA.AperFunction,SMDPad,CuDef*%
%ADD29RoundRect,0.125000X0.625000X0.125000X-0.625000X0.125000X-0.625000X-0.125000X0.625000X-0.125000X0*%
%TD*%
%TA.AperFunction,SMDPad,CuDef*%
%ADD30RoundRect,0.125000X0.125000X0.625000X-0.125000X0.625000X-0.125000X-0.625000X0.125000X-0.625000X0*%
%TD*%
%TA.AperFunction,ComponentPad*%
%ADD31R,1.700000X1.700000*%
%TD*%
%TA.AperFunction,ComponentPad*%
%ADD32O,1.700000X1.700000*%
%TD*%
%TA.AperFunction,SMDPad,CuDef*%
%ADD33RoundRect,0.200000X-0.200000X-0.275000X0.200000X-0.275000X0.200000X0.275000X-0.200000X0.275000X0*%
%TD*%
%TA.AperFunction,SMDPad,CuDef*%
%ADD34RoundRect,0.062500X0.062500X-0.225000X0.062500X0.225000X-0.062500X0.225000X-0.062500X-0.225000X0*%
%TD*%
%TA.AperFunction,SMDPad,CuDef*%
%ADD35RoundRect,0.056250X-0.293750X0.056250X-0.293750X-0.056250X0.293750X-0.056250X0.293750X0.056250X0*%
%TD*%
%TA.AperFunction,SMDPad,CuDef*%
%ADD36RoundRect,0.062500X-0.062500X-0.212500X0.062500X-0.212500X0.062500X0.212500X-0.062500X0.212500X0*%
%TD*%
%TA.AperFunction,SMDPad,CuDef*%
%ADD37RoundRect,0.100000X0.100000X-0.525000X0.100000X0.525000X-0.100000X0.525000X-0.100000X-0.525000X0*%
%TD*%
%TA.AperFunction,SMDPad,CuDef*%
%ADD38RoundRect,0.100000X0.625000X-0.100000X0.625000X0.100000X-0.625000X0.100000X-0.625000X-0.100000X0*%
%TD*%
%TA.AperFunction,SMDPad,CuDef*%
%ADD39RoundRect,0.100000X0.400000X-0.100000X0.400000X0.100000X-0.400000X0.100000X-0.400000X-0.100000X0*%
%TD*%
%TA.AperFunction,SMDPad,CuDef*%
%ADD40RoundRect,0.062500X0.212500X-0.062500X0.212500X0.062500X-0.212500X0.062500X-0.212500X-0.062500X0*%
%TD*%
%TA.AperFunction,ComponentPad*%
%ADD41C,0.700000*%
%TD*%
%TA.AperFunction,ComponentPad*%
%ADD42C,4.400000*%
%TD*%
%TA.AperFunction,SMDPad,CuDef*%
%ADD43RoundRect,0.090000X0.660000X0.360000X-0.660000X0.360000X-0.660000X-0.360000X0.660000X-0.360000X0*%
%TD*%
%TA.AperFunction,SMDPad,CuDef*%
%ADD44RoundRect,0.225000X0.250000X-0.225000X0.250000X0.225000X-0.250000X0.225000X-0.250000X-0.225000X0*%
%TD*%
%TA.AperFunction,SMDPad,CuDef*%
%ADD45RoundRect,0.135000X0.135000X0.185000X-0.135000X0.185000X-0.135000X-0.185000X0.135000X-0.185000X0*%
%TD*%
%TA.AperFunction,SMDPad,CuDef*%
%ADD46RoundRect,0.250000X-1.375000X-2.000000X1.375000X-2.000000X1.375000X2.000000X-1.375000X2.000000X0*%
%TD*%
%TA.AperFunction,SMDPad,CuDef*%
%ADD47RoundRect,0.250000X0.325000X0.650000X-0.325000X0.650000X-0.325000X-0.650000X0.325000X-0.650000X0*%
%TD*%
%TA.AperFunction,SMDPad,CuDef*%
%ADD48RoundRect,0.140000X-0.170000X0.140000X-0.170000X-0.140000X0.170000X-0.140000X0.170000X0.140000X0*%
%TD*%
%TA.AperFunction,SMDPad,CuDef*%
%ADD49RoundRect,0.150000X0.150000X0.700000X-0.150000X0.700000X-0.150000X-0.700000X0.150000X-0.700000X0*%
%TD*%
%TA.AperFunction,SMDPad,CuDef*%
%ADD50RoundRect,0.250000X0.250000X1.100000X-0.250000X1.100000X-0.250000X-1.100000X0.250000X-1.100000X0*%
%TD*%
%TA.AperFunction,SMDPad,CuDef*%
%ADD51RoundRect,0.150000X-0.700000X0.150000X-0.700000X-0.150000X0.700000X-0.150000X0.700000X0.150000X0*%
%TD*%
%TA.AperFunction,SMDPad,CuDef*%
%ADD52RoundRect,0.250000X-1.100000X0.250000X-1.100000X-0.250000X1.100000X-0.250000X1.100000X0.250000X0*%
%TD*%
%TA.AperFunction,ComponentPad*%
%ADD53RoundRect,0.250000X0.725000X-0.600000X0.725000X0.600000X-0.725000X0.600000X-0.725000X-0.600000X0*%
%TD*%
%TA.AperFunction,ComponentPad*%
%ADD54O,1.950000X1.700000*%
%TD*%
%TA.AperFunction,SMDPad,CuDef*%
%ADD55RoundRect,0.140000X-0.140000X-0.170000X0.140000X-0.170000X0.140000X0.170000X-0.140000X0.170000X0*%
%TD*%
%TA.AperFunction,ViaPad*%
%ADD56C,0.700000*%
%TD*%
%TA.AperFunction,ViaPad*%
%ADD57C,0.450000*%
%TD*%
%TA.AperFunction,ViaPad*%
%ADD58C,0.600000*%
%TD*%
%TA.AperFunction,Conductor*%
%ADD59C,0.250000*%
%TD*%
%TA.AperFunction,Conductor*%
%ADD60C,0.300000*%
%TD*%
%TA.AperFunction,Conductor*%
%ADD61C,0.500000*%
%TD*%
%TA.AperFunction,Conductor*%
%ADD62C,0.200000*%
%TD*%
G04 APERTURE END LIST*
D10*
%TO.P,C22,1*%
%TO.N,+12V*%
X-7450000Y22470000D03*
%TO.P,C22,2*%
%TO.N,PGND*%
X-7450000Y23430000D03*
%TD*%
D11*
%TO.P,C8,1*%
%TO.N,+12V*%
X-5950000Y36175000D03*
%TO.P,C8,2*%
%TO.N,PGND*%
X-5950000Y33225000D03*
%TD*%
D12*
%TO.P,C17,1*%
%TO.N,+3V3*%
X-17700000Y13850000D03*
%TO.P,C17,2*%
%TO.N,GND*%
X-17700000Y15750000D03*
%TD*%
D13*
%TO.P,C1,1*%
%TO.N,+BATT*%
X-31844887Y34700000D03*
D14*
%TO.P,C1,2*%
%TO.N,PGND*%
X-33844887Y34700000D03*
%TD*%
D15*
%TO.P,J8,1,Pin_1*%
%TO.N,+3V3*%
X-19075000Y4850000D03*
%TO.P,J8,2,Pin_2*%
%TO.N,SW1*%
X-17825000Y4850000D03*
%TO.P,J8,3,Pin_3*%
%TO.N,SW2*%
X-16575000Y4850000D03*
%TO.P,J8,4,Pin_4*%
%TO.N,GND*%
X-15325000Y4850000D03*
D16*
%TO.P,J8,MP,MountPin*%
%TO.N,PGND*%
X-20925000Y1650000D03*
X-13475000Y1650000D03*
%TD*%
D13*
%TO.P,C23,1*%
%TO.N,+12V*%
X-7644887Y9350000D03*
D14*
%TO.P,C23,2*%
%TO.N,PGND*%
X-9644887Y9350000D03*
%TD*%
D17*
%TO.P,R7,1*%
%TO.N,GND*%
X-16310000Y25500000D03*
%TO.P,R7,2*%
%TO.N,VD1*%
X-15290000Y25500000D03*
%TD*%
D11*
%TO.P,C7,1*%
%TO.N,+12V*%
X-8250000Y36175000D03*
%TO.P,C7,2*%
%TO.N,PGND*%
X-8250000Y33225000D03*
%TD*%
D18*
%TO.P,LED5,1,K*%
%TO.N,GND*%
X-26000000Y8787500D03*
%TO.P,LED5,2,A*%
%TO.N,/LED2_A*%
X-26000000Y7212500D03*
%TD*%
%TO.P,LED2,1,K*%
%TO.N,GND*%
X-16000000Y8787500D03*
%TO.P,LED2,2,A*%
%TO.N,/3V3LED_A*%
X-16000000Y7212500D03*
%TD*%
D19*
%TO.P,R13,1*%
%TO.N,DRV_DIR*%
X-35100000Y16640000D03*
%TO.P,R13,2*%
%TO.N,/DIRLED_A*%
X-35100000Y17660000D03*
%TD*%
D20*
%TO.P,U3,1,VCP*%
%TO.N,/VCP*%
X-8975000Y13975000D03*
%TO.P,U3,2,VM*%
%TO.N,+12V*%
X-8975000Y14625000D03*
%TO.P,U3,3,PGND*%
%TO.N,PGND*%
X-8975000Y15275000D03*
%TO.P,U3,4,AOUT1*%
%TO.N,AOUT1*%
X-8975000Y15925000D03*
%TO.P,U3,5,AOUT1*%
X-8975000Y16575000D03*
%TO.P,U3,6,AOUT2*%
%TO.N,AOUT2*%
X-8975000Y17225000D03*
%TO.P,U3,7,AOUT2*%
X-8975000Y17875000D03*
%TO.P,U3,8,BOUT2*%
%TO.N,BOUT2*%
X-8975000Y18525000D03*
%TO.P,U3,9,BOUT2*%
X-8975000Y19175000D03*
%TO.P,U3,10,BOUT1*%
%TO.N,BOUT1*%
X-8975000Y19825000D03*
%TO.P,U3,11,BOUT1*%
X-8975000Y20475000D03*
%TO.P,U3,12,PGND*%
%TO.N,PGND*%
X-8975000Y21125000D03*
%TO.P,U3,13,VM*%
%TO.N,+12V*%
X-8975000Y21775000D03*
%TO.P,U3,14,GND*%
%TO.N,PGND*%
X-8975000Y22425000D03*
%TO.P,U3,15,DVDD*%
%TO.N,/DVDD*%
X-14725000Y22425000D03*
%TO.P,U3,16,~{FAULT}*%
%TO.N,DRV_FAULT*%
X-14725000Y21775000D03*
%TO.P,U3,17,VREF*%
%TO.N,VREF*%
X-14725000Y21125000D03*
%TO.P,U3,18,nSCS*%
%TO.N,DRV_CS*%
X-14725000Y20475000D03*
%TO.P,U3,19,VSDO*%
%TO.N,+3V3*%
X-14725000Y19825000D03*
%TO.P,U3,20,SDO*%
%TO.N,DRV_MISO*%
X-14725000Y19175000D03*
%TO.P,U3,21,SDI*%
%TO.N,DRV_MOSI*%
X-14725000Y18525000D03*
%TO.P,U3,22,SCLK*%
%TO.N,DRV_SCK*%
X-14725000Y17875000D03*
%TO.P,U3,23,STEP*%
%TO.N,DRV_STEP*%
X-14725000Y17225000D03*
%TO.P,U3,24,DIR*%
%TO.N,DRV_DIR*%
X-14725000Y16575000D03*
%TO.P,U3,25,ENABLE*%
%TO.N,DRV_EN*%
X-14725000Y15925000D03*
%TO.P,U3,26,~{SLEEP}*%
%TO.N,DRV_SLEEP*%
X-14725000Y15275000D03*
%TO.P,U3,27,CPL*%
%TO.N,/CPL*%
X-14725000Y14625000D03*
%TO.P,U3,28,CPH*%
%TO.N,/CPH*%
X-14725000Y13975000D03*
D21*
%TO.P,U3,29,PAD*%
%TO.N,PGND*%
X-10650000Y14000000D03*
X-10650000Y15200000D03*
X-10650000Y16400000D03*
X-10650000Y17600000D03*
X-10650000Y18800000D03*
X-10650000Y20000000D03*
X-10650000Y21200000D03*
X-10650000Y22400000D03*
X-11850000Y14000000D03*
X-11850000Y15200000D03*
X-11850000Y16400000D03*
X-11850000Y17600000D03*
D22*
X-11850000Y18200000D03*
D21*
X-11850000Y18800000D03*
X-11850000Y20000000D03*
X-11850000Y21200000D03*
X-11850000Y22400000D03*
X-13050000Y14000000D03*
X-13050000Y15200000D03*
X-13050000Y16400000D03*
X-13050000Y17600000D03*
X-13050000Y18800000D03*
X-13050000Y20000000D03*
X-13050000Y21200000D03*
X-13050000Y22400000D03*
%TD*%
D23*
%TO.P,C20,1*%
%TO.N,+3V3*%
X-16620000Y19950000D03*
%TO.P,C20,2*%
%TO.N,PGND*%
X-17580000Y19950000D03*
%TD*%
D10*
%TO.P,C4,1*%
%TO.N,+BATT*%
X-13150000Y35920000D03*
%TO.P,C4,2*%
%TO.N,PGND*%
X-13150000Y36880000D03*
%TD*%
D11*
%TO.P,C9,1*%
%TO.N,+12V*%
X-3650000Y36175000D03*
%TO.P,C9,2*%
%TO.N,PGND*%
X-3650000Y33225000D03*
%TD*%
D19*
%TO.P,R12,1*%
%TO.N,DRV_STEP*%
X-30750000Y16640000D03*
%TO.P,R12,2*%
%TO.N,/STEPLED_A*%
X-30750000Y17660000D03*
%TD*%
D24*
%TO.P,LED7,1,K*%
%TO.N,GND*%
X-33800000Y16362500D03*
%TO.P,LED7,2,A*%
%TO.N,/DIRLED_A*%
X-33800000Y17937500D03*
%TD*%
D25*
%TO.P,R10,1*%
%TO.N,LED1*%
X-29100000Y8510000D03*
%TO.P,R10,2*%
%TO.N,/LED1_A*%
X-29100000Y7490000D03*
%TD*%
D26*
%TO.P,J4,1,Pin_1*%
%TO.N,PGND*%
X-31315000Y24600000D03*
%TO.P,J4,2,Pin_2*%
X-31315000Y27600000D03*
%TO.P,J4,3,Pin_3*%
%TO.N,+BATT*%
X-26685000Y24600000D03*
%TO.P,J4,4,Pin_4*%
X-26685000Y27600000D03*
D27*
%TO.P,J4,MP,MountPin*%
%TO.N,PGND*%
X-36785000Y20715000D03*
X-36785000Y31485000D03*
%TD*%
D25*
%TO.P,R8,1*%
%TO.N,+3V3*%
X-17337500Y8510000D03*
%TO.P,R8,2*%
%TO.N,/3V3LED_A*%
X-17337500Y7490000D03*
%TD*%
D17*
%TO.P,R14,1*%
%TO.N,DRV_FAULT*%
X-21710000Y20450000D03*
%TO.P,R14,2*%
%TO.N,+3V3*%
X-20690000Y20450000D03*
%TD*%
D28*
%TO.P,SW1,1,A*%
%TO.N,GND*%
X-1250000Y11125000D03*
X-1250000Y5875000D03*
%TO.P,SW1,2,B*%
%TO.N,NRST*%
X-2950000Y11125000D03*
X-2950000Y5875000D03*
%TD*%
D29*
%TO.P,U2,1,PB9*%
%TO.N,FC_CS*%
X-20625000Y12000000D03*
%TO.P,U2,2,PC14*%
%TO.N,SW1*%
X-20625000Y12800000D03*
%TO.P,U2,3,PC15*%
%TO.N,SW2*%
X-20625000Y13600000D03*
%TO.P,U2,4,VDD*%
%TO.N,+3V3*%
X-20625000Y14400000D03*
%TO.P,U2,5,VSS*%
%TO.N,GND*%
X-20625000Y15200000D03*
%TO.P,U2,6,PF2-NRST*%
%TO.N,NRST*%
X-20625000Y16000000D03*
%TO.P,U2,7,PA0*%
%TO.N,NTC1*%
X-20625000Y16800000D03*
%TO.P,U2,8,PA1*%
%TO.N,NTC2*%
X-20625000Y17600000D03*
D30*
%TO.P,U2,9,PA2*%
%TO.N,VD1*%
X-22000000Y18975000D03*
%TO.P,U2,10,PA3*%
%TO.N,DRV_FAULT*%
X-22800000Y18975000D03*
%TO.P,U2,11,PA4*%
%TO.N,VREF*%
X-23600000Y18975000D03*
%TO.P,U2,12,PA5*%
%TO.N,DRV_SCK*%
X-24400000Y18975000D03*
%TO.P,U2,13,PA6*%
%TO.N,DRV_MISO*%
X-25200000Y18975000D03*
%TO.P,U2,14,PA7*%
%TO.N,DRV_MOSI*%
X-26000000Y18975000D03*
%TO.P,U2,15,PB0*%
%TO.N,DRV_CS*%
X-26800000Y18975000D03*
%TO.P,U2,16,PB1*%
%TO.N,unconnected-(U2-PB1-Pad16)*%
X-27600000Y18975000D03*
D29*
%TO.P,U2,17,PB2*%
%TO.N,unconnected-(U2-PB2-Pad17)*%
X-28975000Y17600000D03*
%TO.P,U2,18,PA8*%
%TO.N,DRV_STEP*%
X-28975000Y16800000D03*
%TO.P,U2,19,PA9*%
%TO.N,DRV_DIR*%
X-28975000Y16000000D03*
%TO.P,U2,20,PC6*%
%TO.N,DRV_EN*%
X-28975000Y15200000D03*
%TO.P,U2,21,PA10*%
%TO.N,DRV_SLEEP*%
X-28975000Y14400000D03*
%TO.P,U2,22,PA9/PA11*%
%TO.N,ME_SCL*%
X-28975000Y13600000D03*
%TO.P,U2,23,PA10/PA12*%
%TO.N,ME_SDA*%
X-28975000Y12800000D03*
%TO.P,U2,24,PA13*%
%TO.N,SWDIO*%
X-28975000Y12000000D03*
D30*
%TO.P,U2,25,PA14-BOOT0*%
%TO.N,SWCLK*%
X-27600000Y10625000D03*
%TO.P,U2,26,PA15*%
%TO.N,RGB*%
X-26800000Y10625000D03*
%TO.P,U2,27,PB3*%
%TO.N,LED1*%
X-26000000Y10625000D03*
%TO.P,U2,28,PB4*%
%TO.N,LED2*%
X-25200000Y10625000D03*
%TO.P,U2,29,PB5*%
%TO.N,unconnected-(U2-PB5-Pad29)*%
X-24400000Y10625000D03*
%TO.P,U2,30,PB6*%
%TO.N,FC_MISO*%
X-23600000Y10625000D03*
%TO.P,U2,31,PB7*%
%TO.N,FC_MOSI*%
X-22800000Y10625000D03*
%TO.P,U2,32,PB8*%
%TO.N,FC_SCK*%
X-22000000Y10625000D03*
%TD*%
D25*
%TO.P,R3,1*%
%TO.N,/COMP_M*%
X-10100000Y31010000D03*
%TO.P,R3,2*%
%TO.N,PGND*%
X-10100000Y29990000D03*
%TD*%
D18*
%TO.P,LED3,1,K*%
%TO.N,GND*%
X-14250000Y8787500D03*
%TO.P,LED3,2,A*%
%TO.N,/12VLED_A*%
X-14250000Y7212500D03*
%TD*%
D31*
%TO.P,J6,1,Pin_1*%
%TO.N,+3V3*%
X-40000000Y7500000D03*
D32*
%TO.P,J6,2,Pin_2*%
%TO.N,GND*%
X-37460000Y7500000D03*
%TO.P,J6,3,Pin_3*%
%TO.N,SWDIO*%
X-34920000Y7500000D03*
%TO.P,J6,4,Pin_4*%
%TO.N,SWCLK*%
X-32380000Y7500000D03*
%TD*%
D33*
%TO.P,TH2,1*%
%TO.N,NTC2*%
X-15875000Y28050000D03*
%TO.P,TH2,2*%
%TO.N,GND*%
X-14225000Y28050000D03*
%TD*%
D15*
%TO.P,J1,1,Pin_1*%
%TO.N,+3V3*%
X-9625000Y4850000D03*
%TO.P,J1,2,Pin_2*%
%TO.N,GND*%
X-8375000Y4850000D03*
D16*
%TO.P,J1,MP,MountPin*%
%TO.N,PGND*%
X-11475000Y1650000D03*
X-6525000Y1650000D03*
%TD*%
D10*
%TO.P,C13,1*%
%TO.N,/VCC*%
X-14700000Y30820000D03*
%TO.P,C13,2*%
%TO.N,PGND*%
X-14700000Y31780000D03*
%TD*%
D15*
%TO.P,J5,1,Pin_1*%
%TO.N,+3V3*%
X-31075000Y4850000D03*
%TO.P,J5,2,Pin_2*%
%TO.N,FC_CS*%
X-29825000Y4850000D03*
%TO.P,J5,3,Pin_3*%
%TO.N,FC_SCK*%
X-28575000Y4850000D03*
%TO.P,J5,4,Pin_4*%
%TO.N,FC_MISO*%
X-27325000Y4850000D03*
%TO.P,J5,5,Pin_5*%
%TO.N,FC_MOSI*%
X-26075000Y4850000D03*
%TO.P,J5,6,Pin_6*%
%TO.N,GND*%
X-24825000Y4850000D03*
D16*
%TO.P,J5,MP,MountPin*%
%TO.N,PGND*%
X-32925000Y1650000D03*
X-22975000Y1650000D03*
%TD*%
D34*
%TO.P,U1,1,FB*%
%TO.N,/FB*%
X-12950000Y32287500D03*
D35*
X-13175000Y32462500D03*
D36*
%TO.P,U1,2,COMP*%
%TO.N,/COMP*%
X-12450000Y32275000D03*
D37*
%TO.P,U1,3,PGND*%
%TO.N,PGND*%
X-11875000Y32625000D03*
D38*
X-11350000Y33050000D03*
D39*
%TO.P,U1,4,SW*%
%TO.N,/SW*%
X-11825000Y33700000D03*
D38*
%TO.P,U1,5,VOUT*%
%TO.N,+12V*%
X-11350000Y34350000D03*
D37*
X-11875000Y34775000D03*
D36*
%TO.P,U1,6,EN*%
%TO.N,/VCC*%
X-12450000Y35125000D03*
D35*
%TO.P,U1,7,VIN*%
%TO.N,+BATT*%
X-13175000Y34937500D03*
D34*
X-12950000Y35112500D03*
D40*
%TO.P,U1,8,BST*%
%TO.N,/BST*%
X-13250000Y34450000D03*
%TO.P,U1,9,SW*%
%TO.N,/SW*%
X-13250000Y33950000D03*
%TO.P,U1,10,AGND*%
%TO.N,PGND*%
X-13250000Y33450000D03*
%TO.P,U1,11,VCC*%
%TO.N,/VCC*%
X-13250000Y32950000D03*
%TD*%
D41*
%TO.P,H4,1,1*%
%TO.N,PGND*%
X-4150000Y39500000D03*
X-3666726Y40666726D03*
X-3666726Y38333274D03*
X-2500000Y41150000D03*
D42*
X-2500000Y39500000D03*
D41*
X-2500000Y37850000D03*
X-1333274Y40666726D03*
X-1333274Y38333274D03*
X-850000Y39500000D03*
%TD*%
D43*
%TO.P,LED1,1,VDD*%
%TO.N,+3V3*%
X-18550000Y22450000D03*
%TO.P,LED1,2,DOUT*%
%TO.N,unconnected-(LED1-DOUT-Pad2)*%
X-18550000Y25750000D03*
%TO.P,LED1,3,VSS*%
%TO.N,GND*%
X-23450000Y25750000D03*
%TO.P,LED1,4,DIN*%
%TO.N,RGB*%
X-23450000Y22450000D03*
%TD*%
D25*
%TO.P,R9,1*%
%TO.N,+12V*%
X-12937500Y8510000D03*
%TO.P,R9,2*%
%TO.N,/12VLED_A*%
X-12937500Y7490000D03*
%TD*%
D17*
%TO.P,R6,1*%
%TO.N,VD1*%
X-14410000Y25500000D03*
%TO.P,R6,2*%
%TO.N,+12V*%
X-13390000Y25500000D03*
%TD*%
D41*
%TO.P,H1,1,1*%
%TO.N,PGND*%
X-41150000Y2500000D03*
X-40666726Y3666726D03*
X-40666726Y1333274D03*
X-39500000Y4150000D03*
D42*
X-39500000Y2500000D03*
D41*
X-39500000Y850000D03*
X-38333274Y3666726D03*
X-38333274Y1333274D03*
X-37850000Y2500000D03*
%TD*%
D44*
%TO.P,C25,1*%
%TO.N,/DVDD*%
X-16550000Y22625000D03*
%TO.P,C25,2*%
%TO.N,PGND*%
X-16550000Y24175000D03*
%TD*%
D19*
%TO.P,R1,1*%
%TO.N,+12V*%
X-13600000Y30290000D03*
%TO.P,R1,2*%
%TO.N,/FB*%
X-13600000Y31310000D03*
%TD*%
D45*
%TO.P,R5,1*%
%TO.N,NTC2*%
X-17090000Y28050000D03*
%TO.P,R5,2*%
%TO.N,+3V3*%
X-18110000Y28050000D03*
%TD*%
D46*
%TO.P,L1,1,1*%
%TO.N,+BATT*%
X-28225000Y35350000D03*
%TO.P,L1,2,2*%
%TO.N,/SW*%
X-16975000Y35350000D03*
%TD*%
D47*
%TO.P,C2,1*%
%TO.N,+BATT*%
X-31325000Y40900000D03*
%TO.P,C2,2*%
%TO.N,PGND*%
X-34275000Y40900000D03*
%TD*%
D48*
%TO.P,C15,1*%
%TO.N,/COMP*%
X-11800000Y30980000D03*
%TO.P,C15,2*%
%TO.N,PGND*%
X-11800000Y30020000D03*
%TD*%
D10*
%TO.P,C16,1*%
%TO.N,+3V3*%
X-19150000Y14320000D03*
%TO.P,C16,2*%
%TO.N,GND*%
X-19150000Y15280000D03*
%TD*%
D25*
%TO.P,R4,1*%
%TO.N,NTC1*%
X-16425000Y12360000D03*
%TO.P,R4,2*%
%TO.N,+3V3*%
X-16425000Y11340000D03*
%TD*%
D49*
%TO.P,J2,1,Pin_1*%
%TO.N,+12V*%
X-10125000Y37150000D03*
%TO.P,J2,2,Pin_2*%
%TO.N,PGND*%
X-11375000Y37150000D03*
D50*
%TO.P,J2,MP,MountPin*%
X-8275000Y40350000D03*
X-13225000Y40350000D03*
%TD*%
D51*
%TO.P,J7,1,Pin_1*%
%TO.N,+3V3*%
X-37150000Y15625000D03*
%TO.P,J7,2,Pin_2*%
%TO.N,ME_SCL*%
X-37150000Y14375000D03*
%TO.P,J7,3,Pin_3*%
%TO.N,ME_SDA*%
X-37150000Y13125000D03*
%TO.P,J7,4,Pin_4*%
%TO.N,GND*%
X-37150000Y11875000D03*
D52*
%TO.P,J7,MP,MountPin*%
%TO.N,PGND*%
X-40350000Y17475000D03*
X-40350000Y10025000D03*
%TD*%
D48*
%TO.P,C19,1*%
%TO.N,+12V*%
X-7450000Y14780000D03*
%TO.P,C19,2*%
%TO.N,/VCP*%
X-7450000Y13820000D03*
%TD*%
D53*
%TO.P,J3,1,Pin_1*%
%TO.N,AOUT1*%
X-3800000Y15000000D03*
D54*
%TO.P,J3,2,Pin_2*%
%TO.N,AOUT2*%
X-3800000Y17500000D03*
%TO.P,J3,3,Pin_3*%
%TO.N,BOUT2*%
X-3800000Y20000000D03*
%TO.P,J3,4,Pin_4*%
%TO.N,BOUT1*%
X-3800000Y22500000D03*
%TD*%
D10*
%TO.P,C5,1*%
%TO.N,/SW*%
X-14450000Y34870000D03*
%TO.P,C5,2*%
%TO.N,/BST*%
X-14450000Y35830000D03*
%TD*%
D25*
%TO.P,R15,1*%
%TO.N,PGND*%
X-27600000Y21460000D03*
%TO.P,R15,2*%
%TO.N,VREF*%
X-27600000Y20440000D03*
%TD*%
D13*
%TO.P,C12,1*%
%TO.N,+12V*%
X-4250000Y27667620D03*
D14*
%TO.P,C12,2*%
%TO.N,PGND*%
X-4250000Y30167620D03*
%TD*%
D24*
%TO.P,LED6,1,K*%
%TO.N,GND*%
X-32050000Y16362500D03*
%TO.P,LED6,2,A*%
%TO.N,/STEPLED_A*%
X-32050000Y17937500D03*
%TD*%
D33*
%TO.P,TH1,1*%
%TO.N,NTC1*%
X-14950000Y12350000D03*
%TO.P,TH1,2*%
%TO.N,GND*%
X-13300000Y12350000D03*
%TD*%
D48*
%TO.P,C24,1*%
%TO.N,/CPL*%
X-16250000Y14580000D03*
%TO.P,C24,2*%
%TO.N,/CPH*%
X-16250000Y13620000D03*
%TD*%
D11*
%TO.P,C10,1*%
%TO.N,+12V*%
X-1350000Y36175000D03*
%TO.P,C10,2*%
%TO.N,PGND*%
X-1350000Y33225000D03*
%TD*%
D48*
%TO.P,C14,1*%
%TO.N,/COMP*%
X-10950000Y30980000D03*
%TO.P,C14,2*%
%TO.N,/COMP_M*%
X-10950000Y30020000D03*
%TD*%
D47*
%TO.P,C3,1*%
%TO.N,+BATT*%
X-31325000Y38600000D03*
%TO.P,C3,2*%
%TO.N,PGND*%
X-34275000Y38600000D03*
%TD*%
D25*
%TO.P,R16,1*%
%TO.N,VREF*%
X-28750000Y20110000D03*
%TO.P,R16,2*%
%TO.N,+3V3*%
X-28750000Y19090000D03*
%TD*%
D13*
%TO.P,C11,1*%
%TO.N,+12V*%
X-10250000Y25794887D03*
D14*
%TO.P,C11,2*%
%TO.N,PGND*%
X-10250000Y27794887D03*
%TD*%
D23*
%TO.P,C21,1*%
%TO.N,+12V*%
X-7520000Y12600000D03*
%TO.P,C21,2*%
%TO.N,PGND*%
X-8480000Y12600000D03*
%TD*%
D55*
%TO.P,C18,1*%
%TO.N,NRST*%
X-19080000Y17000000D03*
%TO.P,C18,2*%
%TO.N,GND*%
X-18120000Y17000000D03*
%TD*%
D25*
%TO.P,R11,1*%
%TO.N,LED2*%
X-24650000Y8510000D03*
%TO.P,R11,2*%
%TO.N,/LED2_A*%
X-24650000Y7490000D03*
%TD*%
D41*
%TO.P,H3,1,1*%
%TO.N,PGND*%
X-41150000Y39500000D03*
X-40666726Y40666726D03*
X-40666726Y38333274D03*
X-39500000Y41150000D03*
D42*
X-39500000Y39500000D03*
D41*
X-39500000Y37850000D03*
X-38333274Y40666726D03*
X-38333274Y38333274D03*
X-37850000Y39500000D03*
%TD*%
D18*
%TO.P,LED4,1,K*%
%TO.N,GND*%
X-27750000Y8787500D03*
%TO.P,LED4,2,A*%
%TO.N,/LED1_A*%
X-27750000Y7212500D03*
%TD*%
D41*
%TO.P,H2,1,1*%
%TO.N,PGND*%
X-4150000Y2500000D03*
X-3666726Y3666726D03*
X-3666726Y1333274D03*
X-2500000Y4150000D03*
D42*
X-2500000Y2500000D03*
D41*
X-2500000Y850000D03*
X-1333274Y3666726D03*
X-1333274Y1333274D03*
X-850000Y2500000D03*
%TD*%
D48*
%TO.P,C6,1*%
%TO.N,+12V*%
X-9900000Y34180000D03*
%TO.P,C6,2*%
%TO.N,PGND*%
X-9900000Y33220000D03*
%TD*%
D25*
%TO.P,R2,1*%
%TO.N,/FB*%
X-12700000Y31310000D03*
%TO.P,R2,2*%
%TO.N,PGND*%
X-12700000Y30290000D03*
%TD*%
D56*
%TO.N,+BATT*%
X-27000000Y38400000D03*
X-25750000Y29050000D03*
X-27000000Y29050000D03*
X-28100000Y32300000D03*
X-25750000Y35950000D03*
X-29200000Y32300000D03*
X-28250000Y26100000D03*
X-25750000Y33600000D03*
X-28250000Y29050000D03*
X-29200000Y38400000D03*
X-25750000Y34750000D03*
X-30550000Y37200000D03*
X-25750000Y37150000D03*
X-25750000Y26100000D03*
X-31850000Y36200000D03*
X-27000000Y26100000D03*
X-27000000Y32300000D03*
X-30150000Y39750000D03*
X-31850000Y33200000D03*
X-32350000Y39750000D03*
X-28100000Y38400000D03*
X-25350000Y41100000D03*
D57*
X-13750000Y35950000D03*
D56*
%TO.N,PGND*%
X-28500000Y21500000D03*
D58*
X-3050000Y30100000D03*
X-11200000Y32400000D03*
X-8850000Y31500000D03*
D56*
X-37500000Y34000000D03*
X-34950000Y32000000D03*
D58*
X-9950000Y31700000D03*
D56*
X-22200000Y25900000D03*
D58*
X-7100000Y34250000D03*
D56*
X-37000000Y27500000D03*
D58*
X-8300000Y34250000D03*
D56*
X-12150000Y12500000D03*
X-40000000Y32000000D03*
D58*
X-8300000Y32200000D03*
D56*
X-1500000Y23000000D03*
X-40500000Y20450000D03*
D58*
X-8300000Y30800000D03*
D56*
X-1500000Y20000000D03*
X-32500000Y29000000D03*
D57*
X-15350000Y30400000D03*
D56*
X-35500000Y41000000D03*
X-40000000Y30500000D03*
D58*
X-10750000Y31700000D03*
D56*
X-7500000Y1500000D03*
X-22200000Y23500000D03*
X-38500000Y31500000D03*
D57*
X-18200000Y19900000D03*
D56*
X-26500000Y23000000D03*
D58*
X-4200000Y31500000D03*
D56*
X-30700000Y29000000D03*
X-40500000Y11500000D03*
X-23150000Y27700000D03*
X-38500000Y29500000D03*
D58*
X-7700000Y31500000D03*
D56*
X-13050000Y23700000D03*
X-32450000Y26500000D03*
D58*
X-7700000Y30100000D03*
D56*
X-32500000Y30500000D03*
X-31000000Y1500000D03*
X-33250000Y28250000D03*
X-35500000Y38000000D03*
X-800000Y27000000D03*
X-28000000Y23000000D03*
X-34000000Y32000000D03*
X-3050000Y24650000D03*
X-6000000Y41000000D03*
X-40000000Y36500000D03*
X-2500000Y27000000D03*
X-34000000Y29000000D03*
X-31500000Y23500000D03*
X-40500000Y14500000D03*
X-22200000Y24700000D03*
X-1500000Y17000000D03*
X-30150000Y25700000D03*
X-32450000Y23500000D03*
X-37000000Y41000000D03*
X-21250000Y25300000D03*
X-28000000Y1500000D03*
D58*
X-3650000Y32200000D03*
D56*
X-38500000Y30500000D03*
X-40000000Y33500000D03*
X-35500000Y36500000D03*
X-1500000Y14000000D03*
X-14150000Y23700000D03*
X-8500000Y26000000D03*
X-25000000Y1500000D03*
D58*
X-9400000Y32200000D03*
D56*
X-22200000Y27100000D03*
X-38500000Y33500000D03*
X-21250000Y26500000D03*
X-40000000Y24500000D03*
X-1000000Y30500000D03*
X-35500000Y29000000D03*
X-2500000Y28450000D03*
X-29500000Y1500000D03*
D57*
X-15350000Y31000000D03*
D56*
X-6750000Y24650000D03*
X-26500000Y1500000D03*
X-34000000Y23000000D03*
X-27250000Y22250000D03*
X-40500000Y18900000D03*
D58*
X-7100000Y30800000D03*
X-3050000Y31500000D03*
D56*
X-1500000Y21500000D03*
X-32500000Y21500000D03*
D58*
X-1900000Y31500000D03*
D56*
X-10500000Y1500000D03*
X-31300000Y26500000D03*
D58*
X-3650000Y34250000D03*
D56*
X-37000000Y24500000D03*
X-12900000Y10700000D03*
X-21250000Y27700000D03*
D58*
X-9350000Y30800000D03*
D56*
X-1500000Y18550000D03*
X-37000000Y35000000D03*
X-38500000Y26000000D03*
X-19500000Y1500000D03*
X-4250000Y26000000D03*
X-22200000Y28300000D03*
D58*
X-7100000Y32200000D03*
D56*
X-32450000Y25700000D03*
X-40500000Y16000000D03*
X-6000000Y28500000D03*
X-31600000Y29000000D03*
X-31000000Y21500000D03*
X-36500000Y34000000D03*
X-30500000Y23500000D03*
X-35000000Y33000000D03*
X-35000000Y30000000D03*
D58*
X-2500000Y32200000D03*
X-10300000Y32400000D03*
X-5950000Y34250000D03*
D56*
X-16500000Y1500000D03*
X-35500000Y39500000D03*
X-40000000Y35000000D03*
X-38500000Y23000000D03*
X-9000000Y1500000D03*
X-1000000Y13000000D03*
D58*
X-4800000Y34250000D03*
D56*
X-35500000Y23000000D03*
X-15000000Y1500000D03*
X-29500000Y21500000D03*
X-34000000Y21500000D03*
D58*
X-2500000Y34250000D03*
D56*
X-26500000Y21500000D03*
X-31300000Y25700000D03*
X-29500000Y23500000D03*
X-40000000Y29000000D03*
X-34000000Y26000000D03*
X-34950000Y31000000D03*
D58*
X-2500000Y30800000D03*
D56*
X-40000000Y27500000D03*
X-1500000Y24650000D03*
X-34000000Y24500000D03*
X-21250000Y24100000D03*
X-4750000Y24650000D03*
X-37500000Y29000000D03*
X-16400000Y26800000D03*
X-6000000Y27000000D03*
D58*
X-1350000Y34250000D03*
D56*
X-34000000Y27500000D03*
X-10650000Y12500000D03*
X-38500000Y36500000D03*
X-29500000Y22500000D03*
X-11400000Y10700000D03*
X-1500000Y15500000D03*
X-40000000Y26000000D03*
X-40000000Y23000000D03*
X-17900000Y24350000D03*
X-18000000Y1500000D03*
X-35500000Y26000000D03*
X-11150000Y23700000D03*
X-40500000Y13000000D03*
X-7000000Y26000000D03*
X-38500000Y35000000D03*
X-25000000Y23000000D03*
X-30150000Y26500000D03*
X-34000000Y30500000D03*
X-38500000Y32500000D03*
D57*
X-15350000Y31600000D03*
X-650000Y34250000D03*
D58*
X-8850000Y30100000D03*
D56*
X-25750000Y22250000D03*
X-35500000Y34000000D03*
X-37000000Y38000000D03*
X-35000000Y1500000D03*
X-37000000Y36500000D03*
X-36500000Y29000000D03*
D58*
%TO.N,+12V*%
X-9300000Y38100000D03*
X-5950000Y35150000D03*
D56*
X-5300000Y13350000D03*
D58*
X-9400000Y35150000D03*
D57*
X-6900000Y22200000D03*
D56*
X-4700000Y12750000D03*
X-5300000Y12150000D03*
D58*
X-5650000Y38100000D03*
X-5200000Y37400000D03*
X-4800000Y35150000D03*
D57*
X-2500000Y36900000D03*
D58*
X-8300000Y35150000D03*
D57*
X-6300000Y22200000D03*
D58*
X-10150000Y35800000D03*
X-8350000Y38100000D03*
D57*
X-650000Y35150000D03*
X-4950000Y38100000D03*
D58*
X-6100000Y37400000D03*
D57*
X-6750000Y13950000D03*
D58*
X-8850000Y37400000D03*
X-6550000Y38100000D03*
D57*
X-6000000Y22650000D03*
X-13400000Y24800000D03*
D56*
X-5900000Y12750000D03*
D58*
X-7450000Y38100000D03*
D57*
X-650000Y37150000D03*
D56*
X-6500000Y13350000D03*
D57*
X-4400000Y37400000D03*
D56*
X-6500000Y12150000D03*
X-6500000Y14550000D03*
D57*
X-7800000Y15250000D03*
D58*
X-7100000Y35150000D03*
D57*
X-7800000Y21750000D03*
X-7200000Y21750000D03*
D58*
X-1350000Y35150000D03*
D56*
X-14500000Y39500000D03*
D57*
X-7500000Y21300000D03*
X-6600000Y22650000D03*
D58*
X-11200000Y35000000D03*
X-7900000Y37400000D03*
X-7000000Y37400000D03*
D56*
X-5900000Y13950000D03*
D58*
X-2500000Y35150000D03*
D56*
X-14500000Y41000000D03*
D57*
X-6600000Y21750000D03*
X-6750000Y12750000D03*
X-14250000Y30250000D03*
D58*
X-3650000Y35150000D03*
%TO.N,+3V3*%
X-18350000Y14800000D03*
X-19075000Y3500000D03*
D57*
X-15575000Y11340000D03*
D58*
X-38500000Y15625000D03*
X-9625000Y3500000D03*
D57*
X-28750000Y18450000D03*
D58*
X-19900000Y22450000D03*
D57*
X-17337500Y9687500D03*
X-20050000Y20450000D03*
X-18950000Y27650000D03*
D58*
X-31075000Y3500000D03*
D57*
X-16000000Y19825000D03*
D58*
%TO.N,GND*%
X-5650000Y7050000D03*
D57*
X-32050000Y17150000D03*
X-14550000Y11350000D03*
X-26000000Y8000000D03*
D58*
X-16000000Y9750000D03*
X-23850000Y5250000D03*
X-24000000Y20200000D03*
X-14250000Y9750000D03*
D57*
X-33800000Y17150000D03*
D58*
X-19350000Y16000000D03*
X-1000000Y9500000D03*
D57*
X-17100000Y25500000D03*
D58*
X-38500000Y11875000D03*
D57*
X-27750000Y8000000D03*
D58*
X-8375000Y3500000D03*
X-1000000Y7500000D03*
D57*
X-15050000Y28050000D03*
D58*
X-15325000Y3500000D03*
X-23450000Y26600000D03*
D57*
%TO.N,NRST*%
X-22550000Y12700000D03*
X-12850000Y6200000D03*
%TO.N,RGB*%
X-24700000Y22250000D03*
X-27750000Y17750000D03*
%TO.N,NTC1*%
X-17450000Y12350000D03*
X-23500000Y13650000D03*
%TO.N,NTC2*%
X-15050000Y27300000D03*
X-19000000Y19900000D03*
%TO.N,VD1*%
X-14850000Y24800000D03*
X-21200000Y19800000D03*
%TO.N,VREF*%
X-20050000Y21125000D03*
X-22125000Y21125000D03*
%TO.N,DRV_STEP*%
X-27750000Y16800000D03*
X-16000000Y17225000D03*
%TO.N,DRV_DIR*%
X-27750000Y16000000D03*
X-16500000Y16575000D03*
%TO.N,DRV_EN*%
X-16000000Y15925000D03*
X-27750000Y15200000D03*
%TO.N,DRV_MOSI*%
X-26000000Y17750000D03*
X-16000000Y18525000D03*
%TO.N,DRV_SCK*%
X-16500000Y17875000D03*
X-24400000Y17750000D03*
%TO.N,DRV_MISO*%
X-25200000Y20200000D03*
X-16500000Y19175000D03*
%TO.N,DRV_SLEEP*%
X-16500000Y15275000D03*
X-27750000Y14400000D03*
%TO.N,/SW*%
X-12550000Y33100000D03*
X-16950000Y35350000D03*
X-16950000Y37350000D03*
X-16950000Y38350000D03*
X-16950000Y36350000D03*
X-16950000Y32350000D03*
X-10900000Y33700000D03*
X-16950000Y34850000D03*
X-16950000Y37850000D03*
X-16950000Y34350000D03*
X-16950000Y32850000D03*
X-16950000Y36850000D03*
X-12550000Y34350000D03*
X-16950000Y33850000D03*
X-16950000Y33350000D03*
X-16950000Y35850000D03*
%TO.N,/VCC*%
X-12450000Y36000000D03*
X-14000000Y32000000D03*
%TD*%
D59*
%TO.N,PGND*%
X-14700000Y32200000D02*
X-14700000Y31780000D01*
D60*
X-17580000Y19950000D02*
X-18150000Y19950000D01*
D59*
X-13250000Y33450000D02*
X-13450000Y33450000D01*
X-13450000Y33450000D02*
X-14700000Y32200000D01*
D60*
X-18150000Y19950000D02*
X-18200000Y19900000D01*
%TO.N,+12V*%
X-7644887Y9055113D02*
X-7644887Y9350000D01*
D59*
X-13390000Y24810000D02*
X-13390000Y25500000D01*
D60*
X-12937500Y8510000D02*
X-12527500Y8100000D01*
X-12527500Y8100000D02*
X-8600000Y8100000D01*
X-8600000Y8100000D02*
X-7644887Y9055113D01*
D59*
X-13600000Y30290000D02*
X-14210000Y30290000D01*
X-14210000Y30290000D02*
X-14250000Y30250000D01*
X-13400000Y24800000D02*
X-13390000Y24810000D01*
%TO.N,+3V3*%
X-20690000Y20450000D02*
X-20050000Y20450000D01*
D61*
X-19900000Y22450000D02*
X-18550000Y22450000D01*
X-31075000Y3500000D02*
X-31075000Y4850000D01*
D59*
X-18950000Y27650000D02*
X-18550000Y28050000D01*
D61*
X-17700000Y13850000D02*
X-17700000Y14150000D01*
D60*
X-14725000Y19825000D02*
X-16000000Y19825000D01*
D61*
X-19075000Y3500000D02*
X-19075000Y4850000D01*
D59*
X-18550000Y28050000D02*
X-18110000Y28050000D01*
D61*
X-18680000Y13850000D02*
X-19150000Y14320000D01*
D60*
X-17337500Y9687500D02*
X-17337500Y8510000D01*
X-15575000Y11340000D02*
X-16425000Y11340000D01*
X-16000000Y19825000D02*
X-16495000Y19825000D01*
D61*
X-38500000Y15625000D02*
X-37150000Y15625000D01*
X-17700000Y14150000D02*
X-18350000Y14800000D01*
D59*
X-28750000Y19090000D02*
X-28750000Y18450000D01*
D61*
X-9625000Y3500000D02*
X-9625000Y4850000D01*
D60*
X-19230000Y14400000D02*
X-19150000Y14320000D01*
D61*
X-17700000Y13850000D02*
X-18680000Y13850000D01*
D60*
X-16495000Y19825000D02*
X-16620000Y19950000D01*
X-20625000Y14400000D02*
X-19230000Y14400000D01*
D61*
%TO.N,GND*%
X-17700000Y16580000D02*
X-18120000Y17000000D01*
D59*
X-13300000Y12350000D02*
X-13550000Y12350000D01*
D61*
X-1250000Y9750000D02*
X-1000000Y9500000D01*
X-24425000Y5250000D02*
X-23850000Y5250000D01*
X-8375000Y3500000D02*
X-8375000Y4850000D01*
X-14250000Y8787500D02*
X-14250000Y9750000D01*
D60*
X-32050000Y16362500D02*
X-32050000Y17150000D01*
D61*
X-38500000Y11875000D02*
X-37150000Y11875000D01*
D60*
X-33800000Y16362500D02*
X-33800000Y17150000D01*
X-19230000Y15200000D02*
X-19150000Y15280000D01*
D61*
X-18680000Y15750000D02*
X-19150000Y15280000D01*
X-17700000Y15750000D02*
X-17700000Y16580000D01*
D60*
X-27750000Y8787500D02*
X-27750000Y8000000D01*
X-20625000Y15200000D02*
X-19230000Y15200000D01*
D61*
X-24825000Y4850000D02*
X-24425000Y5250000D01*
D59*
X-14225000Y28050000D02*
X-15050000Y28050000D01*
D61*
X-1250000Y11125000D02*
X-1250000Y9750000D01*
D59*
X-13550000Y12350000D02*
X-14550000Y11350000D01*
D60*
X-26000000Y8787500D02*
X-26000000Y8000000D01*
D61*
X-17700000Y15750000D02*
X-18680000Y15750000D01*
X-15325000Y3500000D02*
X-15325000Y4850000D01*
X-18680000Y15750000D02*
X-19100000Y15750000D01*
X-1250000Y5875000D02*
X-1250000Y7250000D01*
X-23450000Y25750000D02*
X-23450000Y26600000D01*
X-16000000Y8787500D02*
X-16000000Y9750000D01*
X-1250000Y7250000D02*
X-1000000Y7500000D01*
X-19100000Y15750000D02*
X-19350000Y16000000D01*
D59*
X-16310000Y25500000D02*
X-17100000Y25500000D01*
%TO.N,NRST*%
X-2774000Y10949000D02*
X-2774000Y6051000D01*
D62*
X-19080000Y17000000D02*
X-19150000Y17000000D01*
D59*
X-21700000Y16000000D02*
X-20625000Y16000000D01*
X-22550000Y15150000D02*
X-21700000Y16000000D01*
D62*
X-19150000Y17000000D02*
X-20150000Y16000000D01*
D59*
X-12850000Y6200000D02*
X-3275000Y6200000D01*
X-2950000Y11125000D02*
X-2774000Y10949000D01*
D62*
X-20150000Y16000000D02*
X-20625000Y16000000D01*
D59*
X-2774000Y6051000D02*
X-2950000Y5875000D01*
X-22550000Y12700000D02*
X-22550000Y15150000D01*
X-3275000Y6200000D02*
X-2950000Y5875000D01*
%TO.N,FC_MOSI*%
X-23900000Y6000000D02*
X-25200000Y6000000D01*
X-22800000Y7100000D02*
X-23900000Y6000000D01*
X-25200000Y6000000D02*
X-26075000Y5125000D01*
X-22800000Y10625000D02*
X-22800000Y7100000D01*
X-26075000Y5125000D02*
X-26075000Y4850000D01*
%TO.N,FC_CS*%
X-20625000Y6550000D02*
X-23875000Y3300000D01*
X-29124999Y3300000D02*
X-29825000Y4000001D01*
X-23875000Y3300000D02*
X-29124999Y3300000D01*
X-29825000Y4000001D02*
X-29825000Y4850000D01*
X-20625000Y12000000D02*
X-20625000Y6550000D01*
%TO.N,FC_MISO*%
X-25950000Y6500000D02*
X-27325000Y5125000D01*
X-23600000Y7400000D02*
X-24500000Y6500000D01*
X-24500000Y6500000D02*
X-25950000Y6500000D01*
X-27325000Y5125000D02*
X-27325000Y4850000D01*
X-23600000Y10625000D02*
X-23600000Y7400000D01*
%TO.N,FC_SCK*%
X-22000000Y10625000D02*
X-22000000Y5950000D01*
X-28274999Y3700000D02*
X-28575000Y4000001D01*
X-28575000Y4000001D02*
X-28575000Y4850000D01*
X-22000000Y5950000D02*
X-24250000Y3700000D01*
X-24250000Y3700000D02*
X-28274999Y3700000D01*
%TO.N,SWCLK*%
X-29255000Y10625000D02*
X-32380000Y7500000D01*
X-27600000Y10625000D02*
X-29255000Y10625000D01*
%TO.N,SWDIO*%
X-28975000Y12000000D02*
X-30420000Y12000000D01*
X-30420000Y12000000D02*
X-34920000Y7500000D01*
%TO.N,ME_SCL*%
X-28975000Y13600000D02*
X-29724999Y13600000D01*
X-29724999Y13600000D02*
X-30499999Y14375000D01*
X-30499999Y14375000D02*
X-37150000Y14375000D01*
%TO.N,ME_SDA*%
X-36825000Y12800000D02*
X-37150000Y13125000D01*
X-28975000Y12800000D02*
X-36825000Y12800000D01*
%TO.N,SW1*%
X-17825000Y6125000D02*
X-19300000Y7600000D01*
X-19875001Y12800000D02*
X-20625000Y12800000D01*
X-17825000Y4850000D02*
X-17825000Y6125000D01*
X-19300000Y7600000D02*
X-19300000Y12224999D01*
X-19300000Y12224999D02*
X-19875001Y12800000D01*
%TO.N,SW2*%
X-16575000Y4850000D02*
X-16575000Y5907370D01*
X-16575000Y5907370D02*
X-18650000Y7982370D01*
X-18650000Y7982370D02*
X-18650000Y12374999D01*
X-19875001Y13600000D02*
X-20625000Y13600000D01*
X-18650000Y12374999D02*
X-19875001Y13600000D01*
%TO.N,RGB*%
X-26800000Y16800000D02*
X-27750000Y17750000D01*
X-26800000Y10625000D02*
X-26800000Y16800000D01*
X-24700000Y22250000D02*
X-23650000Y22250000D01*
X-23650000Y22250000D02*
X-23450000Y22450000D01*
D60*
%TO.N,/3V3LED_A*%
X-16277500Y7490000D02*
X-16000000Y7212500D01*
X-17337500Y7490000D02*
X-16277500Y7490000D01*
%TO.N,/12VLED_A*%
X-12937500Y7490000D02*
X-13972500Y7490000D01*
X-13972500Y7490000D02*
X-14250000Y7212500D01*
%TO.N,/LED1_A*%
X-29100000Y7490000D02*
X-28027500Y7490000D01*
X-28027500Y7490000D02*
X-27750000Y7212500D01*
%TO.N,/LED2_A*%
X-24650000Y7490000D02*
X-25722500Y7490000D01*
X-25722500Y7490000D02*
X-26000000Y7212500D01*
%TO.N,/STEPLED_A*%
X-31772500Y17660000D02*
X-32050000Y17937500D01*
X-30750000Y17660000D02*
X-31772500Y17660000D01*
%TO.N,/DIRLED_A*%
X-34077500Y17660000D02*
X-33800000Y17937500D01*
X-35100000Y17660000D02*
X-34077500Y17660000D01*
D59*
%TO.N,NTC1*%
X-16435000Y12350000D02*
X-16425000Y12360000D01*
X-20625000Y16800000D02*
X-21850000Y16800000D01*
D60*
X-14950000Y12350000D02*
X-16415000Y12350000D01*
D59*
X-17450000Y12350000D02*
X-16435000Y12350000D01*
D60*
X-16415000Y12350000D02*
X-16425000Y12360000D01*
D59*
X-23500000Y15150000D02*
X-23500000Y13650000D01*
X-21850000Y16800000D02*
X-23500000Y15150000D01*
%TO.N,NTC2*%
X-20625000Y18275000D02*
X-20625000Y17600000D01*
D60*
X-15875000Y28050000D02*
X-17090000Y28050000D01*
D59*
X-15125000Y27300000D02*
X-15875000Y28050000D01*
X-19000000Y19900000D02*
X-20625000Y18275000D01*
X-15050000Y27300000D02*
X-15125000Y27300000D01*
%TO.N,VD1*%
X-21200000Y19800000D02*
X-21200000Y19775000D01*
X-14850000Y24800000D02*
X-14850000Y25060000D01*
X-21200000Y19775000D02*
X-22000000Y18975000D01*
X-14850000Y25060000D02*
X-14410000Y25500000D01*
D60*
X-15290000Y25500000D02*
X-14410000Y25500000D01*
D59*
%TO.N,DRV_FAULT*%
X-20475000Y21775000D02*
X-14725000Y21775000D01*
X-22800000Y19450000D02*
X-20475000Y21775000D01*
X-22800000Y18975000D02*
X-22800000Y19450000D01*
%TO.N,VREF*%
X-25760000Y20440000D02*
X-25450000Y20750000D01*
X-27600000Y20440000D02*
X-25760000Y20440000D01*
X-20050000Y21125000D02*
X-14725000Y21125000D01*
X-28750000Y20110000D02*
X-27930000Y20110000D01*
X-27930000Y20110000D02*
X-27600000Y20440000D01*
X-25450000Y20750000D02*
X-22500000Y20750000D01*
X-23600000Y19650000D02*
X-23600000Y18975000D01*
X-22125000Y21125000D02*
X-23600000Y19650000D01*
D60*
%TO.N,LED1*%
X-26000000Y10000000D02*
X-26450000Y9550000D01*
X-29100000Y8779999D02*
X-29100000Y8510000D01*
X-26000000Y10625000D02*
X-26000000Y10000000D01*
X-28329999Y9550000D02*
X-29100000Y8779999D01*
X-26450000Y9550000D02*
X-28329999Y9550000D01*
%TO.N,LED2*%
X-25200000Y10625000D02*
X-25200000Y9060000D01*
X-25200000Y9060000D02*
X-24650000Y8510000D01*
D59*
%TO.N,DRV_STEP*%
X-28975000Y16800000D02*
X-30590000Y16800000D01*
X-16000000Y17225000D02*
X-14725000Y17225000D01*
X-27750000Y16800000D02*
X-28975000Y16800000D01*
X-30590000Y16800000D02*
X-30750000Y16640000D01*
D60*
%TO.N,DRV_DIR*%
X-29724999Y16000000D02*
X-30274999Y15450000D01*
X-28975000Y16000000D02*
X-29724999Y16000000D01*
D59*
X-27750000Y16000000D02*
X-28975000Y16000000D01*
D60*
X-30274999Y15450000D02*
X-34300000Y15450000D01*
X-35100000Y16250000D02*
X-35100000Y16640000D01*
X-34300000Y15450000D02*
X-35100000Y16250000D01*
D59*
X-16500000Y16575000D02*
X-14725000Y16575000D01*
%TO.N,DRV_EN*%
X-27750000Y15200000D02*
X-28975000Y15200000D01*
X-16000000Y15925000D02*
X-14725000Y15925000D01*
%TO.N,DRV_MOSI*%
X-26000000Y18975000D02*
X-26000000Y17750000D01*
X-14725000Y18525000D02*
X-16000000Y18525000D01*
%TO.N,DRV_CS*%
X-26800000Y17700000D02*
X-26800000Y18975000D01*
X-14725000Y20475000D02*
X-19175000Y20475000D01*
X-26250000Y17150000D02*
X-26800000Y17700000D01*
X-22500000Y17150000D02*
X-26250000Y17150000D01*
X-19175000Y20475000D02*
X-22500000Y17150000D01*
%TO.N,DRV_SCK*%
X-24400000Y18975000D02*
X-24400000Y17750000D01*
X-14725000Y17875000D02*
X-16500000Y17875000D01*
%TO.N,DRV_MISO*%
X-16500000Y19175000D02*
X-14725000Y19175000D01*
X-25200000Y18975000D02*
X-25200000Y20200000D01*
%TO.N,DRV_SLEEP*%
X-27750000Y14400000D02*
X-28975000Y14400000D01*
X-16500000Y15275000D02*
X-14725000Y15275000D01*
D60*
%TO.N,/CPL*%
X-14725000Y14625000D02*
X-16205000Y14625000D01*
X-16205000Y14625000D02*
X-16250000Y14580000D01*
%TO.N,/CPH*%
X-15895000Y13975000D02*
X-16250000Y13620000D01*
X-14725000Y13975000D02*
X-15895000Y13975000D01*
%TO.N,/DVDD*%
X-16350000Y22425000D02*
X-16550000Y22625000D01*
X-14725000Y22425000D02*
X-16350000Y22425000D01*
D59*
%TO.N,/BST*%
X-13850000Y34800000D02*
X-13500000Y34450000D01*
X-13850000Y35230000D02*
X-13850000Y34800000D01*
X-14450000Y35830000D02*
X-13850000Y35230000D01*
X-13500000Y34450000D02*
X-13250000Y34450000D01*
%TO.N,/VCC*%
X-12450000Y35125000D02*
X-12450000Y36000000D01*
%TO.N,/COMP*%
X-11800000Y31350001D02*
X-11800000Y30980000D01*
X-11800000Y30980000D02*
X-10950000Y30980000D01*
X-12450000Y32000001D02*
X-11800000Y31350001D01*
X-12450000Y32275000D02*
X-12450000Y32000001D01*
%TO.N,/COMP_M*%
X-10950000Y30100000D02*
X-10100000Y30950000D01*
X-10950000Y30020000D02*
X-10950000Y30100000D01*
X-10100000Y30950000D02*
X-10100000Y31010000D01*
%TD*%
%TA.AperFunction,Conductor*%
%TO.N,AOUT2*%
G36*
X-2927212Y18740561D02*
G01*
X-2802075Y18688727D01*
X-2761847Y18661847D01*
X-2588152Y18488152D01*
X-2583520Y18481220D01*
X-2579281Y18478277D01*
X-2561272Y18447923D01*
X-2509439Y18322786D01*
X-2500000Y18275334D01*
X-2500000Y16774665D01*
X-2509439Y16727213D01*
X-2561272Y16602076D01*
X-2588149Y16561850D01*
X-2761850Y16388149D01*
X-2768778Y16383520D01*
X-2771722Y16379281D01*
X-2802074Y16361272D01*
X-2848234Y16342153D01*
X-2927213Y16309439D01*
X-2974665Y16300000D01*
X-4888000Y16300000D01*
X-4911776Y16302301D01*
X-4961037Y16311925D01*
X-5080874Y16335338D01*
X-5103754Y16342150D01*
X-6507353Y16912362D01*
X-6657536Y16941703D01*
X-6699994Y16949999D01*
X-6699995Y16949999D01*
X-6700000Y16950000D01*
X-6700004Y16950000D01*
X-9648638Y16950000D01*
X-9678078Y16958644D01*
X-9708065Y16965168D01*
X-9713080Y16968922D01*
X-9715677Y16969685D01*
X-9736319Y16986319D01*
X-9763681Y17013681D01*
X-9797166Y17075004D01*
X-9800000Y17101362D01*
X-9800000Y17998638D01*
X-9780315Y18065677D01*
X-9763681Y18086319D01*
X-9736319Y18113681D01*
X-9674996Y18147166D01*
X-9648638Y18150000D01*
X-6150000Y18150000D01*
X-5960561Y18194719D01*
X-5953801Y18197170D01*
X-5953779Y18197111D01*
X-5943375Y18201227D01*
X-5942098Y18201607D01*
X-5942038Y18201627D01*
X-5915123Y18211384D01*
X-5915116Y18211386D01*
X-5915107Y18211390D01*
X-5915098Y18211393D01*
X-5915090Y18211397D01*
X-5904958Y18215748D01*
X-5904921Y18215765D01*
X-4926695Y18704878D01*
X-4899731Y18714652D01*
X-4764051Y18746683D01*
X-4735561Y18750000D01*
X-2974665Y18750000D01*
X-2927212Y18740561D01*
G37*
%TD.AperFunction*%
%TD*%
%TA.AperFunction,Conductor*%
%TO.N,+BATT*%
G36*
X-12947923Y36290561D02*
G01*
X-12897452Y36269655D01*
X-12873561Y36250402D01*
X-12848352Y36232899D01*
X-12845155Y36227511D01*
X-12843049Y36225814D01*
X-12830345Y36202549D01*
X-12814369Y36163981D01*
X-12809438Y36152074D01*
X-12800000Y36104623D01*
X-12800000Y34945376D01*
X-12809437Y34897926D01*
X-12830344Y34847451D01*
X-12874184Y34793050D01*
X-12897446Y34780346D01*
X-12947926Y34759437D01*
X-12995376Y34750000D01*
X-13325335Y34750000D01*
X-13333510Y34751626D01*
X-13338589Y34750710D01*
X-13372787Y34759439D01*
X-13453932Y34793050D01*
X-13479324Y34803567D01*
X-13533727Y34847407D01*
X-13546432Y34870675D01*
X-13567158Y34920711D01*
X-13590561Y34977212D01*
X-13600000Y35024665D01*
X-13600000Y35250002D01*
X-13670711Y35420711D01*
X-13911847Y35661847D01*
X-13916478Y35668777D01*
X-13920717Y35671721D01*
X-13938727Y35702075D01*
X-13990561Y35827212D01*
X-14000000Y35874665D01*
X-14000000Y36104623D01*
X-13990561Y36152076D01*
X-13969655Y36202547D01*
X-13925814Y36256950D01*
X-13902548Y36269655D01*
X-13887379Y36275938D01*
X-13852075Y36290561D01*
X-13804624Y36300000D01*
X-12995376Y36300000D01*
X-12947923Y36290561D01*
G37*
%TD.AperFunction*%
%TD*%
%TA.AperFunction,Conductor*%
%TO.N,AOUT1*%
G36*
X-6688223Y16847699D02*
G01*
X-6533739Y16817517D01*
X-6510845Y16810700D01*
X-5139681Y16253665D01*
X-5131030Y16250629D01*
X-5130973Y16250611D01*
X-5112783Y16245195D01*
X-5101506Y16241237D01*
X-5092647Y16237638D01*
X-5037605Y16226884D01*
X-4900005Y16200000D01*
X-4900000Y16200000D01*
X-2974665Y16200000D01*
X-2966486Y16198373D01*
X-2961410Y16199289D01*
X-2927212Y16190561D01*
X-2802075Y16138727D01*
X-2761847Y16111847D01*
X-2588152Y15938152D01*
X-2561272Y15897923D01*
X-2509439Y15772786D01*
X-2500000Y15725334D01*
X-2500000Y14274665D01*
X-2501626Y14266488D01*
X-2500710Y14261410D01*
X-2509439Y14227213D01*
X-2561272Y14102076D01*
X-2588149Y14061850D01*
X-2711850Y13938149D01*
X-2752074Y13911272D01*
X-2814644Y13885355D01*
X-2877213Y13859439D01*
X-2924665Y13850000D01*
X-4976051Y13850000D01*
X-4983456Y13851430D01*
X-4987935Y13850571D01*
X-5022228Y13858919D01*
X-5150034Y13910202D01*
X-5189569Y13935675D01*
X-5518182Y14250000D01*
X-6177736Y14880878D01*
X-6342468Y14988075D01*
X-6342469Y14988075D01*
X-6342472Y14988077D01*
X-6780434Y15168414D01*
X-7642547Y15523401D01*
X-7678222Y15543999D01*
X-7719299Y15555005D01*
X-7857532Y15611925D01*
X-8050000Y15650000D01*
X-8050004Y15650000D01*
X-9648638Y15650000D01*
X-9678078Y15658644D01*
X-9708065Y15665168D01*
X-9713080Y15668922D01*
X-9715677Y15669685D01*
X-9736319Y15686319D01*
X-9763681Y15713681D01*
X-9797166Y15775004D01*
X-9800000Y15801362D01*
X-9800000Y16698638D01*
X-9780315Y16765677D01*
X-9763681Y16786319D01*
X-9736319Y16813681D01*
X-9674996Y16847166D01*
X-9648638Y16850000D01*
X-6712000Y16850000D01*
X-6688223Y16847699D01*
G37*
%TD.AperFunction*%
%TD*%
%TA.AperFunction,Conductor*%
%TO.N,PGND*%
G36*
X-32984323Y41880315D02*
G01*
X-32963681Y41863681D01*
X-32936319Y41836319D01*
X-32902834Y41774996D01*
X-32900000Y41748638D01*
X-32900000Y31850000D01*
X-32829289Y31679289D01*
X-32829288Y31679288D01*
X-29638152Y28488152D01*
X-29633520Y28481220D01*
X-29629281Y28478277D01*
X-29611272Y28447923D01*
X-29559439Y28322786D01*
X-29550000Y28275334D01*
X-29550000Y24700000D01*
X-29481768Y24526894D01*
X-29481766Y24526892D01*
X-28918232Y23923106D01*
X-28918231Y23923105D01*
X-28750003Y23850001D01*
X-28750001Y23850000D01*
X-28750000Y23850000D01*
X-28749998Y23850000D01*
X-25250000Y23850000D01*
X-25249997Y23850000D01*
X-25079288Y23920711D01*
X-24470711Y24529288D01*
X-24400000Y24699997D01*
X-24400000Y25134698D01*
X-24380315Y25201737D01*
X-24327511Y25247492D01*
X-24258353Y25257436D01*
X-24207111Y25237802D01*
X-24180428Y25219973D01*
X-24180427Y25219972D01*
X-24180426Y25219972D01*
X-24180423Y25219971D01*
X-24127780Y25209500D01*
X-24127777Y25209500D01*
X-22772225Y25209500D01*
X-22719571Y25219973D01*
X-22719568Y25219974D01*
X-22659865Y25259867D01*
X-22619974Y25319569D01*
X-22619971Y25319576D01*
X-22609500Y25372218D01*
X-22609500Y26127774D01*
X-22609501Y26127777D01*
X-19390500Y26127777D01*
X-19390499Y25372224D01*
X-19380027Y25319572D01*
X-19380026Y25319571D01*
X-19380025Y25319568D01*
X-19340132Y25259865D01*
X-19280430Y25219974D01*
X-19280423Y25219971D01*
X-19227780Y25209500D01*
X-19227777Y25209500D01*
X-17872225Y25209500D01*
X-17819571Y25219973D01*
X-17819568Y25219974D01*
X-17759865Y25259867D01*
X-17719974Y25319569D01*
X-17719971Y25319576D01*
X-17709500Y25372218D01*
X-17709500Y25541536D01*
X-17415500Y25541536D01*
X-17415500Y25458464D01*
X-17393999Y25378222D01*
X-17393997Y25378219D01*
X-17393997Y25378217D01*
X-17393996Y25378216D01*
X-17390533Y25372218D01*
X-17352462Y25306279D01*
X-17293721Y25247538D01*
X-17293714Y25247534D01*
X-17221783Y25206003D01*
X-17221782Y25206002D01*
X-17221778Y25206001D01*
X-17141536Y25184500D01*
X-17141533Y25184500D01*
X-17058467Y25184500D01*
X-17058464Y25184500D01*
X-16994135Y25201737D01*
X-16978217Y25206002D01*
X-16978216Y25206003D01*
X-16906285Y25247534D01*
X-16906276Y25247540D01*
X-16905636Y25248181D01*
X-16904962Y25248548D01*
X-16899833Y25252485D01*
X-16899219Y25251684D01*
X-16878708Y25262884D01*
X-16852890Y25279477D01*
X-16846689Y25280368D01*
X-16844313Y25281666D01*
X-16817955Y25284500D01*
X-16762107Y25284500D01*
X-16695068Y25264815D01*
X-16659005Y25229391D01*
X-16657417Y25227014D01*
X-16607577Y25152423D01*
X-16570281Y25127503D01*
X-16532987Y25102583D01*
X-16511061Y25098222D01*
X-16467211Y25089500D01*
X-16467209Y25089500D01*
X-16152791Y25089500D01*
X-16087013Y25102583D01*
X-16087011Y25102584D01*
X-16012423Y25152423D01*
X-15962583Y25227012D01*
X-15951971Y25280368D01*
X-15949500Y25292789D01*
X-15949500Y25458466D01*
X-15949500Y25707207D01*
X-15949501Y25707208D01*
X-15949502Y25707211D01*
X-15650500Y25707211D01*
X-15650499Y25292790D01*
X-15637417Y25227014D01*
X-15587577Y25152423D01*
X-15550281Y25127503D01*
X-15512987Y25102583D01*
X-15480098Y25096041D01*
X-15447211Y25089500D01*
X-15447210Y25089500D01*
X-15260105Y25089500D01*
X-15193066Y25069815D01*
X-15147311Y25017011D01*
X-15137367Y24947853D01*
X-15142334Y24929745D01*
X-15141895Y24929628D01*
X-15143998Y24921780D01*
X-15143999Y24921778D01*
X-15165500Y24841536D01*
X-15165500Y24758464D01*
X-15143999Y24678222D01*
X-15143997Y24678219D01*
X-15143997Y24678217D01*
X-15143996Y24678216D01*
X-15102462Y24606279D01*
X-15043721Y24547538D01*
X-15043714Y24547534D01*
X-14971783Y24506003D01*
X-14971782Y24506002D01*
X-14971778Y24506001D01*
X-14891536Y24484500D01*
X-14891533Y24484500D01*
X-14808467Y24484500D01*
X-14808464Y24484500D01*
X-14752058Y24499613D01*
X-14728217Y24506002D01*
X-14728216Y24506003D01*
X-14656285Y24547534D01*
X-14656276Y24547540D01*
X-14597540Y24606276D01*
X-14597534Y24606285D01*
X-14556003Y24678216D01*
X-14556002Y24678217D01*
X-14547659Y24709353D01*
X-14534500Y24758464D01*
X-14534500Y24841536D01*
X-14556001Y24921778D01*
X-14556002Y24921780D01*
X-14558105Y24929628D01*
X-14555772Y24930253D01*
X-14561919Y24987541D01*
X-14530632Y25050014D01*
X-14470536Y25085654D01*
X-14439895Y25089500D01*
X-14252792Y25089500D01*
X-14187013Y25102583D01*
X-14187011Y25102584D01*
X-14112423Y25152423D01*
X-14062583Y25227012D01*
X-14051971Y25280368D01*
X-14049500Y25292789D01*
X-14049500Y25458466D01*
X-14049500Y25707207D01*
X-14049501Y25707208D01*
X-14049502Y25707211D01*
X-13750500Y25707211D01*
X-13750499Y25292790D01*
X-13737417Y25227014D01*
X-13725715Y25209500D01*
X-13687576Y25152422D01*
X-13678941Y25143787D01*
X-13680942Y25141785D01*
X-13647878Y25102222D01*
X-13639171Y25032897D01*
X-13654187Y24990732D01*
X-13693999Y24921778D01*
X-13715500Y24841536D01*
X-13715500Y24758464D01*
X-13693999Y24678222D01*
X-13693997Y24678219D01*
X-13693997Y24678217D01*
X-13693996Y24678216D01*
X-13652462Y24606279D01*
X-13593721Y24547538D01*
X-13593714Y24547534D01*
X-13521783Y24506003D01*
X-13521782Y24506002D01*
X-13521778Y24506001D01*
X-13441536Y24484500D01*
X-13441533Y24484500D01*
X-13358467Y24484500D01*
X-13358464Y24484500D01*
X-13302058Y24499613D01*
X-13278217Y24506002D01*
X-13278216Y24506003D01*
X-13206285Y24547534D01*
X-13206276Y24547540D01*
X-13147540Y24606276D01*
X-13147534Y24606285D01*
X-13106003Y24678216D01*
X-13106002Y24678217D01*
X-13097659Y24709353D01*
X-13084500Y24758464D01*
X-13084500Y24841536D01*
X-13106001Y24921778D01*
X-13140244Y24981088D01*
X-13156718Y25048987D01*
X-13133867Y25115014D01*
X-13101752Y25146189D01*
X-13092423Y25152422D01*
X-13042583Y25227012D01*
X-13031971Y25280368D01*
X-13029500Y25292789D01*
X-13029500Y25458466D01*
X-13029500Y25707208D01*
X-13042583Y25772986D01*
X-13042584Y25772988D01*
X-13070990Y25815500D01*
X-13092423Y25847577D01*
X-13167011Y25897415D01*
X-13167012Y25897416D01*
X-13167014Y25897417D01*
X-13232789Y25910500D01*
X-13547210Y25910499D01*
X-13612986Y25897417D01*
X-13687577Y25847577D01*
X-13737417Y25772986D01*
X-13750500Y25707211D01*
X-14049502Y25707211D01*
X-14062583Y25772986D01*
X-14062584Y25772988D01*
X-14090990Y25815500D01*
X-14112423Y25847577D01*
X-14187011Y25897415D01*
X-14187012Y25897416D01*
X-14187014Y25897417D01*
X-14252789Y25910500D01*
X-14567210Y25910499D01*
X-14632986Y25897417D01*
X-14707577Y25847577D01*
X-14742301Y25795607D01*
X-14748390Y25790518D01*
X-14751689Y25783297D01*
X-14774814Y25768435D01*
X-14795911Y25750804D01*
X-14805287Y25748851D01*
X-14810467Y25745523D01*
X-14845402Y25740500D01*
X-14854597Y25740500D01*
X-14921636Y25760185D01*
X-14957699Y25795609D01*
X-14970990Y25815500D01*
X-14992423Y25847577D01*
X-15067011Y25897415D01*
X-15067012Y25897416D01*
X-15067014Y25897417D01*
X-15132789Y25910500D01*
X-15447210Y25910499D01*
X-15512986Y25897417D01*
X-15587577Y25847577D01*
X-15637417Y25772986D01*
X-15650500Y25707211D01*
X-15949502Y25707211D01*
X-15962583Y25772986D01*
X-15962584Y25772988D01*
X-15990990Y25815500D01*
X-16012423Y25847577D01*
X-16087011Y25897415D01*
X-16087012Y25897416D01*
X-16087014Y25897417D01*
X-16152789Y25910500D01*
X-16467210Y25910499D01*
X-16532986Y25897417D01*
X-16607577Y25847577D01*
X-16642300Y25795610D01*
X-16659006Y25770609D01*
X-16665096Y25765518D01*
X-16668395Y25758297D01*
X-16691525Y25743431D01*
X-16712619Y25725804D01*
X-16721992Y25723852D01*
X-16727173Y25720523D01*
X-16762108Y25715500D01*
X-16817955Y25715500D01*
X-16884994Y25735185D01*
X-16905636Y25751819D01*
X-16906276Y25752459D01*
X-16906279Y25752462D01*
X-16959686Y25783297D01*
X-16978216Y25793996D01*
X-16978217Y25793997D01*
X-16978219Y25793997D01*
X-16978222Y25793999D01*
X-17058464Y25815500D01*
X-17141536Y25815500D01*
X-17221778Y25793999D01*
X-17221780Y25793997D01*
X-17221782Y25793997D01*
X-17221782Y25793996D01*
X-17293721Y25752462D01*
X-17352462Y25693721D01*
X-17393999Y25621778D01*
X-17415500Y25541536D01*
X-17709500Y25541536D01*
X-17709500Y26127774D01*
X-17719973Y26180428D01*
X-17719974Y26180431D01*
X-17759867Y26240134D01*
X-17819569Y26280025D01*
X-17819571Y26280026D01*
X-17819572Y26280027D01*
X-17819575Y26280027D01*
X-17819576Y26280028D01*
X-17845897Y26285263D01*
X-17872223Y26290500D01*
X-19227776Y26290499D01*
X-19280428Y26280027D01*
X-19340133Y26240133D01*
X-19380027Y26180428D01*
X-19390500Y26127777D01*
X-22609501Y26127777D01*
X-22619973Y26180428D01*
X-22619974Y26180431D01*
X-22659867Y26240134D01*
X-22719569Y26280025D01*
X-22719571Y26280026D01*
X-22719572Y26280027D01*
X-22719575Y26280027D01*
X-22719576Y26280028D01*
X-22745897Y26285263D01*
X-22772223Y26290500D01*
X-22967055Y26290499D01*
X-22985167Y26295817D01*
X-23004044Y26296144D01*
X-23017997Y26305456D01*
X-23034094Y26310183D01*
X-23046457Y26324450D01*
X-23062160Y26334931D01*
X-23068863Y26350309D01*
X-23079849Y26362987D01*
X-23082535Y26381672D01*
X-23090080Y26398979D01*
X-23088452Y26422822D01*
X-23089793Y26432145D01*
X-23089469Y26434268D01*
X-23087408Y26447026D01*
X-23086112Y26449272D01*
X-23059500Y26548590D01*
X-23059500Y26603800D01*
X-11140500Y26603800D01*
X-11140499Y24985975D01*
X-11135249Y24959576D01*
X-11135248Y24959575D01*
X-11135248Y24959574D01*
X-11135247Y24959572D01*
X-11115247Y24929639D01*
X-11085311Y24909637D01*
X-11058915Y24904387D01*
X-11058913Y24904387D01*
X-9441091Y24904387D01*
X-9441088Y24904388D01*
X-9425248Y24907538D01*
X-9414687Y24909638D01*
X-9414685Y24909639D01*
X-9384752Y24929639D01*
X-9364750Y24959575D01*
X-9359500Y24985971D01*
X-9359500Y26603795D01*
X-9364751Y26630199D01*
X-9364752Y26630201D01*
X-9384752Y26660134D01*
X-9414688Y26680136D01*
X-9423407Y26681870D01*
X-9441087Y26685387D01*
X-11058912Y26685386D01*
X-11085311Y26680136D01*
X-11115247Y26660134D01*
X-11135249Y26630198D01*
X-11140500Y26603800D01*
X-23059500Y26603800D01*
X-23059500Y26651410D01*
X-23086112Y26750728D01*
X-23104381Y26782371D01*
X-23137519Y26839769D01*
X-23137523Y26839774D01*
X-23210225Y26912476D01*
X-23210230Y26912480D01*
X-23254749Y26938183D01*
X-23299272Y26963888D01*
X-23398590Y26990500D01*
X-23501410Y26990500D01*
X-23600728Y26963888D01*
X-23689773Y26912478D01*
X-23762478Y26839773D01*
X-23813888Y26750728D01*
X-23840500Y26651410D01*
X-23840500Y26548590D01*
X-23815632Y26455783D01*
X-23813170Y26446592D01*
X-23814833Y26376742D01*
X-23853996Y26318880D01*
X-23918225Y26291376D01*
X-23932945Y26290499D01*
X-24127776Y26290499D01*
X-24180428Y26280027D01*
X-24207108Y26262199D01*
X-24273784Y26241321D01*
X-24341165Y26259804D01*
X-24387856Y26311782D01*
X-24400000Y26365301D01*
X-24400000Y27691536D01*
X-19265500Y27691536D01*
X-19265500Y27608464D01*
X-19243999Y27528222D01*
X-19243997Y27528219D01*
X-19243997Y27528217D01*
X-19243996Y27528216D01*
X-19230928Y27505582D01*
X-19202462Y27456279D01*
X-19143721Y27397538D01*
X-19143714Y27397534D01*
X-19071783Y27356003D01*
X-19071782Y27356002D01*
X-19071778Y27356001D01*
X-18991536Y27334500D01*
X-18991533Y27334500D01*
X-18908467Y27334500D01*
X-18908464Y27334500D01*
X-18852058Y27349613D01*
X-18828217Y27356002D01*
X-18828216Y27356003D01*
X-18756285Y27397534D01*
X-18756276Y27397540D01*
X-18697540Y27456276D01*
X-18697534Y27456285D01*
X-18656003Y27528216D01*
X-18656002Y27528217D01*
X-18634629Y27607984D01*
X-18634500Y27608464D01*
X-18634500Y27609373D01*
X-18634283Y27610110D01*
X-18633439Y27616524D01*
X-18632438Y27616392D01*
X-18625853Y27638820D01*
X-18619329Y27668805D01*
X-18615577Y27673816D01*
X-18614815Y27676412D01*
X-18598177Y27697058D01*
X-18587871Y27707363D01*
X-18526546Y27740845D01*
X-18456855Y27735858D01*
X-18412513Y27707359D01*
X-18407577Y27702423D01*
X-18332987Y27652583D01*
X-18311061Y27648222D01*
X-18267211Y27639500D01*
X-18267209Y27639500D01*
X-17952791Y27639500D01*
X-17887013Y27652583D01*
X-17887011Y27652584D01*
X-17812423Y27702423D01*
X-17762583Y27777012D01*
X-17749500Y27842790D01*
X-17749500Y28257207D01*
X-17749501Y28257208D01*
X-17749502Y28257211D01*
X-17450500Y28257211D01*
X-17450499Y27842790D01*
X-17437417Y27777014D01*
X-17387577Y27702423D01*
X-17350281Y27677503D01*
X-17312987Y27652583D01*
X-17291061Y27648222D01*
X-17247211Y27639500D01*
X-17247209Y27639500D01*
X-16932791Y27639500D01*
X-16867013Y27652583D01*
X-16867011Y27652584D01*
X-16792423Y27702422D01*
X-16770990Y27734500D01*
X-16757698Y27754392D01*
X-16751609Y27759481D01*
X-16748311Y27766703D01*
X-16725185Y27781564D01*
X-16704089Y27799196D01*
X-16694712Y27801148D01*
X-16689533Y27804477D01*
X-16654598Y27809500D01*
X-16484981Y27809500D01*
X-16417942Y27789815D01*
X-16372187Y27737011D01*
X-16366330Y27716015D01*
X-16365132Y27716342D01*
X-16362682Y27707342D01*
X-16362682Y27707338D01*
X-16332428Y27638820D01*
X-16318813Y27607984D01*
X-16242016Y27531187D01*
X-16142663Y27487318D01*
X-16118374Y27484500D01*
X-15665625Y27484500D01*
X-15598586Y27464815D01*
X-15577944Y27448181D01*
X-15380675Y27250912D01*
X-15348581Y27195325D01*
X-15343999Y27178222D01*
X-15302462Y27106279D01*
X-15243721Y27047538D01*
X-15243714Y27047534D01*
X-15171783Y27006003D01*
X-15171782Y27006002D01*
X-15171778Y27006001D01*
X-15091536Y26984500D01*
X-15091533Y26984500D01*
X-15008467Y26984500D01*
X-15008464Y26984500D01*
X-14952058Y26999613D01*
X-14928217Y27006002D01*
X-14928216Y27006003D01*
X-14856285Y27047534D01*
X-14856276Y27047540D01*
X-14797540Y27106276D01*
X-14797534Y27106285D01*
X-14756003Y27178216D01*
X-14756002Y27178217D01*
X-14736524Y27250912D01*
X-14734500Y27258464D01*
X-14734500Y27341536D01*
X-14744235Y27377870D01*
X-14742573Y27447719D01*
X-14703410Y27505582D01*
X-14639182Y27533086D01*
X-14574375Y27523397D01*
X-14492667Y27487319D01*
X-14492662Y27487318D01*
X-14468373Y27484500D01*
X-13981634Y27484500D01*
X-13981611Y27484502D01*
X-13957340Y27487317D01*
X-13957337Y27487318D01*
X-13857984Y27531186D01*
X-13781187Y27607983D01*
X-13737318Y27707335D01*
X-13737318Y27707337D01*
X-13734500Y27731625D01*
X-13734500Y28368365D01*
X-13734502Y28368388D01*
X-13737316Y28392658D01*
X-13742166Y28403642D01*
X-13774351Y28476533D01*
X-5140500Y28476533D01*
X-5140499Y26858708D01*
X-5135249Y26832309D01*
X-5135248Y26832308D01*
X-5135248Y26832307D01*
X-5135247Y26832305D01*
X-5115247Y26802372D01*
X-5085311Y26782370D01*
X-5058915Y26777120D01*
X-5058913Y26777120D01*
X-3441091Y26777120D01*
X-3441088Y26777121D01*
X-3425248Y26780271D01*
X-3414687Y26782371D01*
X-3414685Y26782372D01*
X-3384752Y26802372D01*
X-3364750Y26832308D01*
X-3359500Y26858704D01*
X-3359500Y28476528D01*
X-3364751Y28502932D01*
X-3364752Y28502934D01*
X-3384752Y28532867D01*
X-3414688Y28552869D01*
X-3423407Y28554603D01*
X-3441087Y28558120D01*
X-5058912Y28558119D01*
X-5085311Y28552869D01*
X-5115247Y28532867D01*
X-5135249Y28502931D01*
X-5140500Y28476533D01*
X-13774351Y28476533D01*
X-13781187Y28492016D01*
X-13857984Y28568813D01*
X-13957338Y28612682D01*
X-13981627Y28615500D01*
X-14468372Y28615499D01*
X-14492662Y28612682D01*
X-14592016Y28568813D01*
X-14668813Y28492016D01*
X-14704928Y28410222D01*
X-14716450Y28384129D01*
X-14719155Y28385323D01*
X-14747698Y28338871D01*
X-14810654Y28308567D01*
X-14879999Y28317110D01*
X-14892780Y28323536D01*
X-14928222Y28343999D01*
X-15008464Y28365500D01*
X-15091536Y28365500D01*
X-15171778Y28343999D01*
X-15207219Y28323536D01*
X-15275118Y28307063D01*
X-15341145Y28329914D01*
X-15384337Y28384834D01*
X-15385832Y28389297D01*
X-15431186Y28492015D01*
X-15507983Y28568812D01*
X-15507984Y28568813D01*
X-15607338Y28612682D01*
X-15631627Y28615500D01*
X-16118372Y28615499D01*
X-16142662Y28612682D01*
X-16242016Y28568813D01*
X-16318813Y28492016D01*
X-16360512Y28397577D01*
X-16362681Y28392664D01*
X-16365130Y28383664D01*
X-16367918Y28384422D01*
X-16376076Y28366561D01*
X-16389076Y28335897D01*
X-16390533Y28334902D01*
X-16391267Y28333297D01*
X-16419287Y28315289D01*
X-16446797Y28296525D01*
X-16449035Y28296171D01*
X-16450045Y28295523D01*
X-16484980Y28290500D01*
X-16654597Y28290500D01*
X-16721636Y28310185D01*
X-16757699Y28345609D01*
X-16783127Y28383664D01*
X-16792423Y28397577D01*
X-16867011Y28447415D01*
X-16867012Y28447416D01*
X-16867014Y28447417D01*
X-16932789Y28460500D01*
X-17247210Y28460499D01*
X-17312986Y28447417D01*
X-17387577Y28397577D01*
X-17437417Y28322986D01*
X-17450500Y28257211D01*
X-17749502Y28257211D01*
X-17762583Y28322986D01*
X-17762584Y28322988D01*
X-17803127Y28383664D01*
X-17812423Y28397577D01*
X-17887011Y28447415D01*
X-17887012Y28447416D01*
X-17887014Y28447417D01*
X-17952789Y28460500D01*
X-18267210Y28460499D01*
X-18332986Y28447417D01*
X-18407577Y28397577D01*
X-18442301Y28345609D01*
X-18459006Y28320609D01*
X-18512619Y28275804D01*
X-18562108Y28265500D01*
X-18592866Y28265500D01*
X-18672071Y28232692D01*
X-18813227Y28091536D01*
X-18902944Y28001819D01*
X-18964267Y27968334D01*
X-18990625Y27965500D01*
X-18991536Y27965500D01*
X-19071778Y27943999D01*
X-19071780Y27943997D01*
X-19071782Y27943997D01*
X-19071782Y27943996D01*
X-19143721Y27902462D01*
X-19202462Y27843721D01*
X-19243999Y27771778D01*
X-19265500Y27691536D01*
X-24400000Y27691536D01*
X-24400000Y28798638D01*
X-24391355Y28828078D01*
X-24384832Y28858065D01*
X-24381077Y28863080D01*
X-24380315Y28865677D01*
X-24363681Y28886319D01*
X-24336319Y28913681D01*
X-24274996Y28947166D01*
X-24248638Y28950000D01*
X-9999997Y28950000D01*
X-9829288Y29020711D01*
X-9770711Y29079288D01*
X-9700000Y29249997D01*
X-9700000Y30787785D01*
X-9697618Y30811974D01*
X-9689500Y30852788D01*
X-9689500Y31167208D01*
X-9702583Y31232986D01*
X-9702584Y31232988D01*
X-9738127Y31286181D01*
X-9752423Y31307577D01*
X-9809875Y31345965D01*
X-9827012Y31357416D01*
X-9827014Y31357417D01*
X-9892789Y31370500D01*
X-10307210Y31370499D01*
X-10372986Y31357417D01*
X-10372986Y31357416D01*
X-10384966Y31355034D01*
X-10385167Y31356044D01*
X-10415557Y31350000D01*
X-10746129Y31350000D01*
X-10756307Y31350499D01*
X-10757292Y31350499D01*
X-10757297Y31350500D01*
X-11142702Y31350499D01*
X-11143699Y31350499D01*
X-11153859Y31350000D01*
X-11225335Y31350000D01*
X-11272788Y31359439D01*
X-11397925Y31411272D01*
X-11438152Y31438152D01*
X-12011847Y32011847D01*
X-12038727Y32052075D01*
X-12090561Y32177212D01*
X-12100000Y32224665D01*
X-12100000Y33098638D01*
X-12091355Y33128078D01*
X-12084832Y33158065D01*
X-12081077Y33163080D01*
X-12080315Y33165677D01*
X-12063681Y33186319D01*
X-12036319Y33213681D01*
X-11974996Y33247166D01*
X-11948638Y33250000D01*
X-10699997Y33250000D01*
X-10529288Y33320711D01*
X-10238152Y33611847D01*
X-10231220Y33616478D01*
X-10228278Y33620717D01*
X-10197925Y33638727D01*
X-10153572Y33657098D01*
X-10072786Y33690561D01*
X-10025335Y33700000D01*
X-9699997Y33700000D01*
X-9529288Y33770711D01*
X-8738152Y34561847D01*
X-8731220Y34566478D01*
X-8728278Y34570717D01*
X-8697925Y34588727D01*
X-8637682Y34613681D01*
X-8572786Y34640561D01*
X-8525335Y34650000D01*
X-251362Y34650000D01*
X-184323Y34630315D01*
X-163681Y34613681D01*
X-136319Y34586319D01*
X-102834Y34524996D01*
X-100000Y34498638D01*
X-100000Y23800000D01*
X-200000Y23800000D01*
X-4800000Y23800000D01*
X-4970711Y23729289D01*
X-5611850Y23088149D01*
X-5618778Y23083520D01*
X-5621722Y23079281D01*
X-5652074Y23061272D01*
X-5714644Y23035355D01*
X-5777213Y23009439D01*
X-5824665Y23000000D01*
X-8050000Y23000000D01*
X-8150000Y22900000D01*
X-8150000Y22899999D01*
X-8150000Y22301362D01*
X-8158644Y22271921D01*
X-8165168Y22241935D01*
X-8168922Y22236919D01*
X-8169685Y22234323D01*
X-8186319Y22213681D01*
X-8213681Y22186319D01*
X-8275004Y22152834D01*
X-8301362Y22150000D01*
X-9800000Y22150000D01*
X-9900000Y22050000D01*
X-9900000Y21500000D01*
X-9800000Y21400000D01*
X-8301362Y21400000D01*
X-8271921Y21391355D01*
X-8241935Y21384832D01*
X-8236919Y21381077D01*
X-8234323Y21380315D01*
X-8213681Y21363681D01*
X-8186319Y21336319D01*
X-8152834Y21274996D01*
X-8150000Y21248638D01*
X-8150000Y21001362D01*
X-8169685Y20934323D01*
X-8186319Y20913681D01*
X-8213681Y20886319D01*
X-8275004Y20852834D01*
X-8301362Y20850000D01*
X-9800000Y20850000D01*
X-9900000Y20750000D01*
X-9900000Y15650000D01*
X-9800000Y15550000D01*
X-8301362Y15550000D01*
X-8271921Y15541355D01*
X-8241935Y15534832D01*
X-8236919Y15531077D01*
X-8234323Y15530315D01*
X-8213681Y15513681D01*
X-8186319Y15486319D01*
X-8152834Y15424996D01*
X-8150000Y15398638D01*
X-8150000Y15151362D01*
X-8169685Y15084323D01*
X-8186319Y15063681D01*
X-8213681Y15036319D01*
X-8275004Y15002834D01*
X-8301362Y15000000D01*
X-9800000Y15000000D01*
X-9900000Y14900000D01*
X-9900000Y13700000D01*
X-9800000Y13600000D01*
X-8301362Y13600000D01*
X-8271921Y13591355D01*
X-8241935Y13584832D01*
X-8236919Y13581077D01*
X-8234323Y13580315D01*
X-8213681Y13563681D01*
X-8186319Y13536319D01*
X-8152834Y13474996D01*
X-8150000Y13448638D01*
X-8150000Y10874665D01*
X-8159439Y10827213D01*
X-8211272Y10702076D01*
X-8238149Y10661850D01*
X-8629289Y10270711D01*
X-8653671Y10211847D01*
X-8699999Y10100002D01*
X-8700000Y10099998D01*
X-8700000Y8551362D01*
X-8708644Y8521921D01*
X-8715168Y8491935D01*
X-8718922Y8486919D01*
X-8719685Y8484323D01*
X-8736319Y8463681D01*
X-8763681Y8436319D01*
X-8825004Y8402834D01*
X-8851362Y8400000D01*
X-11775335Y8400000D01*
X-11822788Y8409439D01*
X-11887682Y8436319D01*
X-11947925Y8461272D01*
X-11988152Y8488152D01*
X-13711847Y10211847D01*
X-13716478Y10218777D01*
X-13720717Y10221721D01*
X-13738727Y10252075D01*
X-13790561Y10377212D01*
X-13800000Y10424665D01*
X-13800000Y11699604D01*
X-13780315Y11766643D01*
X-13727511Y11812398D01*
X-13658353Y11822342D01*
X-13625914Y11813038D01*
X-13567667Y11787319D01*
X-13567662Y11787318D01*
X-13543373Y11784500D01*
X-13056634Y11784500D01*
X-13056611Y11784502D01*
X-13032340Y11787317D01*
X-13032337Y11787318D01*
X-12932984Y11831186D01*
X-12856187Y11907983D01*
X-12812318Y12007335D01*
X-12812318Y12007337D01*
X-12809500Y12031625D01*
X-12809500Y12668365D01*
X-12809502Y12668388D01*
X-12812317Y12692659D01*
X-12812318Y12692662D01*
X-12856186Y12792015D01*
X-12932983Y12868812D01*
X-12932984Y12868813D01*
X-13032338Y12912682D01*
X-13056627Y12915500D01*
X-13543372Y12915499D01*
X-13567662Y12912682D01*
X-13625915Y12886960D01*
X-13695191Y12877889D01*
X-13758376Y12907712D01*
X-13795408Y12966961D01*
X-13800000Y13000395D01*
X-13800000Y22650000D01*
X-13899999Y22749999D01*
X-13900000Y22750000D01*
X-13900001Y22750000D01*
X-15375335Y22750000D01*
X-15383511Y22751626D01*
X-15388590Y22750710D01*
X-15422788Y22759439D01*
X-15430120Y22762476D01*
X-15547925Y22811272D01*
X-15588152Y22838152D01*
X-15929288Y23179288D01*
X-15929289Y23179289D01*
X-16049996Y23229288D01*
X-16099997Y23249999D01*
X-16099998Y23249999D01*
X-16100000Y23250000D01*
X-16100001Y23250000D01*
X-17099999Y23250000D01*
X-17100000Y23250000D01*
X-17200000Y23150000D01*
X-17200000Y23149999D01*
X-17200000Y22114500D01*
X-17219685Y22047461D01*
X-17272489Y22001706D01*
X-17324000Y21990500D01*
X-17585500Y21990500D01*
X-17652539Y22010185D01*
X-17698294Y22062989D01*
X-17709500Y22114500D01*
X-17709500Y22827774D01*
X-17719973Y22880428D01*
X-17719974Y22880431D01*
X-17759867Y22940134D01*
X-17819569Y22980025D01*
X-17819571Y22980026D01*
X-17819572Y22980027D01*
X-17819575Y22980027D01*
X-17819576Y22980028D01*
X-17845897Y22985263D01*
X-17872223Y22990500D01*
X-19227776Y22990499D01*
X-19280428Y22980027D01*
X-19340133Y22940133D01*
X-19380027Y22880428D01*
X-19380028Y22880423D01*
X-19384702Y22869142D01*
X-19388346Y22870651D01*
X-19392771Y22862187D01*
X-19405966Y22833297D01*
X-19408847Y22831445D01*
X-19410434Y22828411D01*
X-19438023Y22812695D01*
X-19464744Y22795523D01*
X-19469325Y22794864D01*
X-19471145Y22793828D01*
X-19499679Y22790500D01*
X-19675537Y22790500D01*
X-19737539Y22807114D01*
X-19749269Y22813887D01*
X-19749271Y22813887D01*
X-19749272Y22813888D01*
X-19848590Y22840500D01*
X-19951410Y22840500D01*
X-20050728Y22813888D01*
X-20139773Y22762478D01*
X-20212478Y22689773D01*
X-20263888Y22600728D01*
X-20290500Y22501410D01*
X-20290500Y22398590D01*
X-20263888Y22299272D01*
X-20259420Y22291533D01*
X-20212480Y22210230D01*
X-20212476Y22210225D01*
X-20204432Y22202181D01*
X-20170947Y22140858D01*
X-20175931Y22071166D01*
X-20217803Y22015233D01*
X-20283267Y21990816D01*
X-20292113Y21990500D01*
X-20517866Y21990500D01*
X-20550673Y21976910D01*
X-20597070Y21957693D01*
X-20597071Y21957691D01*
X-20597072Y21957691D01*
X-21018444Y21536319D01*
X-21079767Y21502834D01*
X-21106125Y21500000D01*
X-22400000Y21500000D01*
X-22570711Y21429289D01*
X-22911850Y21088149D01*
X-22918778Y21083520D01*
X-22921722Y21079281D01*
X-22952074Y21061272D01*
X-23014644Y21035355D01*
X-23077213Y21009439D01*
X-23124665Y21000000D01*
X-28900000Y21000000D01*
X-29070711Y20929289D01*
X-29429289Y20570711D01*
X-29499999Y20400002D01*
X-29500000Y20399998D01*
X-29500000Y19124665D01*
X-29501626Y19116488D01*
X-29500710Y19111410D01*
X-29509439Y19077213D01*
X-29561272Y18952076D01*
X-29588149Y18911850D01*
X-29911850Y18588149D01*
X-29952074Y18561272D01*
X-30014644Y18535355D01*
X-30077213Y18509439D01*
X-30124665Y18500000D01*
X-41800000Y18500000D01*
X-41900000Y18500000D01*
X-41900000Y22291536D01*
X-25015500Y22291536D01*
X-25015500Y22208464D01*
X-24993999Y22128222D01*
X-24993997Y22128219D01*
X-24993997Y22128217D01*
X-24993996Y22128216D01*
X-24984037Y22110968D01*
X-24952462Y22056279D01*
X-24893721Y21997538D01*
X-24893714Y21997534D01*
X-24821783Y21956003D01*
X-24821782Y21956002D01*
X-24821778Y21956001D01*
X-24741536Y21934500D01*
X-24741533Y21934500D01*
X-24658467Y21934500D01*
X-24658464Y21934500D01*
X-24602058Y21949613D01*
X-24578217Y21956002D01*
X-24578216Y21956003D01*
X-24506285Y21997534D01*
X-24506276Y21997540D01*
X-24505636Y21998181D01*
X-24504962Y21998548D01*
X-24499833Y22002485D01*
X-24499219Y22001684D01*
X-24478708Y22012884D01*
X-24452890Y22029477D01*
X-24446689Y22030368D01*
X-24444313Y22031666D01*
X-24417955Y22034500D01*
X-24356281Y22034500D01*
X-24289242Y22014815D01*
X-24253179Y21979391D01*
X-24240132Y21959865D01*
X-24180430Y21919974D01*
X-24180423Y21919971D01*
X-24127780Y21909500D01*
X-24127777Y21909500D01*
X-22772225Y21909500D01*
X-22719571Y21919973D01*
X-22719568Y21919974D01*
X-22659865Y21959867D01*
X-22619974Y22019569D01*
X-22619971Y22019576D01*
X-22609500Y22072218D01*
X-22609500Y22827774D01*
X-22619973Y22880428D01*
X-22619974Y22880431D01*
X-22659867Y22940134D01*
X-22719569Y22980025D01*
X-22719571Y22980026D01*
X-22719572Y22980027D01*
X-22719575Y22980027D01*
X-22719576Y22980028D01*
X-22745897Y22985263D01*
X-22772223Y22990500D01*
X-24127776Y22990499D01*
X-24180428Y22980027D01*
X-24240133Y22940133D01*
X-24280027Y22880428D01*
X-24280027Y22880423D01*
X-24280028Y22880423D01*
X-24290499Y22827781D01*
X-24290500Y22827779D01*
X-24290500Y22589500D01*
X-24293050Y22580814D01*
X-24291762Y22571853D01*
X-24302740Y22547812D01*
X-24310185Y22522461D01*
X-24317025Y22516533D01*
X-24320787Y22508297D01*
X-24343021Y22494007D01*
X-24362989Y22476706D01*
X-24373503Y22474418D01*
X-24379565Y22470523D01*
X-24414500Y22465500D01*
X-24417955Y22465500D01*
X-24484994Y22485185D01*
X-24505636Y22501819D01*
X-24506276Y22502459D01*
X-24506279Y22502462D01*
X-24542250Y22523230D01*
X-24578216Y22543996D01*
X-24578217Y22543997D01*
X-24578219Y22543997D01*
X-24578222Y22543999D01*
X-24658464Y22565500D01*
X-24741536Y22565500D01*
X-24821778Y22543999D01*
X-24821780Y22543997D01*
X-24821782Y22543997D01*
X-24821782Y22543996D01*
X-24893721Y22502462D01*
X-24952462Y22443721D01*
X-24993999Y22371778D01*
X-25015500Y22291536D01*
X-41900000Y22291536D01*
X-41900000Y39396910D01*
X-41899846Y39403087D01*
X-41890204Y39596407D01*
X-41889743Y39602569D01*
X-41860541Y39894585D01*
X-41858792Y39906341D01*
X-41822421Y40089946D01*
X-41819555Y40101482D01*
X-41730955Y40396814D01*
X-41725612Y40411285D01*
X-41651672Y40578679D01*
X-41644574Y40592374D01*
X-41455361Y40907731D01*
X-41446769Y40920245D01*
X-41333969Y41064716D01*
X-41323913Y41076086D01*
X-41076086Y41323913D01*
X-41064716Y41333969D01*
X-40920245Y41446769D01*
X-40907731Y41455361D01*
X-40592374Y41644574D01*
X-40578679Y41651672D01*
X-40411285Y41725612D01*
X-40396814Y41730955D01*
X-40101482Y41819555D01*
X-40089946Y41822421D01*
X-39906341Y41858792D01*
X-39894585Y41860541D01*
X-39602569Y41889743D01*
X-39596420Y41890203D01*
X-39403087Y41899846D01*
X-39396911Y41900000D01*
X-33051362Y41900000D01*
X-32984323Y41880315D01*
G37*
%TD.AperFunction*%
%TD*%
%TA.AperFunction,Conductor*%
%TO.N,BOUT2*%
G36*
X-2927212Y21190561D02*
G01*
X-2802075Y21138727D01*
X-2761847Y21111847D01*
X-2588152Y20938152D01*
X-2583520Y20931220D01*
X-2579281Y20928277D01*
X-2561272Y20897923D01*
X-2509439Y20772786D01*
X-2500000Y20725334D01*
X-2500000Y19324665D01*
X-2509439Y19277213D01*
X-2561272Y19152076D01*
X-2588149Y19111850D01*
X-2761850Y18938149D01*
X-2768778Y18933520D01*
X-2771722Y18929281D01*
X-2802074Y18911272D01*
X-2864644Y18885355D01*
X-2927213Y18859439D01*
X-2974665Y18850000D01*
X-4750000Y18850000D01*
X-4939443Y18805279D01*
X-5947650Y18301174D01*
X-5974602Y18291405D01*
X-6128226Y18255139D01*
X-6135949Y18253317D01*
X-6164438Y18250000D01*
X-9648638Y18250000D01*
X-9715677Y18269685D01*
X-9736319Y18286319D01*
X-9763681Y18313681D01*
X-9797166Y18375004D01*
X-9800000Y18401362D01*
X-9800000Y19298638D01*
X-9791355Y19328078D01*
X-9784832Y19358065D01*
X-9781077Y19363080D01*
X-9780315Y19365677D01*
X-9763681Y19386319D01*
X-9736319Y19413681D01*
X-9674996Y19447166D01*
X-9648638Y19450000D01*
X-6950000Y19450000D01*
X-6762919Y19499158D01*
X-6757800Y19501235D01*
X-6750348Y19503983D01*
X-6742503Y19506593D01*
X-6713055Y19518542D01*
X-6702024Y19523867D01*
X-3818997Y21151382D01*
X-3789553Y21163329D01*
X-3665493Y21195929D01*
X-3633979Y21200000D01*
X-2974665Y21200000D01*
X-2927212Y21190561D01*
G37*
%TD.AperFunction*%
%TD*%
%TA.AperFunction,Conductor*%
%TO.N,/FB*%
G36*
X-12856961Y32530315D02*
G01*
X-12811206Y32477511D01*
X-12800000Y32426000D01*
X-12800000Y32050000D01*
X-12800000Y31850000D01*
X-12800000Y31650000D01*
X-12700000Y31550000D01*
X-12551362Y31550000D01*
X-12521921Y31541355D01*
X-12491935Y31534832D01*
X-12486919Y31531077D01*
X-12484323Y31530315D01*
X-12463681Y31513681D01*
X-12436319Y31486319D01*
X-12402834Y31424996D01*
X-12400000Y31398638D01*
X-12400000Y31245376D01*
X-12409437Y31197926D01*
X-12430345Y31147452D01*
X-12474184Y31093050D01*
X-12497446Y31080346D01*
X-12547926Y31059437D01*
X-12595376Y31050000D01*
X-13704624Y31050000D01*
X-13712799Y31051626D01*
X-13717878Y31050710D01*
X-13752076Y31059439D01*
X-13802546Y31080344D01*
X-13856950Y31124184D01*
X-13869655Y31147452D01*
X-13890561Y31197923D01*
X-13900000Y31245376D01*
X-13900000Y31354623D01*
X-13890561Y31402076D01*
X-13869655Y31452547D01*
X-13850401Y31476438D01*
X-13832901Y31501645D01*
X-13827512Y31504842D01*
X-13825814Y31506950D01*
X-13802548Y31519655D01*
X-13776813Y31530315D01*
X-13752075Y31540561D01*
X-13704624Y31550000D01*
X-13249999Y31550000D01*
X-13150000Y31649999D01*
X-13150000Y31900002D01*
X-13220711Y32070711D01*
X-13411847Y32261847D01*
X-13416478Y32268778D01*
X-13420717Y32271721D01*
X-13438727Y32302074D01*
X-13468293Y32373453D01*
X-13475762Y32442921D01*
X-13444488Y32505400D01*
X-13441422Y32508578D01*
X-13436325Y32513674D01*
X-13375008Y32547164D01*
X-13348638Y32550000D01*
X-12924000Y32550000D01*
X-12856961Y32530315D01*
G37*
%TD.AperFunction*%
%TD*%
%TA.AperFunction,Conductor*%
%TO.N,PGND*%
G36*
X-2596912Y41899846D02*
G01*
X-2403582Y41890203D01*
X-2397430Y41889743D01*
X-2105414Y41860541D01*
X-2093658Y41858792D01*
X-1910053Y41822421D01*
X-1898517Y41819555D01*
X-1603185Y41730955D01*
X-1588714Y41725612D01*
X-1421320Y41651672D01*
X-1407625Y41644574D01*
X-1092268Y41455361D01*
X-1079754Y41446769D01*
X-935283Y41333969D01*
X-923913Y41323913D01*
X-676086Y41076086D01*
X-666030Y41064716D01*
X-553230Y40920245D01*
X-544638Y40907731D01*
X-355425Y40592374D01*
X-348327Y40578679D01*
X-274387Y40411285D01*
X-269044Y40396815D01*
X-180440Y40101468D01*
X-177581Y40089960D01*
X-141204Y39906323D01*
X-139460Y39894603D01*
X-110254Y39602548D01*
X-109795Y39596406D01*
X-100154Y39403086D01*
X-100000Y39396910D01*
X-100000Y37924665D01*
X-109439Y37877213D01*
X-161272Y37752076D01*
X-188149Y37711850D01*
X-211850Y37688149D01*
X-252074Y37661272D01*
X-314644Y37635355D01*
X-377213Y37609439D01*
X-424665Y37600000D01*
X-950000Y37600000D01*
X-1120711Y37529289D01*
X-1261852Y37388147D01*
X-1268779Y37383519D01*
X-1271722Y37379281D01*
X-1302074Y37361272D01*
X-1364644Y37335355D01*
X-1427213Y37309439D01*
X-1474665Y37300000D01*
X-3525335Y37300000D01*
X-3572788Y37309439D01*
X-3697925Y37361272D01*
X-3738152Y37388152D01*
X-4879288Y38529288D01*
X-4879289Y38529289D01*
X-4999996Y38579288D01*
X-5049997Y38599999D01*
X-5049998Y38599999D01*
X-5050000Y38600000D01*
X-5050001Y38600000D01*
X-9949999Y38600000D01*
X-9950000Y38600000D01*
X-10120711Y38529289D01*
X-10729289Y37920711D01*
X-10799140Y37752076D01*
X-10799999Y37750002D01*
X-10800000Y37749998D01*
X-10800000Y36574665D01*
X-10801626Y36566488D01*
X-10800710Y36561410D01*
X-10809439Y36527213D01*
X-10861272Y36402076D01*
X-10888149Y36361850D01*
X-11611850Y35638149D01*
X-11652074Y35611272D01*
X-11712318Y35586319D01*
X-11777213Y35559439D01*
X-11824665Y35550000D01*
X-11948638Y35550000D01*
X-11978078Y35558644D01*
X-12008065Y35565168D01*
X-12013080Y35568922D01*
X-12015677Y35569685D01*
X-12036319Y35586319D01*
X-12063681Y35613681D01*
X-12097166Y35675004D01*
X-12100000Y35701362D01*
X-12100000Y36050002D01*
X-12170711Y36220711D01*
X-12379288Y36429288D01*
X-12379289Y36429289D01*
X-12499996Y36479288D01*
X-12549997Y36499999D01*
X-12549998Y36499999D01*
X-12550000Y36500000D01*
X-12550001Y36500000D01*
X-13804624Y36500000D01*
X-13812799Y36501626D01*
X-13817878Y36500710D01*
X-13852076Y36509439D01*
X-13902546Y36530344D01*
X-13956950Y36574184D01*
X-13969655Y36597452D01*
X-13990561Y36647923D01*
X-14000000Y36695376D01*
X-14000000Y41375334D01*
X-13990561Y41422787D01*
X-13938727Y41547924D01*
X-13911847Y41588152D01*
X-13688152Y41811847D01*
X-13681220Y41816478D01*
X-13678278Y41820717D01*
X-13647925Y41838727D01*
X-13595262Y41860541D01*
X-13522786Y41890561D01*
X-13475335Y41900000D01*
X-2603089Y41900000D01*
X-2596912Y41899846D01*
G37*
%TD.AperFunction*%
%TD*%
%TA.AperFunction,Conductor*%
%TO.N,+12V*%
G36*
X-5806961Y22880315D02*
G01*
X-5761206Y22827511D01*
X-5750000Y22776000D01*
X-5750000Y22618623D01*
X-5750179Y22617435D01*
X-5750013Y22616836D01*
X-5755538Y22581980D01*
X-5773481Y22523979D01*
X-5788760Y22491858D01*
X-6333605Y21674592D01*
X-6341312Y21664248D01*
X-6364797Y21635950D01*
X-6372484Y21627515D01*
X-6485778Y21514221D01*
X-6517990Y21491004D01*
X-7349491Y21075254D01*
X-7376426Y21065491D01*
X-7428009Y21053315D01*
X-7456490Y21050000D01*
X-7926000Y21050000D01*
X-7993039Y21069685D01*
X-8038794Y21122489D01*
X-8050000Y21174000D01*
X-8050000Y21500000D01*
X-9676000Y21500000D01*
X-9743039Y21519685D01*
X-9788794Y21572489D01*
X-9800000Y21624000D01*
X-9800000Y21926000D01*
X-9780315Y21993039D01*
X-9727511Y22038794D01*
X-9676000Y22050000D01*
X-8050000Y22050000D01*
X-8050000Y22776000D01*
X-8030315Y22843039D01*
X-7977511Y22888794D01*
X-7926000Y22900000D01*
X-5874000Y22900000D01*
X-5806961Y22880315D01*
G37*
%TD.AperFunction*%
%TD*%
%TA.AperFunction,Conductor*%
%TO.N,BOUT1*%
G36*
X-2927212Y23690561D02*
G01*
X-2802075Y23638727D01*
X-2761847Y23611847D01*
X-2588152Y23438152D01*
X-2583520Y23431220D01*
X-2579281Y23428277D01*
X-2561272Y23397923D01*
X-2509439Y23272786D01*
X-2500000Y23225334D01*
X-2500000Y21774665D01*
X-2509439Y21727213D01*
X-2561272Y21602076D01*
X-2588149Y21561850D01*
X-2761850Y21388149D01*
X-2768778Y21383520D01*
X-2771722Y21379281D01*
X-2802074Y21361272D01*
X-2816540Y21355281D01*
X-2927213Y21309439D01*
X-2974665Y21300000D01*
X-3650000Y21300000D01*
X-3837082Y21250841D01*
X-6748973Y19607031D01*
X-6778404Y19595089D01*
X-6934507Y19554071D01*
X-6966020Y19550000D01*
X-9648638Y19550000D01*
X-9715677Y19569685D01*
X-9736319Y19586319D01*
X-9763681Y19613681D01*
X-9797166Y19675004D01*
X-9800000Y19701362D01*
X-9800000Y20598638D01*
X-9791355Y20628078D01*
X-9784832Y20658065D01*
X-9781077Y20663080D01*
X-9780315Y20665677D01*
X-9763681Y20686319D01*
X-9736319Y20713681D01*
X-9674996Y20747166D01*
X-9648638Y20750000D01*
X-8149999Y20750000D01*
X-7986319Y20913681D01*
X-7924996Y20947166D01*
X-7898638Y20950000D01*
X-7450000Y20950000D01*
X-7260562Y20994719D01*
X-7260561Y20994719D01*
X-7260558Y20994720D01*
X-6748318Y21250841D01*
X-6539443Y21355279D01*
X-6539439Y21355281D01*
X-6539438Y21355281D01*
X-6379293Y21470707D01*
X-6379284Y21470714D01*
X-6370718Y21479281D01*
X-6370706Y21479294D01*
X-6243532Y21632530D01*
X-6243528Y21632535D01*
X-5706467Y22417469D01*
X-5650000Y22599996D01*
X-5650000Y22775334D01*
X-5648373Y22783512D01*
X-5649289Y22788589D01*
X-5640561Y22822787D01*
X-5588727Y22947924D01*
X-5561847Y22988152D01*
X-4938152Y23611847D01*
X-4897925Y23638727D01*
X-4853572Y23657098D01*
X-4772786Y23690561D01*
X-4725335Y23700000D01*
X-2974665Y23700000D01*
X-2927212Y23690561D01*
G37*
%TD.AperFunction*%
%TD*%
%TA.AperFunction,Conductor*%
%TO.N,+12V*%
G36*
X-5077212Y38490561D02*
G01*
X-4952075Y38438727D01*
X-4911847Y38411847D01*
X-3770711Y37270711D01*
X-3600002Y37200000D01*
X-1400000Y37200000D01*
X-1399997Y37200000D01*
X-1229289Y37270710D01*
X-1088152Y37411848D01*
X-1081219Y37416480D01*
X-1078278Y37420717D01*
X-1047925Y37438727D01*
X-1003572Y37457098D01*
X-922786Y37490561D01*
X-875335Y37500000D01*
X-424665Y37500000D01*
X-377212Y37490561D01*
X-252075Y37438727D01*
X-211847Y37411847D01*
X-188152Y37388152D01*
X-161272Y37347923D01*
X-109439Y37222786D01*
X-100000Y37175334D01*
X-100000Y34901362D01*
X-108644Y34871921D01*
X-115168Y34841935D01*
X-118922Y34836919D01*
X-119685Y34834323D01*
X-136319Y34813681D01*
X-163681Y34786319D01*
X-225004Y34752834D01*
X-251362Y34750000D01*
X-8600000Y34750000D01*
X-8770711Y34679289D01*
X-9561850Y33888149D01*
X-9568778Y33883520D01*
X-9571722Y33879281D01*
X-9602074Y33861272D01*
X-9664644Y33835355D01*
X-9727213Y33809439D01*
X-9774665Y33800000D01*
X-10125335Y33800000D01*
X-10172788Y33809439D01*
X-10297925Y33861272D01*
X-10338152Y33888152D01*
X-10529288Y34079288D01*
X-10529289Y34079289D01*
X-10649996Y34129288D01*
X-10699997Y34149999D01*
X-10699998Y34149999D01*
X-10700000Y34150000D01*
X-10700001Y34150000D01*
X-11948638Y34150000D01*
X-11978078Y34158644D01*
X-12008065Y34165168D01*
X-12013080Y34168922D01*
X-12015677Y34169685D01*
X-12036319Y34186319D01*
X-12063681Y34213681D01*
X-12097166Y34275004D01*
X-12100000Y34301362D01*
X-12100000Y35254623D01*
X-12090561Y35302076D01*
X-12069655Y35352547D01*
X-12025814Y35406950D01*
X-12002548Y35419655D01*
X-11987379Y35425938D01*
X-11952075Y35440561D01*
X-11904624Y35450000D01*
X-11749997Y35450000D01*
X-11579288Y35520711D01*
X-10770711Y36329288D01*
X-10700000Y36499997D01*
X-10700000Y37675334D01*
X-10698373Y37683512D01*
X-10699289Y37688589D01*
X-10690561Y37722787D01*
X-10638727Y37847924D01*
X-10611847Y37888152D01*
X-10088152Y38411847D01*
X-10047925Y38438727D01*
X-10003572Y38457098D01*
X-9922786Y38490561D01*
X-9875335Y38500000D01*
X-5124665Y38500000D01*
X-5077212Y38490561D01*
G37*
%TD.AperFunction*%
%TD*%
%TA.AperFunction,Conductor*%
%TO.N,PGND*%
G36*
X-14547923Y32040561D02*
G01*
X-14497452Y32019655D01*
X-14473561Y32000402D01*
X-14448352Y31982899D01*
X-14445155Y31977511D01*
X-14443049Y31975814D01*
X-14430345Y31952549D01*
X-14414369Y31913981D01*
X-14409438Y31902074D01*
X-14400000Y31854623D01*
X-14400000Y31695376D01*
X-14409437Y31647926D01*
X-14430344Y31597451D01*
X-14474184Y31543050D01*
X-14497446Y31530346D01*
X-14547926Y31509437D01*
X-14595376Y31500000D01*
X-14600000Y31500000D01*
X-14770711Y31429289D01*
X-15029289Y31170711D01*
X-15066576Y31080691D01*
X-15087126Y31049937D01*
X-15094342Y31013658D01*
X-15100000Y31000000D01*
X-15100000Y30999999D01*
X-15100000Y30993870D01*
X-15100499Y30983703D01*
X-15100499Y30982708D01*
X-15100500Y30982703D01*
X-15100499Y30657298D01*
X-15100000Y30654789D01*
X-15100000Y30650000D01*
X-15098167Y30645575D01*
X-15087126Y30590063D01*
X-15087125Y30590062D01*
X-15087124Y30590059D01*
X-15062464Y30553154D01*
X-15051008Y30531724D01*
X-15029289Y30479289D01*
X-15029286Y30479286D01*
X-14520711Y29970711D01*
X-14350002Y29900000D01*
X-13400000Y29900000D01*
X-13399997Y29900000D01*
X-13229288Y29970711D01*
X-12988152Y30211847D01*
X-12981220Y30216478D01*
X-12978278Y30220717D01*
X-12947925Y30238727D01*
X-12903572Y30257098D01*
X-12822786Y30290561D01*
X-12775335Y30300000D01*
X-11695376Y30300000D01*
X-11647923Y30290561D01*
X-11597452Y30269655D01*
X-11543049Y30225814D01*
X-11530345Y30202549D01*
X-11514369Y30163981D01*
X-11509438Y30152074D01*
X-11500000Y30104623D01*
X-11500000Y29950000D01*
X-11429289Y29779289D01*
X-11429288Y29779288D01*
X-11370711Y29720711D01*
X-11200002Y29650000D01*
X-11153871Y29650000D01*
X-11143692Y29649500D01*
X-11142703Y29649500D01*
X-10759965Y29649500D01*
X-10759959Y29649500D01*
X-10757298Y29649501D01*
X-10754789Y29650000D01*
X-10750000Y29650000D01*
X-10745572Y29651833D01*
X-10732539Y29654425D01*
X-10732453Y29654441D01*
X-10690065Y29662873D01*
X-10690062Y29662874D01*
X-10653154Y29687535D01*
X-10631720Y29698992D01*
X-10579289Y29720710D01*
X-10470710Y29829289D01*
X-10400000Y29999997D01*
X-10397618Y30011977D01*
X-10396167Y30011688D01*
X-10391355Y30028078D01*
X-10384832Y30058065D01*
X-10381077Y30063080D01*
X-10380315Y30065677D01*
X-10363681Y30086319D01*
X-10336319Y30113681D01*
X-10274996Y30147166D01*
X-10248638Y30150000D01*
X-9951362Y30150000D01*
X-9884323Y30130315D01*
X-9863681Y30113681D01*
X-9836319Y30086319D01*
X-9802834Y30024996D01*
X-9800000Y29998638D01*
X-9800000Y29324665D01*
X-9801626Y29316489D01*
X-9800710Y29311411D01*
X-9809439Y29277213D01*
X-9853568Y29170673D01*
X-9897407Y29116272D01*
X-9920669Y29103570D01*
X-10001171Y29070225D01*
X-10027213Y29059439D01*
X-10074665Y29050000D01*
X-15325335Y29050000D01*
X-15372788Y29059439D01*
X-15479322Y29103567D01*
X-15497925Y29111272D01*
X-15538152Y29138152D01*
X-15911847Y29511847D01*
X-15916478Y29518777D01*
X-15920717Y29521721D01*
X-15938727Y29552075D01*
X-15981129Y29654441D01*
X-15990561Y29677212D01*
X-16000000Y29724665D01*
X-16000000Y31275334D01*
X-15990561Y31322787D01*
X-15938727Y31447924D01*
X-15911847Y31488152D01*
X-15538152Y31861847D01*
X-15531220Y31866478D01*
X-15528278Y31870717D01*
X-15497925Y31888727D01*
X-15453572Y31907098D01*
X-15372786Y31940561D01*
X-15325335Y31950000D01*
X-15220709Y31950000D01*
X-15100000Y32000000D01*
X-15002077Y32040561D01*
X-14954624Y32050000D01*
X-14595376Y32050000D01*
X-14547923Y32040561D01*
G37*
%TD.AperFunction*%
%TD*%
%TA.AperFunction,Conductor*%
%TO.N,+12V*%
G36*
X-7901931Y15523357D02*
G01*
X-7897155Y15522412D01*
X-7874011Y15515430D01*
X-7755667Y15466700D01*
X-7744004Y15462755D01*
X-7743991Y15462752D01*
X-7734878Y15460310D01*
X-7719763Y15455197D01*
X-7712225Y15452093D01*
X-7697446Y15444823D01*
X-7690298Y15440696D01*
X-7678924Y15435101D01*
X-7678913Y15435096D01*
X-7678909Y15435094D01*
X-7578531Y15393762D01*
X-6397792Y14907575D01*
X-6377373Y14896847D01*
X-6247010Y14812016D01*
X-6228930Y14797692D01*
X-5511428Y14111386D01*
X-5509459Y14109459D01*
X-4088152Y12688152D01*
X-4061272Y12647923D01*
X-4009439Y12522786D01*
X-4000000Y12475334D01*
X-4000000Y10124665D01*
X-4001626Y10116488D01*
X-4000710Y10111410D01*
X-4009439Y10077213D01*
X-4061272Y9952076D01*
X-4088149Y9911850D01*
X-5511850Y8488149D01*
X-5552074Y8461272D01*
X-5612318Y8436319D01*
X-5677213Y8409439D01*
X-5724665Y8400000D01*
X-8448638Y8400000D01*
X-8478078Y8408644D01*
X-8508065Y8415168D01*
X-8513080Y8418922D01*
X-8515677Y8419685D01*
X-8536319Y8436319D01*
X-8563681Y8463681D01*
X-8597166Y8525004D01*
X-8600000Y8551362D01*
X-8600000Y10025334D01*
X-8590561Y10072787D01*
X-8538727Y10197924D01*
X-8511847Y10238152D01*
X-8120711Y10629288D01*
X-8050000Y10799997D01*
X-8050000Y13298638D01*
X-8041355Y13328078D01*
X-8034832Y13358065D01*
X-8031077Y13363080D01*
X-8030315Y13365677D01*
X-8013681Y13386319D01*
X-7986319Y13413681D01*
X-7924996Y13447166D01*
X-7898638Y13450000D01*
X-7653871Y13450000D01*
X-7643692Y13449500D01*
X-7642703Y13449500D01*
X-7256300Y13449500D01*
X-7246141Y13450000D01*
X-7220709Y13450000D01*
X-7100000Y13500000D01*
X-7050000Y13620709D01*
X-7050000Y13646129D01*
X-7049500Y13656307D01*
X-7049500Y13983710D01*
X-7050000Y13993859D01*
X-7050000Y14029290D01*
X-7075000Y14089644D01*
X-7100000Y14150000D01*
X-7220711Y14200000D01*
X-7220713Y14200000D01*
X-7617205Y14200000D01*
X-7625381Y14201626D01*
X-7630460Y14200710D01*
X-7664658Y14209439D01*
X-7766350Y14251561D01*
X-7782646Y14259765D01*
X-7785324Y14261370D01*
X-7806761Y14272828D01*
X-7815231Y14276834D01*
X-7869320Y14299238D01*
X-7940662Y14328790D01*
X-7940665Y14328791D01*
X-7958581Y14334226D01*
X-7958584Y14334226D01*
X-7961493Y14335109D01*
X-7961461Y14335213D01*
X-7975472Y14339840D01*
X-7999998Y14349999D01*
X-8000000Y14350000D01*
X-8000002Y14350000D01*
X-9648638Y14350000D01*
X-9678078Y14358644D01*
X-9708065Y14365168D01*
X-9713080Y14368922D01*
X-9715677Y14369685D01*
X-9736319Y14386319D01*
X-9763681Y14413681D01*
X-9797166Y14475004D01*
X-9800000Y14501362D01*
X-9800000Y14748638D01*
X-9780315Y14815677D01*
X-9763681Y14836319D01*
X-9736319Y14863681D01*
X-9674996Y14897166D01*
X-9648638Y14900000D01*
X-8149999Y14900000D01*
X-8050000Y14999999D01*
X-8050000Y15401715D01*
X-8030315Y15468754D01*
X-7977511Y15514509D01*
X-7908353Y15524453D01*
X-7901931Y15523357D01*
G37*
%TD.AperFunction*%
%TD*%
%TA.AperFunction,Conductor*%
%TO.N,/VCP*%
G36*
X-7977212Y14240561D02*
G01*
X-7851778Y14188604D01*
X-7830341Y14177146D01*
X-7820713Y14170713D01*
X-7820711Y14170711D01*
X-7770710Y14150000D01*
X-7650002Y14100000D01*
X-7650000Y14100000D01*
X-7274000Y14100000D01*
X-7206961Y14080315D01*
X-7161206Y14027511D01*
X-7150000Y13976000D01*
X-7150000Y13674000D01*
X-7169685Y13606961D01*
X-7222489Y13561206D01*
X-7274000Y13550000D01*
X-7923638Y13550000D01*
X-7990677Y13569685D01*
X-8011319Y13586319D01*
X-8124999Y13699999D01*
X-8125000Y13700000D01*
X-8125001Y13700000D01*
X-9648638Y13700000D01*
X-9678078Y13708644D01*
X-9708065Y13715168D01*
X-9713080Y13718922D01*
X-9715677Y13719685D01*
X-9736319Y13736319D01*
X-9763681Y13763681D01*
X-9797166Y13825004D01*
X-9800000Y13851362D01*
X-9800000Y14098638D01*
X-9780315Y14165677D01*
X-9763681Y14186319D01*
X-9736319Y14213681D01*
X-9674996Y14247166D01*
X-9648638Y14250000D01*
X-8024665Y14250000D01*
X-7977212Y14240561D01*
G37*
%TD.AperFunction*%
%TD*%
%TA.AperFunction,Conductor*%
%TO.N,/VCC*%
G36*
X-13006961Y33080315D02*
G01*
X-12961206Y33027511D01*
X-12950000Y32976000D01*
X-12950000Y32924000D01*
X-12969685Y32856961D01*
X-13022489Y32811206D01*
X-13074000Y32800000D01*
X-13200000Y32800000D01*
X-13370711Y32729289D01*
X-13398182Y32701818D01*
X-13415133Y32692561D01*
X-13429122Y32679243D01*
X-13447818Y32674714D01*
X-13459505Y32668333D01*
X-13470821Y32669142D01*
X-13477285Y32667576D01*
X-13477140Y32666096D01*
X-13483197Y32665499D01*
X-13483202Y32665499D01*
X-13526009Y32656985D01*
X-13574551Y32624551D01*
X-13606985Y32576009D01*
X-13615500Y32533203D01*
X-13615499Y32457959D01*
X-13624937Y32410506D01*
X-13650000Y32350000D01*
X-13650000Y32349998D01*
X-13650000Y32024665D01*
X-13651626Y32016488D01*
X-13650710Y32011410D01*
X-13659439Y31977213D01*
X-13711272Y31852076D01*
X-13738149Y31811850D01*
X-13923415Y31626584D01*
X-13942197Y31611171D01*
X-13947577Y31607577D01*
X-13951171Y31602197D01*
X-13966592Y31583407D01*
X-13979289Y31570711D01*
X-13990834Y31542836D01*
X-13997417Y31532986D01*
X-13999728Y31521366D01*
X-14050000Y31400000D01*
X-14050000Y31399998D01*
X-14050000Y31274665D01*
X-14051626Y31266488D01*
X-14050710Y31261410D01*
X-14059439Y31227213D01*
X-14111272Y31102076D01*
X-14138149Y31061850D01*
X-14346967Y30853033D01*
X-14390561Y30747787D01*
X-14395193Y30740853D01*
X-14396291Y30735810D01*
X-14417440Y30707559D01*
X-14438681Y30686319D01*
X-14438683Y30686317D01*
X-14500007Y30652833D01*
X-14526362Y30650000D01*
X-14848638Y30650000D01*
X-14915677Y30669685D01*
X-14936319Y30686319D01*
X-14963681Y30713681D01*
X-14997166Y30775004D01*
X-15000000Y30801362D01*
X-15000000Y30925334D01*
X-14990561Y30972787D01*
X-14938727Y31097924D01*
X-14911847Y31138152D01*
X-14738152Y31311847D01*
X-14731219Y31316479D01*
X-14728277Y31320717D01*
X-14697924Y31338727D01*
X-14550004Y31399998D01*
X-14549242Y31400311D01*
X-14549087Y31400374D01*
X-14513210Y31407401D01*
X-14513358Y31408904D01*
X-14507298Y31409501D01*
X-14440062Y31422874D01*
X-14440059Y31422875D01*
X-14363818Y31473818D01*
X-14312875Y31550060D01*
X-14312872Y31550066D01*
X-14299500Y31617294D01*
X-14299500Y31943710D01*
X-14300000Y31953859D01*
X-14300000Y32175334D01*
X-14290561Y32222788D01*
X-14242095Y32339792D01*
X-14215215Y32380019D01*
X-13580020Y33015215D01*
X-13555774Y33031415D01*
X-13549080Y33037790D01*
X-13545088Y33038556D01*
X-13539793Y33042095D01*
X-13474090Y33069310D01*
X-13422786Y33090561D01*
X-13375335Y33100000D01*
X-13074000Y33100000D01*
X-13006961Y33080315D01*
G37*
%TD.AperFunction*%
%TD*%
%TA.AperFunction,Conductor*%
%TO.N,/SW*%
G36*
X-15777212Y38640561D02*
G01*
X-15652075Y38588727D01*
X-15611847Y38561847D01*
X-15338152Y38288152D01*
X-15333520Y38281220D01*
X-15329281Y38278277D01*
X-15311272Y38247923D01*
X-15259439Y38122786D01*
X-15250000Y38075334D01*
X-15250000Y36000000D01*
X-15179289Y35829289D01*
X-15179288Y35829288D01*
X-14050918Y34700918D01*
X-14035494Y34682124D01*
X-14032693Y34677932D01*
X-14032692Y34677929D01*
X-14032689Y34677926D01*
X-13622069Y34267306D01*
X-13622070Y34267306D01*
X-13598834Y34257682D01*
X-13575673Y34248089D01*
X-13542866Y34234500D01*
X-13542865Y34234500D01*
X-13536359Y34234500D01*
X-13519568Y34228610D01*
X-13518351Y34227736D01*
X-13513159Y34226161D01*
X-13450002Y34200000D01*
X-12950000Y34200000D01*
X-12949999Y34200000D01*
X-12850000Y34299999D01*
X-12850000Y34498638D01*
X-12841355Y34528078D01*
X-12834832Y34558065D01*
X-12831077Y34563080D01*
X-12830315Y34565677D01*
X-12813681Y34586319D01*
X-12786319Y34613681D01*
X-12724996Y34647166D01*
X-12698638Y34650000D01*
X-12401362Y34650000D01*
X-12334323Y34630315D01*
X-12313681Y34613681D01*
X-12286319Y34586319D01*
X-12252834Y34524996D01*
X-12250000Y34498638D01*
X-12250000Y34100000D01*
X-12150000Y34000000D01*
X-10751362Y34000000D01*
X-10721921Y33991355D01*
X-10691935Y33984832D01*
X-10686919Y33981077D01*
X-10684323Y33980315D01*
X-10663681Y33963681D01*
X-10636319Y33936319D01*
X-10602834Y33874996D01*
X-10600000Y33848638D01*
X-10600000Y33551362D01*
X-10619685Y33484323D01*
X-10636319Y33463681D01*
X-10663681Y33436319D01*
X-10725004Y33402834D01*
X-10751362Y33400000D01*
X-12150000Y33400000D01*
X-12250000Y33300000D01*
X-12250000Y33299999D01*
X-12250000Y32901362D01*
X-12258644Y32871921D01*
X-12265168Y32841935D01*
X-12268922Y32836919D01*
X-12269685Y32834323D01*
X-12286319Y32813681D01*
X-12313681Y32786319D01*
X-12375004Y32752834D01*
X-12401362Y32750000D01*
X-12698638Y32750000D01*
X-12765677Y32769685D01*
X-12786319Y32786319D01*
X-12813681Y32813681D01*
X-12847166Y32875004D01*
X-12850000Y32901362D01*
X-12850000Y33600000D01*
X-12949999Y33699999D01*
X-12950000Y33700000D01*
X-12950001Y33700000D01*
X-13449999Y33700000D01*
X-13450000Y33700000D01*
X-13620711Y33629289D01*
X-15111850Y32138149D01*
X-15118778Y32133520D01*
X-15121722Y32129281D01*
X-15152074Y32111272D01*
X-15212318Y32086319D01*
X-15277213Y32059439D01*
X-15324665Y32050000D01*
X-18548638Y32050000D01*
X-18615677Y32069685D01*
X-18636319Y32086319D01*
X-18663681Y32113681D01*
X-18697166Y32175004D01*
X-18700000Y32201362D01*
X-18700000Y38498638D01*
X-18691355Y38528078D01*
X-18684832Y38558065D01*
X-18681077Y38563080D01*
X-18680315Y38565677D01*
X-18663681Y38586319D01*
X-18636319Y38613681D01*
X-18574996Y38647166D01*
X-18548638Y38650000D01*
X-15824665Y38650000D01*
X-15777212Y38640561D01*
G37*
%TD.AperFunction*%
%TD*%
%TA.AperFunction,Conductor*%
%TO.N,PGND*%
G36*
X-100000Y8988242D02*
G01*
X-119685Y8921203D01*
X-172489Y8875448D01*
X-241647Y8865504D01*
X-305203Y8894529D01*
X-311681Y8900561D01*
X-371632Y8960512D01*
X-371635Y8960515D01*
X-502865Y9036281D01*
X-619309Y9067481D01*
X-678969Y9103846D01*
X-709498Y9166693D01*
X-701203Y9236068D01*
X-691285Y9253015D01*
X-691585Y9253189D01*
X-636113Y9349269D01*
X-636112Y9349272D01*
X-609500Y9448590D01*
X-609500Y9551409D01*
X-622324Y9599272D01*
X-636112Y9650728D01*
X-667545Y9705172D01*
X-687519Y9739769D01*
X-687523Y9739774D01*
X-760225Y9812476D01*
X-760230Y9812480D01*
X-847500Y9862865D01*
X-855783Y9871552D01*
X-866703Y9876539D01*
X-879448Y9896370D01*
X-895715Y9913431D01*
X-898931Y9926687D01*
X-904477Y9935317D01*
X-909500Y9970252D01*
X-909500Y10135500D01*
X-889815Y10202539D01*
X-837011Y10248294D01*
X-785502Y10259500D01*
X-741092Y10259500D01*
X-741091Y10259500D01*
X-741088Y10259501D01*
X-725248Y10262651D01*
X-714687Y10264751D01*
X-714685Y10264752D01*
X-684752Y10284752D01*
X-664750Y10314688D01*
X-659500Y10341084D01*
X-659500Y11908908D01*
X-664751Y11935312D01*
X-664752Y11935314D01*
X-684752Y11965247D01*
X-714688Y11985249D01*
X-723407Y11986983D01*
X-741087Y11990500D01*
X-1758912Y11990499D01*
X-1785311Y11985249D01*
X-1815247Y11965247D01*
X-1835249Y11935311D01*
X-1840500Y11908913D01*
X-1840499Y10341088D01*
X-1835249Y10314689D01*
X-1835248Y10314688D01*
X-1835248Y10314687D01*
X-1835247Y10314685D01*
X-1815247Y10284752D01*
X-1785311Y10264750D01*
X-1758915Y10259500D01*
X-1758913Y10259500D01*
X-1714500Y10259500D01*
X-1647461Y10239815D01*
X-1601706Y10187011D01*
X-1590500Y10135500D01*
X-1590500Y9794828D01*
X-1590500Y9705172D01*
X-1567295Y9618572D01*
X-1532764Y9558762D01*
X-1522468Y9540928D01*
X-1399489Y9417949D01*
X-1367394Y9362358D01*
X-1363888Y9349272D01*
X-1344390Y9315500D01*
X-1312480Y9260230D01*
X-1312476Y9260225D01*
X-1239774Y9187523D01*
X-1239769Y9187519D01*
X-1150728Y9136112D01*
X-1146848Y9134505D01*
X-1144076Y9132271D01*
X-1143689Y9132048D01*
X-1143723Y9131987D01*
X-1092443Y9090665D01*
X-1070377Y9024372D01*
X-1087655Y8956672D01*
X-1106610Y8932269D01*
X-1185515Y8853365D01*
X-1261281Y8722135D01*
X-1300500Y8575766D01*
X-1300500Y8424234D01*
X-1261281Y8277865D01*
X-1185515Y8146635D01*
X-1185512Y8146632D01*
X-1106617Y8067737D01*
X-1073132Y8006414D01*
X-1078116Y7936722D01*
X-1119988Y7880789D01*
X-1146856Y7865490D01*
X-1150709Y7863892D01*
X-1150728Y7863888D01*
X-1239773Y7812478D01*
X-1312478Y7739773D01*
X-1363888Y7650728D01*
X-1367393Y7637644D01*
X-1399487Y7582052D01*
X-1459072Y7522468D01*
X-1522468Y7459072D01*
X-1567295Y7381428D01*
X-1590500Y7294828D01*
X-1590500Y7294826D01*
X-1590500Y6864499D01*
X-1610185Y6797460D01*
X-1662989Y6751705D01*
X-1714500Y6740499D01*
X-1758912Y6740499D01*
X-1785311Y6735249D01*
X-1815247Y6715247D01*
X-1835249Y6685311D01*
X-1840500Y6658913D01*
X-1840499Y5091088D01*
X-1835249Y5064689D01*
X-1835248Y5064688D01*
X-1835248Y5064687D01*
X-1835247Y5064685D01*
X-1815247Y5034752D01*
X-1785311Y5014750D01*
X-1758915Y5009500D01*
X-1758913Y5009500D01*
X-741091Y5009500D01*
X-741088Y5009501D01*
X-725248Y5012651D01*
X-714687Y5014751D01*
X-714685Y5014752D01*
X-684752Y5034752D01*
X-664750Y5064688D01*
X-659500Y5091084D01*
X-659500Y6658908D01*
X-664751Y6685312D01*
X-664752Y6685314D01*
X-684752Y6715247D01*
X-714688Y6735249D01*
X-726116Y6737522D01*
X-741087Y6740500D01*
X-785500Y6740499D01*
X-794185Y6743049D01*
X-803147Y6741761D01*
X-827183Y6752738D01*
X-852537Y6760182D01*
X-858466Y6767024D01*
X-866703Y6770786D01*
X-880989Y6793016D01*
X-898293Y6812985D01*
X-900580Y6823501D01*
X-904477Y6829564D01*
X-909500Y6864499D01*
X-909500Y7029747D01*
X-889815Y7096786D01*
X-847500Y7137134D01*
X-760230Y7187519D01*
X-760225Y7187523D01*
X-687523Y7260225D01*
X-687519Y7260230D01*
X-636113Y7349269D01*
X-636112Y7349272D01*
X-609500Y7448590D01*
X-609500Y7551409D01*
X-624005Y7605545D01*
X-636112Y7650728D01*
X-658360Y7689263D01*
X-691585Y7746811D01*
X-689704Y7747896D01*
X-710785Y7802428D01*
X-696745Y7870873D01*
X-647930Y7920862D01*
X-619309Y7932518D01*
X-574863Y7944427D01*
X-502865Y7963719D01*
X-371635Y8039485D01*
X-371632Y8039487D01*
X-311681Y8099439D01*
X-250358Y8132924D01*
X-180666Y8127940D01*
X-124733Y8086068D01*
X-100316Y8020604D01*
X-100000Y8011758D01*
X-100000Y2603089D01*
X-100154Y2596913D01*
X-109796Y2403571D01*
X-110254Y2397454D01*
X-139451Y2105486D01*
X-141228Y2093596D01*
X-177788Y1910189D01*
X-180708Y1898521D01*
X-270143Y1602974D01*
X-275405Y1588781D01*
X-349520Y1421097D01*
X-356481Y1407637D01*
X-544792Y1092413D01*
X-553418Y1079811D01*
X-666009Y935322D01*
X-676124Y923875D01*
X-923921Y676078D01*
X-935273Y666038D01*
X-1079762Y553224D01*
X-1092260Y544642D01*
X-1407632Y355421D01*
X-1421313Y348330D01*
X-1588720Y274384D01*
X-1603179Y269046D01*
X-1898536Y180439D01*
X-1910034Y177582D01*
X-2093679Y141203D01*
X-2105393Y139461D01*
X-2397454Y110254D01*
X-2403571Y109796D01*
X-2583629Y100816D01*
X-2596913Y100154D01*
X-2603089Y100000D01*
X-39396911Y100000D01*
X-39403087Y100154D01*
X-39417617Y100878D01*
X-39596425Y109796D01*
X-39602548Y110254D01*
X-39894603Y139460D01*
X-39906323Y141204D01*
X-40089960Y177581D01*
X-40101468Y180440D01*
X-40396815Y269044D01*
X-40411285Y274387D01*
X-40578679Y348327D01*
X-40592374Y355425D01*
X-40907731Y544638D01*
X-40920245Y553230D01*
X-41064716Y666030D01*
X-41076086Y676086D01*
X-41323913Y923913D01*
X-41333969Y935283D01*
X-41446769Y1079754D01*
X-41455361Y1092268D01*
X-41644574Y1407625D01*
X-41651672Y1421320D01*
X-41725612Y1588714D01*
X-41730955Y1603185D01*
X-41819555Y1898517D01*
X-41822421Y1910053D01*
X-41858792Y2093658D01*
X-41860541Y2105414D01*
X-41889743Y2397430D01*
X-41890204Y2403592D01*
X-41899846Y2596912D01*
X-41900000Y2603089D01*
X-41900000Y18500000D01*
X-39000000Y18500000D01*
X-39000000Y18400000D01*
X-39000000Y18399999D01*
X-39000000Y8563417D01*
X-39019685Y8496378D01*
X-39072489Y8450623D01*
X-39136155Y8440014D01*
X-39141075Y8440497D01*
X-39141087Y8440500D01*
X-40858912Y8440499D01*
X-40885311Y8435249D01*
X-40915247Y8415247D01*
X-40935249Y8385311D01*
X-40940500Y8358913D01*
X-40940499Y6641088D01*
X-40935249Y6614689D01*
X-40935248Y6614687D01*
X-40935247Y6614685D01*
X-40915247Y6584752D01*
X-40885311Y6564750D01*
X-40858915Y6559500D01*
X-40858913Y6559500D01*
X-39141087Y6559500D01*
X-39136153Y6559987D01*
X-39067507Y6546968D01*
X-39016797Y6498902D01*
X-39000000Y6436584D01*
X-39000000Y5600000D01*
X-38929289Y5429289D01*
X-38929288Y5429288D01*
X-36570711Y3070711D01*
X-36400002Y3000000D01*
X-5600000Y3000000D01*
X-5599997Y3000000D01*
X-5429288Y3070711D01*
X-5429287Y3070712D01*
X-3526817Y4973181D01*
X-3465494Y5006666D01*
X-3439136Y5009500D01*
X-2441091Y5009500D01*
X-2441088Y5009501D01*
X-2425248Y5012651D01*
X-2414687Y5014751D01*
X-2414685Y5014752D01*
X-2384752Y5034752D01*
X-2364750Y5064688D01*
X-2359500Y5091084D01*
X-2359500Y6658908D01*
X-2364751Y6685312D01*
X-2379102Y6706789D01*
X-2399980Y6773466D01*
X-2400000Y6775680D01*
X-2400000Y10224319D01*
X-2380315Y10291358D01*
X-2379103Y10293208D01*
X-2364750Y10314688D01*
X-2359500Y10341084D01*
X-2359500Y11908908D01*
X-2364751Y11935312D01*
X-2379102Y11956789D01*
X-2399980Y12023466D01*
X-2400000Y12025680D01*
X-2400000Y23700000D01*
X-2400000Y23800000D01*
X-100000Y23800000D01*
X-100000Y8988242D01*
G37*
%TD.AperFunction*%
%TD*%
%TA.AperFunction,Conductor*%
%TO.N,+BATT*%
G36*
X-24584323Y41880315D02*
G01*
X-24563681Y41863681D01*
X-24536319Y41836319D01*
X-24502834Y41774996D01*
X-24500000Y41748638D01*
X-24500000Y28845758D01*
X-24501262Y28828110D01*
X-24505500Y28798635D01*
X-24505500Y26365307D01*
X-24505499Y26365294D01*
X-24502884Y26341948D01*
X-24502308Y26338535D01*
X-24502592Y26338486D01*
X-24500000Y26315348D01*
X-24500000Y25181815D01*
X-24501261Y25164177D01*
X-24505500Y25134698D01*
X-24505500Y25134694D01*
X-24505500Y24761386D01*
X-24507126Y24753209D01*
X-24506210Y24748131D01*
X-24514938Y24713936D01*
X-24561273Y24602072D01*
X-24588149Y24561850D01*
X-25111850Y24038149D01*
X-25152074Y24011272D01*
X-25202954Y23990197D01*
X-25263935Y23964939D01*
X-25311387Y23955500D01*
X-28686753Y23955500D01*
X-28696170Y23957464D01*
X-28702287Y23956477D01*
X-28736318Y23965837D01*
X-28843427Y24012544D01*
X-28884512Y24041598D01*
X-28990910Y24155595D01*
X-28991125Y24155827D01*
X-29365980Y24559518D01*
X-29390533Y24598569D01*
X-29435919Y24714143D01*
X-29444500Y24759468D01*
X-29444500Y28275334D01*
X-29446525Y28295905D01*
X-29446527Y28295916D01*
X-29447617Y28301398D01*
X-29450000Y28325587D01*
X-29450000Y28350002D01*
X-29520711Y28520711D01*
X-32711847Y31711847D01*
X-32716478Y31718778D01*
X-32720717Y31721721D01*
X-32738727Y31752074D01*
X-32785061Y31863936D01*
X-32794500Y31911386D01*
X-32794500Y41748638D01*
X-32794545Y41750300D01*
X-32793801Y41750319D01*
X-32786623Y41780440D01*
X-32779444Y41813451D01*
X-32778438Y41814794D01*
X-32778249Y41815589D01*
X-32758293Y41841706D01*
X-32736321Y41863679D01*
X-32674999Y41897166D01*
X-32648638Y41900000D01*
X-24651362Y41900000D01*
X-24584323Y41880315D01*
G37*
%TD.AperFunction*%
%TD*%
M02*
