%TF.GenerationSoftware,KiCad,Pcbnew,9.0.0*%
%TF.CreationDate,2025-08-20T08:39:56+02:00*%
%TF.ProjectId,SPARK,53504152-4b2e-46b6-9963-61645f706362,rev?*%
%TF.SameCoordinates,Original*%
%TF.FileFunction,Legend,Bot*%
%TF.FilePolarity,Positive*%
%FSLAX46Y46*%
G04 Gerber Fmt 4.6, Leading zero omitted, Abs format (unit mm)*
G04 Created by KiCad (PCBNEW 9.0.0) date 2025-08-20 08:39:56*
%MOMM*%
%LPD*%
G01*
G04 APERTURE LIST*
%ADD10C,0.100000*%
%ADD11C,0.000000*%
G04 APERTURE END LIST*
D10*
X-33911027Y5515200D02*
X-33982455Y5491390D01*
X-33982455Y5491390D02*
X-34101503Y5491390D01*
X-34101503Y5491390D02*
X-34149122Y5515200D01*
X-34149122Y5515200D02*
X-34172931Y5539009D01*
X-34172931Y5539009D02*
X-34196741Y5586628D01*
X-34196741Y5586628D02*
X-34196741Y5634247D01*
X-34196741Y5634247D02*
X-34172931Y5681866D01*
X-34172931Y5681866D02*
X-34149122Y5705676D01*
X-34149122Y5705676D02*
X-34101503Y5729485D01*
X-34101503Y5729485D02*
X-34006265Y5753295D01*
X-34006265Y5753295D02*
X-33958646Y5777104D01*
X-33958646Y5777104D02*
X-33934836Y5800914D01*
X-33934836Y5800914D02*
X-33911027Y5848533D01*
X-33911027Y5848533D02*
X-33911027Y5896152D01*
X-33911027Y5896152D02*
X-33934836Y5943771D01*
X-33934836Y5943771D02*
X-33958646Y5967580D01*
X-33958646Y5967580D02*
X-34006265Y5991390D01*
X-34006265Y5991390D02*
X-34125312Y5991390D01*
X-34125312Y5991390D02*
X-34196741Y5967580D01*
X-34363407Y5991390D02*
X-34482455Y5491390D01*
X-34482455Y5491390D02*
X-34577693Y5848533D01*
X-34577693Y5848533D02*
X-34672931Y5491390D01*
X-34672931Y5491390D02*
X-34791979Y5991390D01*
X-34982455Y5491390D02*
X-34982455Y5991390D01*
X-34982455Y5991390D02*
X-35101503Y5991390D01*
X-35101503Y5991390D02*
X-35172931Y5967580D01*
X-35172931Y5967580D02*
X-35220550Y5919961D01*
X-35220550Y5919961D02*
X-35244360Y5872342D01*
X-35244360Y5872342D02*
X-35268169Y5777104D01*
X-35268169Y5777104D02*
X-35268169Y5705676D01*
X-35268169Y5705676D02*
X-35244360Y5610438D01*
X-35244360Y5610438D02*
X-35220550Y5562819D01*
X-35220550Y5562819D02*
X-35172931Y5515200D01*
X-35172931Y5515200D02*
X-35101503Y5491390D01*
X-35101503Y5491390D02*
X-34982455Y5491390D01*
X-35482455Y5491390D02*
X-35482455Y5991390D01*
X-35815788Y5991390D02*
X-35911026Y5991390D01*
X-35911026Y5991390D02*
X-35958645Y5967580D01*
X-35958645Y5967580D02*
X-36006264Y5919961D01*
X-36006264Y5919961D02*
X-36030074Y5824723D01*
X-36030074Y5824723D02*
X-36030074Y5658057D01*
X-36030074Y5658057D02*
X-36006264Y5562819D01*
X-36006264Y5562819D02*
X-35958645Y5515200D01*
X-35958645Y5515200D02*
X-35911026Y5491390D01*
X-35911026Y5491390D02*
X-35815788Y5491390D01*
X-35815788Y5491390D02*
X-35768169Y5515200D01*
X-35768169Y5515200D02*
X-35720550Y5562819D01*
X-35720550Y5562819D02*
X-35696741Y5658057D01*
X-35696741Y5658057D02*
X-35696741Y5824723D01*
X-35696741Y5824723D02*
X-35720550Y5919961D01*
X-35720550Y5919961D02*
X-35768169Y5967580D01*
X-35768169Y5967580D02*
X-35815788Y5991390D01*
X-2365752Y14711027D02*
X-2365752Y14949122D01*
X-2508609Y14663408D02*
X-2008609Y14830074D01*
X-2008609Y14830074D02*
X-2508609Y14996741D01*
X-2508609Y15425312D02*
X-2508609Y15139598D01*
X-2508609Y15282455D02*
X-2008609Y15282455D01*
X-2008609Y15282455D02*
X-2080038Y15234836D01*
X-2080038Y15234836D02*
X-2127657Y15187217D01*
X-2127657Y15187217D02*
X-2151466Y15139598D01*
X-31236027Y5490200D02*
X-31307455Y5466390D01*
X-31307455Y5466390D02*
X-31426503Y5466390D01*
X-31426503Y5466390D02*
X-31474122Y5490200D01*
X-31474122Y5490200D02*
X-31497931Y5514009D01*
X-31497931Y5514009D02*
X-31521741Y5561628D01*
X-31521741Y5561628D02*
X-31521741Y5609247D01*
X-31521741Y5609247D02*
X-31497931Y5656866D01*
X-31497931Y5656866D02*
X-31474122Y5680676D01*
X-31474122Y5680676D02*
X-31426503Y5704485D01*
X-31426503Y5704485D02*
X-31331265Y5728295D01*
X-31331265Y5728295D02*
X-31283646Y5752104D01*
X-31283646Y5752104D02*
X-31259836Y5775914D01*
X-31259836Y5775914D02*
X-31236027Y5823533D01*
X-31236027Y5823533D02*
X-31236027Y5871152D01*
X-31236027Y5871152D02*
X-31259836Y5918771D01*
X-31259836Y5918771D02*
X-31283646Y5942580D01*
X-31283646Y5942580D02*
X-31331265Y5966390D01*
X-31331265Y5966390D02*
X-31450312Y5966390D01*
X-31450312Y5966390D02*
X-31521741Y5942580D01*
X-31688407Y5966390D02*
X-31807455Y5466390D01*
X-31807455Y5466390D02*
X-31902693Y5823533D01*
X-31902693Y5823533D02*
X-31997931Y5466390D01*
X-31997931Y5466390D02*
X-32116979Y5966390D01*
X-32593169Y5514009D02*
X-32569360Y5490200D01*
X-32569360Y5490200D02*
X-32497931Y5466390D01*
X-32497931Y5466390D02*
X-32450312Y5466390D01*
X-32450312Y5466390D02*
X-32378884Y5490200D01*
X-32378884Y5490200D02*
X-32331265Y5537819D01*
X-32331265Y5537819D02*
X-32307455Y5585438D01*
X-32307455Y5585438D02*
X-32283646Y5680676D01*
X-32283646Y5680676D02*
X-32283646Y5752104D01*
X-32283646Y5752104D02*
X-32307455Y5847342D01*
X-32307455Y5847342D02*
X-32331265Y5894961D01*
X-32331265Y5894961D02*
X-32378884Y5942580D01*
X-32378884Y5942580D02*
X-32450312Y5966390D01*
X-32450312Y5966390D02*
X-32497931Y5966390D01*
X-32497931Y5966390D02*
X-32569360Y5942580D01*
X-32569360Y5942580D02*
X-32593169Y5918771D01*
X-33045550Y5466390D02*
X-32807455Y5466390D01*
X-32807455Y5466390D02*
X-32807455Y5966390D01*
X-33212217Y5466390D02*
X-33212217Y5966390D01*
X-33497931Y5466390D02*
X-33283646Y5752104D01*
X-33497931Y5966390D02*
X-33212217Y5680676D01*
X-2246704Y22376503D02*
X-2270514Y22447931D01*
X-2270514Y22447931D02*
X-2294323Y22471741D01*
X-2294323Y22471741D02*
X-2341942Y22495550D01*
X-2341942Y22495550D02*
X-2413371Y22495550D01*
X-2413371Y22495550D02*
X-2460990Y22471741D01*
X-2460990Y22471741D02*
X-2484800Y22447931D01*
X-2484800Y22447931D02*
X-2508609Y22400312D01*
X-2508609Y22400312D02*
X-2508609Y22209836D01*
X-2508609Y22209836D02*
X-2008609Y22209836D01*
X-2008609Y22209836D02*
X-2008609Y22376503D01*
X-2008609Y22376503D02*
X-2032419Y22424122D01*
X-2032419Y22424122D02*
X-2056228Y22447931D01*
X-2056228Y22447931D02*
X-2103847Y22471741D01*
X-2103847Y22471741D02*
X-2151466Y22471741D01*
X-2151466Y22471741D02*
X-2199085Y22447931D01*
X-2199085Y22447931D02*
X-2222895Y22424122D01*
X-2222895Y22424122D02*
X-2246704Y22376503D01*
X-2246704Y22376503D02*
X-2246704Y22209836D01*
X-2508609Y22971741D02*
X-2508609Y22686027D01*
X-2508609Y22828884D02*
X-2008609Y22828884D01*
X-2008609Y22828884D02*
X-2080038Y22781265D01*
X-2080038Y22781265D02*
X-2127657Y22733646D01*
X-2127657Y22733646D02*
X-2151466Y22686027D01*
X-2246704Y19851503D02*
X-2270514Y19922931D01*
X-2270514Y19922931D02*
X-2294323Y19946741D01*
X-2294323Y19946741D02*
X-2341942Y19970550D01*
X-2341942Y19970550D02*
X-2413371Y19970550D01*
X-2413371Y19970550D02*
X-2460990Y19946741D01*
X-2460990Y19946741D02*
X-2484800Y19922931D01*
X-2484800Y19922931D02*
X-2508609Y19875312D01*
X-2508609Y19875312D02*
X-2508609Y19684836D01*
X-2508609Y19684836D02*
X-2008609Y19684836D01*
X-2008609Y19684836D02*
X-2008609Y19851503D01*
X-2008609Y19851503D02*
X-2032419Y19899122D01*
X-2032419Y19899122D02*
X-2056228Y19922931D01*
X-2056228Y19922931D02*
X-2103847Y19946741D01*
X-2103847Y19946741D02*
X-2151466Y19946741D01*
X-2151466Y19946741D02*
X-2199085Y19922931D01*
X-2199085Y19922931D02*
X-2222895Y19899122D01*
X-2222895Y19899122D02*
X-2246704Y19851503D01*
X-2246704Y19851503D02*
X-2246704Y19684836D01*
X-2056228Y20161027D02*
X-2032419Y20184836D01*
X-2032419Y20184836D02*
X-2008609Y20232455D01*
X-2008609Y20232455D02*
X-2008609Y20351503D01*
X-2008609Y20351503D02*
X-2032419Y20399122D01*
X-2032419Y20399122D02*
X-2056228Y20422931D01*
X-2056228Y20422931D02*
X-2103847Y20446741D01*
X-2103847Y20446741D02*
X-2151466Y20446741D01*
X-2151466Y20446741D02*
X-2222895Y20422931D01*
X-2222895Y20422931D02*
X-2508609Y20137217D01*
X-2508609Y20137217D02*
X-2508609Y20446741D01*
X-2365752Y17186027D02*
X-2365752Y17424122D01*
X-2508609Y17138408D02*
X-2008609Y17305074D01*
X-2008609Y17305074D02*
X-2508609Y17471741D01*
X-2056228Y17614598D02*
X-2032419Y17638407D01*
X-2032419Y17638407D02*
X-2008609Y17686026D01*
X-2008609Y17686026D02*
X-2008609Y17805074D01*
X-2008609Y17805074D02*
X-2032419Y17852693D01*
X-2032419Y17852693D02*
X-2056228Y17876502D01*
X-2056228Y17876502D02*
X-2103847Y17900312D01*
X-2103847Y17900312D02*
X-2151466Y17900312D01*
X-2151466Y17900312D02*
X-2222895Y17876502D01*
X-2222895Y17876502D02*
X-2508609Y17590788D01*
X-2508609Y17590788D02*
X-2508609Y17900312D01*
X-39387217Y5991390D02*
X-39696741Y5991390D01*
X-39696741Y5991390D02*
X-39530074Y5800914D01*
X-39530074Y5800914D02*
X-39601503Y5800914D01*
X-39601503Y5800914D02*
X-39649122Y5777104D01*
X-39649122Y5777104D02*
X-39672931Y5753295D01*
X-39672931Y5753295D02*
X-39696741Y5705676D01*
X-39696741Y5705676D02*
X-39696741Y5586628D01*
X-39696741Y5586628D02*
X-39672931Y5539009D01*
X-39672931Y5539009D02*
X-39649122Y5515200D01*
X-39649122Y5515200D02*
X-39601503Y5491390D01*
X-39601503Y5491390D02*
X-39458646Y5491390D01*
X-39458646Y5491390D02*
X-39411027Y5515200D01*
X-39411027Y5515200D02*
X-39387217Y5539009D01*
X-39839598Y5991390D02*
X-40006264Y5491390D01*
X-40006264Y5491390D02*
X-40172931Y5991390D01*
X-40291978Y5991390D02*
X-40601502Y5991390D01*
X-40601502Y5991390D02*
X-40434835Y5800914D01*
X-40434835Y5800914D02*
X-40506264Y5800914D01*
X-40506264Y5800914D02*
X-40553883Y5777104D01*
X-40553883Y5777104D02*
X-40577692Y5753295D01*
X-40577692Y5753295D02*
X-40601502Y5705676D01*
X-40601502Y5705676D02*
X-40601502Y5586628D01*
X-40601502Y5586628D02*
X-40577692Y5539009D01*
X-40577692Y5539009D02*
X-40553883Y5515200D01*
X-40553883Y5515200D02*
X-40506264Y5491390D01*
X-40506264Y5491390D02*
X-40363407Y5491390D01*
X-40363407Y5491390D02*
X-40315788Y5515200D01*
X-40315788Y5515200D02*
X-40291978Y5539009D01*
X-37046741Y5967580D02*
X-36999122Y5991390D01*
X-36999122Y5991390D02*
X-36927693Y5991390D01*
X-36927693Y5991390D02*
X-36856265Y5967580D01*
X-36856265Y5967580D02*
X-36808646Y5919961D01*
X-36808646Y5919961D02*
X-36784836Y5872342D01*
X-36784836Y5872342D02*
X-36761027Y5777104D01*
X-36761027Y5777104D02*
X-36761027Y5705676D01*
X-36761027Y5705676D02*
X-36784836Y5610438D01*
X-36784836Y5610438D02*
X-36808646Y5562819D01*
X-36808646Y5562819D02*
X-36856265Y5515200D01*
X-36856265Y5515200D02*
X-36927693Y5491390D01*
X-36927693Y5491390D02*
X-36975312Y5491390D01*
X-36975312Y5491390D02*
X-37046741Y5515200D01*
X-37046741Y5515200D02*
X-37070550Y5539009D01*
X-37070550Y5539009D02*
X-37070550Y5705676D01*
X-37070550Y5705676D02*
X-36975312Y5705676D01*
X-37284836Y5491390D02*
X-37284836Y5991390D01*
X-37284836Y5991390D02*
X-37570550Y5491390D01*
X-37570550Y5491390D02*
X-37570550Y5991390D01*
X-37808646Y5491390D02*
X-37808646Y5991390D01*
X-37808646Y5991390D02*
X-37927694Y5991390D01*
X-37927694Y5991390D02*
X-37999122Y5967580D01*
X-37999122Y5967580D02*
X-38046741Y5919961D01*
X-38046741Y5919961D02*
X-38070551Y5872342D01*
X-38070551Y5872342D02*
X-38094360Y5777104D01*
X-38094360Y5777104D02*
X-38094360Y5705676D01*
X-38094360Y5705676D02*
X-38070551Y5610438D01*
X-38070551Y5610438D02*
X-38046741Y5562819D01*
X-38046741Y5562819D02*
X-37999122Y5515200D01*
X-37999122Y5515200D02*
X-37927694Y5491390D01*
X-37927694Y5491390D02*
X-37808646Y5491390D01*
D11*
%TO.C,G\u002A\u002A\u002A*%
G36*
X-23268114Y35983151D02*
G01*
X-23199420Y35982950D01*
X-23147234Y35982310D01*
X-23108983Y35981046D01*
X-23082092Y35978974D01*
X-23063989Y35975908D01*
X-23052100Y35971664D01*
X-23043851Y35966058D01*
X-23033623Y35955029D01*
X-23013534Y35930167D01*
X-22986515Y35894931D01*
X-22954429Y35851924D01*
X-22919138Y35803746D01*
X-22882507Y35753000D01*
X-22846398Y35702288D01*
X-22812676Y35654212D01*
X-22783204Y35611373D01*
X-22759846Y35576374D01*
X-22744464Y35551816D01*
X-22738923Y35540302D01*
X-22740089Y35533574D01*
X-22751134Y35520528D01*
X-22751619Y35520386D01*
X-22766062Y35519307D01*
X-22797553Y35518408D01*
X-22843872Y35517707D01*
X-22902797Y35517225D01*
X-22972108Y35516978D01*
X-23049585Y35516988D01*
X-23133005Y35517271D01*
X-23502665Y35519116D01*
X-23521332Y35542179D01*
X-23526903Y35550103D01*
X-23531959Y35561764D01*
X-23535529Y35578556D01*
X-23537864Y35603360D01*
X-23539219Y35639058D01*
X-23539847Y35688531D01*
X-23540000Y35754660D01*
X-23539999Y35758671D01*
X-23539858Y35823422D01*
X-23539275Y35871624D01*
X-23537986Y35906111D01*
X-23535725Y35929718D01*
X-23532227Y35945282D01*
X-23527228Y35955636D01*
X-23520461Y35963616D01*
X-23515619Y35968041D01*
X-23507043Y35973332D01*
X-23494550Y35977223D01*
X-23475535Y35979927D01*
X-23447396Y35981659D01*
X-23407529Y35982632D01*
X-23353330Y35983059D01*
X-23282197Y35983154D01*
X-23268114Y35983151D01*
G37*
G36*
X-22923296Y35094122D02*
G01*
X-22825741Y35093826D01*
X-22734437Y35093244D01*
X-22651282Y35092405D01*
X-22578175Y35091340D01*
X-22517013Y35090080D01*
X-22469695Y35088656D01*
X-22438118Y35087097D01*
X-22424182Y35085434D01*
X-22420161Y35082912D01*
X-22403186Y35066245D01*
X-22377147Y35036084D01*
X-22343513Y34994237D01*
X-22303756Y34942514D01*
X-22259346Y34882723D01*
X-22232601Y34846168D01*
X-22191522Y34789980D01*
X-22160067Y34746717D01*
X-22137025Y34714515D01*
X-22121186Y34691510D01*
X-22111337Y34675838D01*
X-22106269Y34665633D01*
X-22104770Y34659033D01*
X-22105629Y34654172D01*
X-22107635Y34649186D01*
X-22108282Y34648152D01*
X-22113040Y34645520D01*
X-22123156Y34643256D01*
X-22139917Y34641332D01*
X-22164613Y34639723D01*
X-22198534Y34638401D01*
X-22242968Y34637341D01*
X-22299206Y34636516D01*
X-22368536Y34635900D01*
X-22452247Y34635467D01*
X-22551628Y34635190D01*
X-22667970Y34635043D01*
X-22802560Y34635000D01*
X-23492042Y34635000D01*
X-23516021Y34658979D01*
X-23520277Y34663301D01*
X-23527523Y34672056D01*
X-23532734Y34682771D01*
X-23536244Y34698379D01*
X-23538391Y34721806D01*
X-23539508Y34755985D01*
X-23539933Y34803842D01*
X-23540000Y34868309D01*
X-23540000Y35053659D01*
X-23514259Y35073907D01*
X-23511690Y35075888D01*
X-23505397Y35080018D01*
X-23497418Y35083474D01*
X-23486129Y35086315D01*
X-23469908Y35088601D01*
X-23447131Y35090394D01*
X-23416175Y35091752D01*
X-23375419Y35092737D01*
X-23323238Y35093407D01*
X-23258011Y35093824D01*
X-23178114Y35094048D01*
X-23081924Y35094138D01*
X-22967818Y35094154D01*
X-22923296Y35094122D01*
G37*
G36*
X-19775498Y34213283D02*
G01*
X-19631080Y34213017D01*
X-19468194Y34212620D01*
X-18497347Y34210039D01*
X-18478673Y34186976D01*
X-18473176Y34179182D01*
X-18468089Y34167556D01*
X-18464498Y34150832D01*
X-18462148Y34126123D01*
X-18460785Y34090541D01*
X-18460153Y34041197D01*
X-18460000Y33975204D01*
X-18460000Y33786495D01*
X-18485740Y33766248D01*
X-18488030Y33764475D01*
X-18492875Y33761238D01*
X-18499070Y33758403D01*
X-18507825Y33755945D01*
X-18520355Y33753835D01*
X-18537872Y33752049D01*
X-18561587Y33750559D01*
X-18592715Y33749340D01*
X-18632467Y33748363D01*
X-18682057Y33747604D01*
X-18742696Y33747036D01*
X-18815599Y33746631D01*
X-18901976Y33746365D01*
X-19003041Y33746209D01*
X-19120007Y33746138D01*
X-19254086Y33746125D01*
X-19406490Y33746144D01*
X-19467284Y33746161D01*
X-19620395Y33746283D01*
X-19755336Y33746525D01*
X-19873111Y33746902D01*
X-19974721Y33747426D01*
X-20061168Y33748113D01*
X-20133455Y33748974D01*
X-20192583Y33750023D01*
X-20239555Y33751275D01*
X-20275373Y33752742D01*
X-20301039Y33754439D01*
X-20317554Y33756378D01*
X-20325923Y33758573D01*
X-20334442Y33764528D01*
X-20342832Y33775128D01*
X-20351858Y33792663D01*
X-20362455Y33819506D01*
X-20375561Y33858030D01*
X-20392108Y33910610D01*
X-20413034Y33979618D01*
X-20430695Y34038617D01*
X-20446463Y34092286D01*
X-20457436Y34131780D01*
X-20464100Y34159532D01*
X-20466941Y34177975D01*
X-20466444Y34189544D01*
X-20463096Y34196671D01*
X-20457381Y34201789D01*
X-20457036Y34202024D01*
X-20450865Y34204239D01*
X-20439054Y34206183D01*
X-20420532Y34207867D01*
X-20394231Y34209304D01*
X-20359082Y34210505D01*
X-20314016Y34211481D01*
X-20257964Y34212245D01*
X-20189857Y34212807D01*
X-20108626Y34213181D01*
X-20013202Y34213377D01*
X-19902515Y34213407D01*
X-19775498Y34213283D01*
G37*
G36*
X-18689018Y35981776D02*
G01*
X-18632990Y35981412D01*
X-18588643Y35980734D01*
X-18554480Y35979700D01*
X-18529006Y35978269D01*
X-18510725Y35976398D01*
X-18498141Y35974047D01*
X-18489758Y35971174D01*
X-18484081Y35967735D01*
X-18479614Y35963691D01*
X-18472800Y35955675D01*
X-18467751Y35945276D01*
X-18464233Y35929667D01*
X-18461971Y35905983D01*
X-18460694Y35871357D01*
X-18460128Y35822924D01*
X-18460000Y35757820D01*
X-18460013Y35740420D01*
X-18460517Y35673086D01*
X-18462092Y35622159D01*
X-18465197Y35585080D01*
X-18470294Y35559290D01*
X-18477846Y35542230D01*
X-18488313Y35531343D01*
X-18502158Y35524069D01*
X-18507381Y35523073D01*
X-18531017Y35521280D01*
X-18570901Y35519617D01*
X-18624888Y35518130D01*
X-18690833Y35516865D01*
X-18766590Y35515866D01*
X-18850014Y35515180D01*
X-18938961Y35514850D01*
X-18973158Y35514807D01*
X-19070874Y35514809D01*
X-19151307Y35515067D01*
X-19216179Y35515635D01*
X-19267208Y35516567D01*
X-19306115Y35517919D01*
X-19334621Y35519743D01*
X-19354446Y35522095D01*
X-19367309Y35525028D01*
X-19374930Y35528596D01*
X-19385377Y35538764D01*
X-19405790Y35562862D01*
X-19433250Y35597635D01*
X-19465868Y35640464D01*
X-19501750Y35688729D01*
X-19539007Y35739810D01*
X-19575746Y35791088D01*
X-19610076Y35839943D01*
X-19640106Y35883754D01*
X-19663943Y35919902D01*
X-19679698Y35945768D01*
X-19685477Y35958731D01*
X-19685496Y35960154D01*
X-19684838Y35963980D01*
X-19681990Y35967236D01*
X-19675506Y35969976D01*
X-19663940Y35972253D01*
X-19645847Y35974120D01*
X-19619780Y35975632D01*
X-19584295Y35976843D01*
X-19537945Y35977806D01*
X-19479286Y35978575D01*
X-19406870Y35979204D01*
X-19319253Y35979747D01*
X-19214990Y35980256D01*
X-19092633Y35980788D01*
X-19059851Y35980926D01*
X-18942143Y35981401D01*
X-18842099Y35981729D01*
X-18758223Y35981867D01*
X-18689018Y35981776D01*
G37*
G36*
X-22264068Y34213149D02*
G01*
X-22142431Y34212846D01*
X-22037374Y34212282D01*
X-21949390Y34211461D01*
X-21878971Y34210386D01*
X-21826612Y34209062D01*
X-21792803Y34207492D01*
X-21778039Y34205681D01*
X-21764809Y34195826D01*
X-21740289Y34169945D01*
X-21706027Y34129004D01*
X-21662570Y34073659D01*
X-21610461Y34004564D01*
X-21586923Y33972867D01*
X-21543706Y33914600D01*
X-21510360Y33869342D01*
X-21485684Y33835248D01*
X-21468479Y33810474D01*
X-21457543Y33793174D01*
X-21451675Y33781503D01*
X-21449674Y33773616D01*
X-21450340Y33767669D01*
X-21452472Y33761815D01*
X-21452768Y33761181D01*
X-21455423Y33758669D01*
X-21461152Y33756453D01*
X-21471051Y33754517D01*
X-21486220Y33752848D01*
X-21507755Y33751430D01*
X-21536754Y33750249D01*
X-21574316Y33749291D01*
X-21621536Y33748541D01*
X-21679514Y33747986D01*
X-21749346Y33747609D01*
X-21832131Y33747398D01*
X-21928966Y33747337D01*
X-22040948Y33747412D01*
X-22169176Y33747609D01*
X-22314747Y33747913D01*
X-22478759Y33748309D01*
X-22499090Y33748361D01*
X-22660334Y33748780D01*
X-22803298Y33749188D01*
X-22929108Y33749607D01*
X-23038888Y33750060D01*
X-23133765Y33750571D01*
X-23214863Y33751161D01*
X-23283308Y33751855D01*
X-23340226Y33752674D01*
X-23386742Y33753643D01*
X-23423981Y33754783D01*
X-23453068Y33756117D01*
X-23475130Y33757669D01*
X-23491291Y33759462D01*
X-23502677Y33761518D01*
X-23510413Y33763860D01*
X-23515625Y33766512D01*
X-23519437Y33769495D01*
X-23520959Y33770895D01*
X-23527706Y33778471D01*
X-23532639Y33788560D01*
X-23536043Y33803999D01*
X-23538198Y33827626D01*
X-23539387Y33862278D01*
X-23539894Y33910793D01*
X-23540000Y33976009D01*
X-23539904Y34030478D01*
X-23539381Y34082678D01*
X-23538171Y34120570D01*
X-23536017Y34147050D01*
X-23532662Y34165014D01*
X-23527851Y34177357D01*
X-23521327Y34186976D01*
X-23502654Y34210039D01*
X-22653050Y34212690D01*
X-22555110Y34212955D01*
X-22401792Y34213187D01*
X-22264068Y34213149D01*
G37*
G36*
X-18479919Y35072774D02*
G01*
X-18479388Y35072201D01*
X-18472611Y35063564D01*
X-18467623Y35052617D01*
X-18464152Y35036489D01*
X-18461927Y35012307D01*
X-18460675Y34977202D01*
X-18460123Y34928302D01*
X-18460000Y34862735D01*
X-18460000Y34859965D01*
X-18460137Y34795059D01*
X-18460715Y34746742D01*
X-18461999Y34712174D01*
X-18464257Y34688511D01*
X-18467755Y34672912D01*
X-18472760Y34662536D01*
X-18479538Y34654539D01*
X-18481951Y34652261D01*
X-18485956Y34649425D01*
X-18491760Y34646919D01*
X-18500471Y34644721D01*
X-18513199Y34642811D01*
X-18531053Y34641169D01*
X-18555140Y34639775D01*
X-18586570Y34638609D01*
X-18626451Y34637650D01*
X-18675893Y34636878D01*
X-18736003Y34636272D01*
X-18807891Y34635813D01*
X-18892665Y34635480D01*
X-18991434Y34635254D01*
X-19105306Y34635112D01*
X-19235391Y34635037D01*
X-19382797Y34635006D01*
X-19548633Y34635000D01*
X-19633810Y34635025D01*
X-19784491Y34635195D01*
X-19926154Y34635520D01*
X-20057747Y34635990D01*
X-20178217Y34636597D01*
X-20286514Y34637333D01*
X-20381584Y34638188D01*
X-20462376Y34639154D01*
X-20527838Y34640221D01*
X-20576918Y34641382D01*
X-20608564Y34642627D01*
X-20621723Y34643948D01*
X-20626281Y34645755D01*
X-20634589Y34650240D01*
X-20642093Y34657580D01*
X-20649725Y34670033D01*
X-20658417Y34689863D01*
X-20669102Y34719331D01*
X-20682713Y34760696D01*
X-20700181Y34816220D01*
X-20722441Y34888165D01*
X-20727096Y34903263D01*
X-20744983Y34961807D01*
X-20757624Y35004921D01*
X-20765533Y35035235D01*
X-20769221Y35055381D01*
X-20769205Y35067987D01*
X-20765995Y35075686D01*
X-20760108Y35081108D01*
X-20755843Y35082809D01*
X-20745145Y35084684D01*
X-20727495Y35086351D01*
X-20701926Y35087821D01*
X-20667469Y35089105D01*
X-20623156Y35090214D01*
X-20568018Y35091159D01*
X-20501087Y35091952D01*
X-20421396Y35092603D01*
X-20327976Y35093123D01*
X-20219859Y35093524D01*
X-20096076Y35093816D01*
X-19955659Y35094011D01*
X-19797640Y35094120D01*
X-19621051Y35094154D01*
X-18499838Y35094154D01*
X-18479919Y35072774D01*
G37*
G36*
X-22523619Y36862371D02*
G01*
X-22374593Y36862262D01*
X-22243593Y36862033D01*
X-22129623Y36861671D01*
X-22031688Y36861161D01*
X-21948791Y36860491D01*
X-21879937Y36859647D01*
X-21824129Y36858615D01*
X-21780371Y36857383D01*
X-21747668Y36855936D01*
X-21725023Y36854261D01*
X-21711441Y36852345D01*
X-21705925Y36850173D01*
X-21701539Y36840022D01*
X-21692195Y36814035D01*
X-21679095Y36775615D01*
X-21663288Y36728003D01*
X-21645822Y36674442D01*
X-21627745Y36618171D01*
X-21610106Y36562433D01*
X-21593953Y36510468D01*
X-21580334Y36465517D01*
X-21570297Y36430822D01*
X-21570801Y36419575D01*
X-21583283Y36404253D01*
X-21586620Y36403501D01*
X-21607382Y36401953D01*
X-21645277Y36400535D01*
X-21698653Y36399249D01*
X-21765862Y36398096D01*
X-21845253Y36397076D01*
X-21935176Y36396191D01*
X-22033980Y36395443D01*
X-22140016Y36394832D01*
X-22251633Y36394359D01*
X-22367181Y36394026D01*
X-22485011Y36393833D01*
X-22603471Y36393783D01*
X-22720913Y36393876D01*
X-22835684Y36394113D01*
X-22946137Y36394495D01*
X-23050620Y36395024D01*
X-23147483Y36395701D01*
X-23235076Y36396526D01*
X-23311749Y36397502D01*
X-23375852Y36398628D01*
X-23425734Y36399907D01*
X-23459747Y36401340D01*
X-23476238Y36402927D01*
X-23495659Y36407994D01*
X-23511650Y36415057D01*
X-23523249Y36426292D01*
X-23531158Y36444260D01*
X-23536083Y36471521D01*
X-23538729Y36510636D01*
X-23539799Y36564167D01*
X-23540000Y36634675D01*
X-23540000Y36637404D01*
X-23539862Y36702316D01*
X-23539285Y36750636D01*
X-23538001Y36785207D01*
X-23535743Y36808872D01*
X-23532245Y36824472D01*
X-23527240Y36834849D01*
X-23520461Y36842846D01*
X-23519361Y36843927D01*
X-23515481Y36847131D01*
X-23510155Y36849941D01*
X-23502176Y36852383D01*
X-23490337Y36854482D01*
X-23473433Y36856265D01*
X-23450257Y36857758D01*
X-23419604Y36858986D01*
X-23380268Y36859975D01*
X-23331042Y36860751D01*
X-23270720Y36861339D01*
X-23198096Y36861766D01*
X-23111964Y36862058D01*
X-23011118Y36862240D01*
X-22894352Y36862338D01*
X-22760459Y36862377D01*
X-22608234Y36862385D01*
X-22523619Y36862371D01*
G37*
G36*
X-19325963Y36862383D02*
G01*
X-19182374Y36862359D01*
X-19056395Y36862290D01*
X-18946844Y36862151D01*
X-18852540Y36861917D01*
X-18772298Y36861564D01*
X-18704936Y36861068D01*
X-18649272Y36860404D01*
X-18604122Y36859548D01*
X-18568305Y36858475D01*
X-18540637Y36857161D01*
X-18519936Y36855581D01*
X-18505019Y36853712D01*
X-18494704Y36851528D01*
X-18487807Y36849005D01*
X-18483146Y36846120D01*
X-18479538Y36842846D01*
X-18479307Y36842615D01*
X-18472580Y36834581D01*
X-18467622Y36824079D01*
X-18464165Y36808265D01*
X-18461941Y36784293D01*
X-18460684Y36749319D01*
X-18460126Y36700497D01*
X-18460000Y36634982D01*
X-18460055Y36602195D01*
X-18460813Y36537205D01*
X-18462878Y36488302D01*
X-18466780Y36453066D01*
X-18473051Y36429074D01*
X-18482220Y36413905D01*
X-18494817Y36405136D01*
X-18511374Y36400345D01*
X-18521167Y36399431D01*
X-18550134Y36398295D01*
X-18595216Y36397319D01*
X-18654535Y36396502D01*
X-18726215Y36395838D01*
X-18808381Y36395324D01*
X-18899155Y36394958D01*
X-18996661Y36394735D01*
X-19099023Y36394651D01*
X-19204364Y36394704D01*
X-19310808Y36394889D01*
X-19416478Y36395203D01*
X-19519498Y36395642D01*
X-19617991Y36396203D01*
X-19710082Y36396882D01*
X-19793892Y36397675D01*
X-19867547Y36398580D01*
X-19929169Y36399592D01*
X-19976882Y36400708D01*
X-20008810Y36401923D01*
X-20023077Y36403236D01*
X-20029706Y36405545D01*
X-20042042Y36412462D01*
X-20056556Y36424536D01*
X-20074796Y36443544D01*
X-20098312Y36471263D01*
X-20128654Y36509468D01*
X-20167369Y36559936D01*
X-20216009Y36624443D01*
X-20254851Y36676452D01*
X-20295488Y36731765D01*
X-20325796Y36774435D01*
X-20346778Y36805987D01*
X-20359436Y36827946D01*
X-20364773Y36841837D01*
X-20363793Y36849185D01*
X-20361541Y36850632D01*
X-20353261Y36852732D01*
X-20338293Y36854578D01*
X-20315565Y36856184D01*
X-20284008Y36857566D01*
X-20242550Y36858738D01*
X-20190120Y36859716D01*
X-20125648Y36860514D01*
X-20048063Y36861149D01*
X-19956293Y36861634D01*
X-19849269Y36861985D01*
X-19725919Y36862217D01*
X-19585172Y36862346D01*
X-19425957Y36862385D01*
X-19325963Y36862383D01*
G37*
G36*
X-18645615Y31193526D02*
G01*
X-18645623Y31147821D01*
X-18645737Y31016278D01*
X-18645979Y30890754D01*
X-18646340Y30772599D01*
X-18646808Y30663168D01*
X-18647376Y30563810D01*
X-18648033Y30475879D01*
X-18648769Y30400726D01*
X-18649575Y30339704D01*
X-18650442Y30294164D01*
X-18651359Y30265459D01*
X-18652317Y30254940D01*
X-18653916Y30254306D01*
X-18670785Y30252567D01*
X-18703282Y30251297D01*
X-18748432Y30250552D01*
X-18803262Y30250391D01*
X-18864798Y30250869D01*
X-19070577Y30253500D01*
X-19075461Y30561231D01*
X-19080346Y30868962D01*
X-19305038Y30874796D01*
X-19375802Y30876883D01*
X-19440766Y30879558D01*
X-19491292Y30882755D01*
X-19530102Y30886698D01*
X-19559918Y30891611D01*
X-19583461Y30897718D01*
X-19587552Y30899032D01*
X-19689846Y30941668D01*
X-19780334Y30998695D01*
X-19857802Y31068811D01*
X-19921033Y31150710D01*
X-19968812Y31243087D01*
X-19999924Y31344639D01*
X-20003485Y31363394D01*
X-20011538Y31436906D01*
X-20012815Y31517019D01*
X-20012471Y31522370D01*
X-19581578Y31522370D01*
X-19578708Y31446845D01*
X-19561079Y31381545D01*
X-19529482Y31327846D01*
X-19484709Y31287124D01*
X-19427554Y31260755D01*
X-19399741Y31254294D01*
X-19357724Y31249000D01*
X-19302772Y31246014D01*
X-19231624Y31245077D01*
X-19209300Y31245156D01*
X-19160857Y31245913D01*
X-19121070Y31247343D01*
X-19093567Y31249288D01*
X-19081974Y31251590D01*
X-19080489Y31259610D01*
X-19078863Y31284963D01*
X-19077478Y31324928D01*
X-19076404Y31376815D01*
X-19075708Y31437932D01*
X-19075461Y31505590D01*
X-19075461Y31753077D01*
X-19220227Y31753077D01*
X-19270606Y31752327D01*
X-19357382Y31746046D01*
X-19427641Y31732647D01*
X-19482814Y31711239D01*
X-19524329Y31680928D01*
X-19553618Y31640822D01*
X-19572108Y31590028D01*
X-19581231Y31527653D01*
X-19581578Y31522370D01*
X-20012471Y31522370D01*
X-20007651Y31597390D01*
X-19996382Y31671677D01*
X-19979343Y31733539D01*
X-19974132Y31747150D01*
X-19926417Y31842456D01*
X-19863785Y31925206D01*
X-19786432Y31995215D01*
X-19694554Y32052304D01*
X-19588346Y32096290D01*
X-19583815Y32097777D01*
X-19567344Y32102899D01*
X-19550939Y32107139D01*
X-19532639Y32110596D01*
X-19510484Y32113372D01*
X-19482514Y32115566D01*
X-19446768Y32117279D01*
X-19401286Y32118611D01*
X-19344107Y32119661D01*
X-19273272Y32120531D01*
X-19186819Y32121320D01*
X-19082788Y32122129D01*
X-18645615Y32125411D01*
X-18645615Y31505590D01*
X-18645615Y31193526D01*
G37*
G36*
X-21852288Y31196231D02*
G01*
X-21852190Y31158836D01*
X-21851907Y31027427D01*
X-21851733Y30901860D01*
X-21851664Y30783504D01*
X-21851696Y30673729D01*
X-21851827Y30573906D01*
X-21852053Y30485403D01*
X-21852371Y30409590D01*
X-21852778Y30347837D01*
X-21853270Y30301513D01*
X-21853845Y30271988D01*
X-21854498Y30260632D01*
X-21859455Y30256763D01*
X-21874016Y30253560D01*
X-21900042Y30251461D01*
X-21939547Y30250374D01*
X-21994547Y30250206D01*
X-22067056Y30250863D01*
X-22274884Y30253500D01*
X-22279769Y30566116D01*
X-22284654Y30878731D01*
X-22373195Y30881516D01*
X-22385946Y30881885D01*
X-22425494Y30882193D01*
X-22451029Y30880200D01*
X-22466915Y30875294D01*
X-22477513Y30866862D01*
X-22482732Y30859259D01*
X-22496989Y30835469D01*
X-22518386Y30798152D01*
X-22545725Y30749443D01*
X-22577810Y30691481D01*
X-22613442Y30626403D01*
X-22651425Y30556346D01*
X-22680183Y30503268D01*
X-22716048Y30437716D01*
X-22748467Y30379183D01*
X-22776288Y30329710D01*
X-22798359Y30291342D01*
X-22813529Y30266121D01*
X-22820646Y30256092D01*
X-22827390Y30254686D01*
X-22851767Y30252812D01*
X-22890904Y30251199D01*
X-22941977Y30249932D01*
X-23002162Y30249092D01*
X-23068634Y30248765D01*
X-23133965Y30248788D01*
X-23193076Y30249080D01*
X-23236874Y30249810D01*
X-23267626Y30251140D01*
X-23287596Y30253234D01*
X-23299048Y30256252D01*
X-23304248Y30260358D01*
X-23305459Y30265712D01*
X-23305056Y30267462D01*
X-23297507Y30283749D01*
X-23281232Y30314321D01*
X-23257313Y30357277D01*
X-23226828Y30410719D01*
X-23190859Y30472746D01*
X-23150487Y30541461D01*
X-23106790Y30614962D01*
X-22908202Y30947116D01*
X-22957889Y30975884D01*
X-22966921Y30981482D01*
X-23000065Y31005609D01*
X-23037774Y31036931D01*
X-23073522Y31070126D01*
X-23124758Y31128504D01*
X-23174532Y31208678D01*
X-23209458Y31298749D01*
X-23230090Y31400224D01*
X-23236317Y31503542D01*
X-22805258Y31503542D01*
X-22798726Y31437169D01*
X-22775700Y31373028D01*
X-22763357Y31352328D01*
X-22721712Y31308186D01*
X-22666260Y31275516D01*
X-22599449Y31255943D01*
X-22595679Y31255309D01*
X-22556273Y31250484D01*
X-22509257Y31247153D01*
X-22458504Y31245297D01*
X-22407884Y31244896D01*
X-22361269Y31245932D01*
X-22322530Y31248386D01*
X-22295539Y31252239D01*
X-22284168Y31257473D01*
X-22283264Y31264870D01*
X-22282280Y31289995D01*
X-22281640Y31329803D01*
X-22281370Y31381464D01*
X-22281492Y31442149D01*
X-22282032Y31509031D01*
X-22284654Y31748193D01*
X-22460500Y31748193D01*
X-22508165Y31748117D01*
X-22559645Y31747595D01*
X-22597335Y31746287D01*
X-22624571Y31743857D01*
X-22644690Y31739972D01*
X-22661027Y31734296D01*
X-22676920Y31726495D01*
X-22686030Y31721341D01*
X-22735684Y31681048D01*
X-22772759Y31628983D01*
X-22796277Y31568647D01*
X-22805258Y31503542D01*
X-23236317Y31503542D01*
X-23236984Y31514611D01*
X-23236881Y31529047D01*
X-23226568Y31642259D01*
X-23199820Y31746100D01*
X-23157264Y31839652D01*
X-23099526Y31922000D01*
X-23027235Y31992226D01*
X-22941017Y32049414D01*
X-22841500Y32092647D01*
X-22763346Y32119163D01*
X-22309077Y32119293D01*
X-21854807Y32119423D01*
X-21852793Y31381464D01*
X-21852288Y31196231D01*
G37*
G36*
X-24732758Y32124300D02*
G01*
X-24666615Y32124163D01*
X-24616328Y32123691D01*
X-24579440Y32122679D01*
X-24553498Y32120922D01*
X-24536047Y32118213D01*
X-24524633Y32114348D01*
X-24516802Y32109122D01*
X-24510098Y32102327D01*
X-24502605Y32093050D01*
X-24483521Y32067262D01*
X-24455516Y32028117D01*
X-24419750Y31977287D01*
X-24377380Y31916443D01*
X-24329564Y31847258D01*
X-24277462Y31771403D01*
X-24222232Y31690551D01*
X-24165032Y31606374D01*
X-24107020Y31520543D01*
X-24090307Y31495941D01*
X-24056382Y31447254D01*
X-24026562Y31406117D01*
X-24002503Y31374725D01*
X-23985862Y31355272D01*
X-23978293Y31349953D01*
X-23977852Y31350929D01*
X-23975969Y31366492D01*
X-23974123Y31398931D01*
X-23972372Y31446089D01*
X-23970777Y31505811D01*
X-23969396Y31575940D01*
X-23968291Y31654320D01*
X-23967520Y31738795D01*
X-23964961Y32119423D01*
X-23750038Y32119423D01*
X-23535115Y32119423D01*
X-23532596Y31196231D01*
X-23532497Y31158836D01*
X-23532215Y31027426D01*
X-23532041Y30901859D01*
X-23531971Y30783504D01*
X-23532004Y30673730D01*
X-23532135Y30573906D01*
X-23532360Y30485404D01*
X-23532678Y30409591D01*
X-23533085Y30347839D01*
X-23533577Y30301516D01*
X-23534151Y30271992D01*
X-23534805Y30260636D01*
X-23540472Y30256526D01*
X-23555744Y30253429D01*
X-23582563Y30251404D01*
X-23622923Y30250362D01*
X-23678820Y30250213D01*
X-23752247Y30250867D01*
X-23964961Y30253500D01*
X-23969846Y30538473D01*
X-23974730Y30823446D01*
X-24038230Y30891428D01*
X-24054505Y30908708D01*
X-24079842Y30934975D01*
X-24098266Y30953235D01*
X-24106615Y30960307D01*
X-24106986Y30960074D01*
X-24114827Y30949478D01*
X-24131638Y30924412D01*
X-24156265Y30886666D01*
X-24187557Y30838030D01*
X-24224359Y30780294D01*
X-24265520Y30715247D01*
X-24309886Y30644681D01*
X-24313550Y30638835D01*
X-24359030Y30566458D01*
X-24402236Y30498003D01*
X-24441822Y30435581D01*
X-24476445Y30381299D01*
X-24504759Y30337267D01*
X-24525419Y30305593D01*
X-24537081Y30288387D01*
X-24565891Y30248616D01*
X-24814946Y30248616D01*
X-24847033Y30248634D01*
X-24917277Y30248889D01*
X-24970916Y30249543D01*
X-25010062Y30250717D01*
X-25036830Y30252534D01*
X-25053333Y30255118D01*
X-25061685Y30258590D01*
X-25064000Y30263073D01*
X-25063383Y30265130D01*
X-25054840Y30281434D01*
X-25037138Y30311650D01*
X-25011409Y30353949D01*
X-24978782Y30406504D01*
X-24940390Y30467489D01*
X-24897363Y30535077D01*
X-24850832Y30607439D01*
X-24803988Y30679955D01*
X-24729508Y30795349D01*
X-24664798Y30895755D01*
X-24609295Y30982061D01*
X-24562435Y31055153D01*
X-24523655Y31115919D01*
X-24492390Y31165246D01*
X-24468078Y31204020D01*
X-24450154Y31233129D01*
X-24438056Y31253461D01*
X-24431219Y31265901D01*
X-24429081Y31271338D01*
X-24429715Y31272739D01*
X-24438808Y31286963D01*
X-24457865Y31315045D01*
X-24485823Y31355468D01*
X-24521619Y31406713D01*
X-24564191Y31467264D01*
X-24612476Y31535603D01*
X-24665413Y31610214D01*
X-24721938Y31689577D01*
X-24740789Y31716021D01*
X-24796302Y31794186D01*
X-24847876Y31867237D01*
X-24894445Y31933636D01*
X-24934944Y31991849D01*
X-24968308Y32040338D01*
X-24993472Y32077566D01*
X-25009368Y32101998D01*
X-25014933Y32112096D01*
X-25014343Y32113738D01*
X-25006472Y32117344D01*
X-24988024Y32120092D01*
X-24957206Y32122072D01*
X-24912228Y32123374D01*
X-24851298Y32124090D01*
X-24772626Y32124308D01*
X-24732758Y32124300D01*
G37*
G36*
X-20128797Y30963873D02*
G01*
X-20091029Y30849889D01*
X-20055361Y30741822D01*
X-20022254Y30641070D01*
X-19992171Y30549034D01*
X-19965575Y30467112D01*
X-19942929Y30396702D01*
X-19924695Y30339204D01*
X-19911337Y30296016D01*
X-19903315Y30268539D01*
X-19901095Y30258169D01*
X-19901335Y30257904D01*
X-19913946Y30255155D01*
X-19942302Y30252873D01*
X-19982926Y30251074D01*
X-20032337Y30249775D01*
X-20087056Y30248993D01*
X-20143603Y30248744D01*
X-20198500Y30249046D01*
X-20248266Y30249915D01*
X-20289423Y30251368D01*
X-20318490Y30253421D01*
X-20331989Y30256092D01*
X-20336289Y30262737D01*
X-20346351Y30285641D01*
X-20360144Y30321573D01*
X-20376440Y30367297D01*
X-20394011Y30419577D01*
X-20406738Y30457975D01*
X-20423436Y30506651D01*
X-20437873Y30546808D01*
X-20448829Y30575078D01*
X-20455083Y30588096D01*
X-20460389Y30590303D01*
X-20483092Y30593525D01*
X-20520650Y30596193D01*
X-20570197Y30598305D01*
X-20628867Y30599858D01*
X-20693795Y30600851D01*
X-20762116Y30601284D01*
X-20830965Y30601153D01*
X-20897475Y30600458D01*
X-20958783Y30599196D01*
X-21012022Y30597367D01*
X-21054327Y30594968D01*
X-21082832Y30591998D01*
X-21094673Y30588456D01*
X-21098758Y30579394D01*
X-21108411Y30553987D01*
X-21122056Y30515943D01*
X-21138522Y30468540D01*
X-21156638Y30415052D01*
X-21210700Y30253500D01*
X-21432855Y30250874D01*
X-21503738Y30250182D01*
X-21559593Y30250073D01*
X-21600481Y30250696D01*
X-21628717Y30252176D01*
X-21646617Y30254634D01*
X-21656494Y30258194D01*
X-21660663Y30262978D01*
X-21660265Y30267539D01*
X-21654877Y30289069D01*
X-21643986Y30326342D01*
X-21628150Y30377624D01*
X-21607923Y30441176D01*
X-21583861Y30515264D01*
X-21556520Y30598150D01*
X-21526453Y30688099D01*
X-21494218Y30783374D01*
X-21464872Y30869631D01*
X-21424043Y30989737D01*
X-20977276Y30989737D01*
X-20965177Y30974754D01*
X-20953048Y30969816D01*
X-20929783Y30966077D01*
X-20893484Y30963586D01*
X-20841988Y30962199D01*
X-20773134Y30961770D01*
X-20769236Y30961770D01*
X-20706578Y30962022D01*
X-20660712Y30962880D01*
X-20629036Y30964559D01*
X-20608948Y30967275D01*
X-20597846Y30971244D01*
X-20593126Y30976681D01*
X-20594506Y30988306D01*
X-20600757Y31015763D01*
X-20611129Y31056333D01*
X-20624849Y31107352D01*
X-20641142Y31166157D01*
X-20659237Y31230086D01*
X-20678358Y31296474D01*
X-20697734Y31362660D01*
X-20716590Y31425979D01*
X-20734153Y31483770D01*
X-20749649Y31533368D01*
X-20762306Y31572110D01*
X-20771349Y31597335D01*
X-20776005Y31606377D01*
X-20777357Y31604250D01*
X-20784072Y31587095D01*
X-20795457Y31554595D01*
X-20810766Y31508990D01*
X-20829255Y31452514D01*
X-20850178Y31387407D01*
X-20872789Y31315904D01*
X-20882963Y31283553D01*
X-20905292Y31213049D01*
X-20925779Y31149031D01*
X-20943632Y31093933D01*
X-20958058Y31050190D01*
X-20968265Y31020236D01*
X-20973462Y31006504D01*
X-20977276Y30989737D01*
X-21424043Y30989737D01*
X-21423707Y30990725D01*
X-21380446Y31118071D01*
X-21336491Y31247545D01*
X-21293239Y31375022D01*
X-21252092Y31496379D01*
X-21214449Y31607490D01*
X-21181710Y31704231D01*
X-21041300Y32119423D01*
X-20780150Y32119423D01*
X-20519000Y32119423D01*
X-20452057Y31924039D01*
X-20450975Y31920882D01*
X-20413073Y31809924D01*
X-20373568Y31693692D01*
X-20332924Y31573584D01*
X-20291602Y31450999D01*
X-20250066Y31327337D01*
X-20208777Y31203996D01*
X-20168200Y31082375D01*
X-20133056Y30976681D01*
X-20128797Y30963873D01*
G37*
G36*
X-17753972Y32148239D02*
G01*
X-17676594Y32146661D01*
X-17613384Y32142328D01*
X-17559708Y32134348D01*
X-17510930Y32121828D01*
X-17462417Y32103877D01*
X-17409534Y32079603D01*
X-17405365Y32077540D01*
X-17319639Y32024126D01*
X-17246986Y31956223D01*
X-17187531Y31873969D01*
X-17141394Y31777500D01*
X-17139889Y31773418D01*
X-17126204Y31721153D01*
X-17117020Y31657427D01*
X-17112797Y31589243D01*
X-17113993Y31523605D01*
X-17121069Y31467516D01*
X-17131346Y31426427D01*
X-17155135Y31364322D01*
X-17188758Y31307664D01*
X-17233584Y31255345D01*
X-17290978Y31206258D01*
X-17362308Y31159297D01*
X-17448939Y31113355D01*
X-17552240Y31067324D01*
X-17673577Y31020099D01*
X-17687164Y31015079D01*
X-17776065Y30981253D01*
X-17848176Y30951588D01*
X-17905242Y30924992D01*
X-17949011Y30900376D01*
X-17981229Y30876646D01*
X-18003644Y30852713D01*
X-18018000Y30827484D01*
X-18026046Y30799868D01*
X-18027505Y30779555D01*
X-18020425Y30736481D01*
X-18003098Y30694022D01*
X-17978497Y30660873D01*
X-17955040Y30642279D01*
X-17899936Y30614945D01*
X-17835445Y30599012D01*
X-17766158Y30594962D01*
X-17696668Y30603278D01*
X-17631564Y30624441D01*
X-17596277Y30643373D01*
X-17540561Y30686856D01*
X-17495696Y30739864D01*
X-17466024Y30797851D01*
X-17458768Y30816518D01*
X-17446889Y30840198D01*
X-17437399Y30851340D01*
X-17430828Y30851306D01*
X-17407611Y30848031D01*
X-17371608Y30841608D01*
X-17326537Y30832824D01*
X-17276118Y30822464D01*
X-17224071Y30811315D01*
X-17174114Y30800162D01*
X-17129967Y30789791D01*
X-17095350Y30780990D01*
X-17073983Y30774542D01*
X-17065761Y30771116D01*
X-17056441Y30762779D01*
X-17054151Y30747130D01*
X-17057104Y30718211D01*
X-17062171Y30688361D01*
X-17088518Y30601711D01*
X-17130119Y30517768D01*
X-17184126Y30441616D01*
X-17247689Y30378334D01*
X-17298681Y30341808D01*
X-17375138Y30299397D01*
X-17458487Y30264240D01*
X-17541692Y30239655D01*
X-17578600Y30232734D01*
X-17652397Y30224309D01*
X-17734059Y30220217D01*
X-17816875Y30220538D01*
X-17894135Y30225352D01*
X-17959129Y30234736D01*
X-18001241Y30244470D01*
X-18108321Y30279711D01*
X-18203246Y30327002D01*
X-18284639Y30385418D01*
X-18351121Y30454034D01*
X-18401315Y30531923D01*
X-18411860Y30553472D01*
X-18435092Y30610083D01*
X-18449895Y30665856D01*
X-18457715Y30727439D01*
X-18460000Y30801480D01*
X-18459845Y30819757D01*
X-18453166Y30910484D01*
X-18435498Y30988331D01*
X-18405295Y31056999D01*
X-18361007Y31120190D01*
X-18301089Y31181606D01*
X-18269387Y31207853D01*
X-18229956Y31235029D01*
X-18182539Y31262487D01*
X-18124992Y31291297D01*
X-18055168Y31322529D01*
X-17970924Y31357252D01*
X-17870115Y31396536D01*
X-17861000Y31400018D01*
X-17786466Y31428690D01*
X-17727717Y31451868D01*
X-17682446Y31470667D01*
X-17648346Y31486201D01*
X-17623108Y31499588D01*
X-17604427Y31511941D01*
X-17589994Y31524378D01*
X-17577502Y31538013D01*
X-17575303Y31540674D01*
X-17550888Y31583231D01*
X-17545564Y31628178D01*
X-17559099Y31677266D01*
X-17561261Y31681976D01*
X-17593532Y31728152D01*
X-17640084Y31761047D01*
X-17700947Y31780676D01*
X-17776154Y31787056D01*
X-17818109Y31785169D01*
X-17857944Y31780409D01*
X-17886895Y31773810D01*
X-17926580Y31754551D01*
X-17973880Y31714939D01*
X-18010822Y31663413D01*
X-18033838Y31604096D01*
X-18041601Y31585611D01*
X-18052320Y31577238D01*
X-18053315Y31577264D01*
X-18071702Y31579831D01*
X-18103991Y31585995D01*
X-18146515Y31594905D01*
X-18195605Y31605713D01*
X-18247591Y31617571D01*
X-18298806Y31629629D01*
X-18345580Y31641040D01*
X-18384244Y31650953D01*
X-18411131Y31658521D01*
X-18422571Y31662895D01*
X-18425615Y31673253D01*
X-18423905Y31699225D01*
X-18416920Y31735283D01*
X-18405756Y31776900D01*
X-18391505Y31819548D01*
X-18375261Y31858700D01*
X-18365393Y31877700D01*
X-18324832Y31935742D01*
X-18271705Y31991573D01*
X-18210920Y32040475D01*
X-18147384Y32077731D01*
X-18098003Y32099598D01*
X-18042118Y32119665D01*
X-17985731Y32133694D01*
X-17924125Y32142559D01*
X-17852582Y32147134D01*
X-17766384Y32148291D01*
X-17753972Y32148239D01*
G37*
G36*
X-21855328Y38387754D02*
G01*
X-21853539Y38386857D01*
X-21851737Y38386385D01*
X-21850483Y38386248D01*
X-21845210Y38383708D01*
X-21837402Y38377214D01*
X-21826295Y38365791D01*
X-21811127Y38348465D01*
X-21791134Y38324261D01*
X-21765551Y38292203D01*
X-21733617Y38251318D01*
X-21694567Y38200630D01*
X-21647637Y38139165D01*
X-21592066Y38065948D01*
X-21527088Y37980005D01*
X-21451941Y37880360D01*
X-21365861Y37766039D01*
X-21307239Y37688153D01*
X-21228623Y37583729D01*
X-21147976Y37476637D01*
X-21067267Y37369487D01*
X-20988463Y37264891D01*
X-20913532Y37165462D01*
X-20844443Y37073811D01*
X-20783163Y36992551D01*
X-20731660Y36924293D01*
X-20609882Y36762950D01*
X-20472627Y36581081D01*
X-20346379Y36413762D01*
X-20230710Y36260429D01*
X-20125195Y36120515D01*
X-20029409Y35993451D01*
X-19942925Y35878672D01*
X-19865318Y35775612D01*
X-19796163Y35683702D01*
X-19735032Y35602376D01*
X-19681502Y35531068D01*
X-19635145Y35469211D01*
X-19595537Y35416238D01*
X-19562251Y35371581D01*
X-19534861Y35334675D01*
X-19512943Y35304953D01*
X-19496070Y35281847D01*
X-19483817Y35264791D01*
X-19475757Y35253219D01*
X-19471465Y35246562D01*
X-19461234Y35227043D01*
X-19458239Y35211057D01*
X-19465334Y35197811D01*
X-19466816Y35196367D01*
X-19472055Y35193595D01*
X-19481212Y35191203D01*
X-19495589Y35189163D01*
X-19516487Y35187447D01*
X-19545209Y35186027D01*
X-19583055Y35184878D01*
X-19631328Y35183970D01*
X-19691330Y35183278D01*
X-19764361Y35182773D01*
X-19851724Y35182427D01*
X-19954720Y35182215D01*
X-20074651Y35182107D01*
X-20212819Y35182077D01*
X-20329477Y35182031D01*
X-20460326Y35181830D01*
X-20573425Y35181456D01*
X-20669771Y35180894D01*
X-20750363Y35180127D01*
X-20816198Y35179140D01*
X-20868276Y35177917D01*
X-20907593Y35176442D01*
X-20935149Y35174701D01*
X-20951942Y35172677D01*
X-20958969Y35170354D01*
X-20965481Y35160308D01*
X-20970692Y35137804D01*
X-20970682Y35136202D01*
X-20970510Y35132826D01*
X-20969917Y35128315D01*
X-20968643Y35121789D01*
X-20966429Y35112372D01*
X-20963013Y35099182D01*
X-20958136Y35081342D01*
X-20951537Y35057973D01*
X-20942958Y35028196D01*
X-20932137Y34991132D01*
X-20918814Y34945902D01*
X-20902730Y34891627D01*
X-20883625Y34827429D01*
X-20861237Y34752428D01*
X-20835308Y34665747D01*
X-20805577Y34566505D01*
X-20771783Y34453824D01*
X-20733668Y34326826D01*
X-20690971Y34184631D01*
X-20643431Y34026360D01*
X-20590789Y33851135D01*
X-20532784Y33658077D01*
X-20499190Y33546270D01*
X-20454948Y33399019D01*
X-20415809Y33268721D01*
X-20381469Y33154331D01*
X-20351624Y33054806D01*
X-20325970Y32969104D01*
X-20304202Y32896181D01*
X-20286017Y32834994D01*
X-20271110Y32784499D01*
X-20259178Y32743653D01*
X-20249915Y32711413D01*
X-20243019Y32686736D01*
X-20238185Y32668578D01*
X-20235108Y32655896D01*
X-20233485Y32647648D01*
X-20233012Y32642789D01*
X-20233384Y32640276D01*
X-20234297Y32639067D01*
X-20235447Y32638117D01*
X-20236298Y32637398D01*
X-20248354Y32637554D01*
X-20251323Y32641025D01*
X-20265103Y32658627D01*
X-20289311Y32690142D01*
X-20323150Y32734518D01*
X-20365823Y32790702D01*
X-20416532Y32857641D01*
X-20474483Y32934281D01*
X-20538877Y33019570D01*
X-20608919Y33112455D01*
X-20683812Y33211883D01*
X-20762758Y33316800D01*
X-20844962Y33426154D01*
X-20911131Y33514203D01*
X-21014485Y33651680D01*
X-21126060Y33800036D01*
X-21243765Y33956495D01*
X-21365509Y34118280D01*
X-21489203Y34282613D01*
X-21612755Y34446717D01*
X-21734076Y34607816D01*
X-21851076Y34763132D01*
X-21961663Y34909888D01*
X-22063747Y35045308D01*
X-22147402Y35156311D01*
X-22229866Y35265852D01*
X-22308469Y35370379D01*
X-22382420Y35468837D01*
X-22450926Y35560165D01*
X-22513197Y35643308D01*
X-22568441Y35717207D01*
X-22615866Y35780805D01*
X-22654680Y35833043D01*
X-22684093Y35872863D01*
X-22703313Y35899209D01*
X-22711548Y35911021D01*
X-22723686Y35941933D01*
X-22718713Y35964186D01*
X-22696728Y35977174D01*
X-22696253Y35977272D01*
X-22681297Y35978184D01*
X-22648523Y35979053D01*
X-22599489Y35979866D01*
X-22535750Y35980613D01*
X-22458864Y35981281D01*
X-22370388Y35981858D01*
X-22271878Y35982333D01*
X-22164892Y35982693D01*
X-22050985Y35982926D01*
X-21931715Y35983021D01*
X-21872757Y35983025D01*
X-21738895Y35983010D01*
X-21622829Y35983042D01*
X-21523316Y35983227D01*
X-21439114Y35983669D01*
X-21368979Y35984473D01*
X-21311668Y35985743D01*
X-21265939Y35987585D01*
X-21230547Y35990102D01*
X-21204250Y35993400D01*
X-21185805Y35997583D01*
X-21173969Y36002756D01*
X-21167498Y36009024D01*
X-21165149Y36016491D01*
X-21165680Y36025262D01*
X-21167847Y36035442D01*
X-21170407Y36047135D01*
X-21172704Y36056554D01*
X-21180368Y36084507D01*
X-21192749Y36128073D01*
X-21209321Y36185450D01*
X-21229555Y36254831D01*
X-21252926Y36334411D01*
X-21278906Y36422386D01*
X-21306967Y36516951D01*
X-21336584Y36616300D01*
X-21370270Y36729039D01*
X-21431501Y36933953D01*
X-21487491Y37121328D01*
X-21538469Y37291945D01*
X-21584661Y37446584D01*
X-21626294Y37586026D01*
X-21663596Y37711053D01*
X-21696795Y37822446D01*
X-21726117Y37920985D01*
X-21751789Y38007451D01*
X-21774040Y38082626D01*
X-21793096Y38147291D01*
X-21809185Y38202226D01*
X-21822534Y38248213D01*
X-21833370Y38286033D01*
X-21841920Y38316467D01*
X-21848413Y38340295D01*
X-21853075Y38358299D01*
X-21856133Y38371260D01*
X-21857815Y38379959D01*
X-21858348Y38385177D01*
X-21857960Y38387695D01*
X-21856877Y38388293D01*
X-21855328Y38387754D01*
G37*
G36*
X-16033320Y9413806D02*
G01*
X-15809129Y9413556D01*
X-15617156Y9413083D01*
X-15454877Y9412333D01*
X-15319767Y9411254D01*
X-15209300Y9409792D01*
X-15120953Y9407895D01*
X-15052199Y9405510D01*
X-15000515Y9402583D01*
X-14963375Y9399063D01*
X-14938253Y9394895D01*
X-14922626Y9390027D01*
X-14913968Y9384406D01*
X-14903520Y9360679D01*
X-14893618Y9304107D01*
X-14886562Y9224023D01*
X-14882337Y9128004D01*
X-14880927Y9023626D01*
X-14882315Y8918467D01*
X-14886486Y8820102D01*
X-14893424Y8736109D01*
X-14903113Y8674064D01*
X-14915536Y8641544D01*
X-14925882Y8632164D01*
X-14942889Y8623640D01*
X-14969711Y8617301D01*
X-15010966Y8612829D01*
X-15071272Y8609905D01*
X-15155244Y8608211D01*
X-15267499Y8607428D01*
X-15412655Y8607238D01*
X-15878729Y8607238D01*
X-15879016Y7054912D01*
X-15879091Y6921794D01*
X-15879471Y6689062D01*
X-15880145Y6468559D01*
X-15881087Y6263094D01*
X-15882273Y6075477D01*
X-15883676Y5908518D01*
X-15885273Y5765028D01*
X-15887037Y5647816D01*
X-15888944Y5559692D01*
X-15890968Y5503466D01*
X-15893085Y5481949D01*
X-15901265Y5472502D01*
X-15935006Y5450601D01*
X-15936237Y5450220D01*
X-15966798Y5446862D01*
X-16027936Y5443810D01*
X-16113400Y5441256D01*
X-16216939Y5439392D01*
X-16332300Y5438409D01*
X-16378513Y5438262D01*
X-16497417Y5438497D01*
X-16585513Y5440040D01*
X-16647858Y5443248D01*
X-16689506Y5448475D01*
X-16715513Y5456076D01*
X-16730934Y5466407D01*
X-16736070Y5474281D01*
X-16740729Y5489043D01*
X-16744762Y5512873D01*
X-16748213Y5548142D01*
X-16751126Y5597221D01*
X-16753546Y5662480D01*
X-16755515Y5746291D01*
X-16757079Y5851024D01*
X-16758281Y5979051D01*
X-16759166Y6132742D01*
X-16759778Y6314467D01*
X-16760160Y6526598D01*
X-16760357Y6771506D01*
X-16760413Y7051562D01*
X-16760413Y8607238D01*
X-17228330Y8607238D01*
X-17310939Y8607255D01*
X-17436890Y8607524D01*
X-17532435Y8608431D01*
X-17602185Y8610363D01*
X-17650754Y8613706D01*
X-17682752Y8618848D01*
X-17702793Y8626175D01*
X-17715488Y8636073D01*
X-17725449Y8648931D01*
X-17731680Y8659568D01*
X-17741145Y8688057D01*
X-17747726Y8731852D01*
X-17751873Y8796502D01*
X-17754032Y8887555D01*
X-17754652Y9010562D01*
X-17754493Y9079050D01*
X-17753126Y9184697D01*
X-17749986Y9261286D01*
X-17744626Y9314365D01*
X-17736596Y9349484D01*
X-17725449Y9372193D01*
X-17696247Y9413885D01*
X-16319847Y9413885D01*
X-16292255Y9413885D01*
X-16033320Y9413806D01*
G37*
G36*
X-11507486Y7315412D02*
G01*
X-11451946Y7138279D01*
X-11362969Y6853942D01*
X-11284561Y6602510D01*
X-11216185Y6382175D01*
X-11157305Y6191128D01*
X-11107384Y6027561D01*
X-11065885Y5889667D01*
X-11032272Y5775638D01*
X-11006008Y5683665D01*
X-10986557Y5611940D01*
X-10973382Y5558655D01*
X-10965947Y5522003D01*
X-10963714Y5500176D01*
X-10966147Y5491364D01*
X-10977080Y5482295D01*
X-10973190Y5473415D01*
X-10969931Y5468629D01*
X-10991949Y5455687D01*
X-10993910Y5454939D01*
X-11031724Y5448597D01*
X-11098702Y5443778D01*
X-11187437Y5440463D01*
X-11290523Y5438632D01*
X-11400553Y5438266D01*
X-11510121Y5439347D01*
X-11611821Y5441856D01*
X-11698245Y5445773D01*
X-11761989Y5451079D01*
X-11795644Y5457756D01*
X-11805430Y5462238D01*
X-11820335Y5470524D01*
X-11833668Y5482749D01*
X-11847006Y5502902D01*
X-11861928Y5534972D01*
X-11880010Y5582950D01*
X-11902831Y5650824D01*
X-11931969Y5742584D01*
X-11969000Y5862220D01*
X-12015503Y6013720D01*
X-12155021Y6468578D01*
X-12806098Y6468632D01*
X-13457174Y6468686D01*
X-13531629Y6229506D01*
X-13559459Y6139982D01*
X-13599953Y6009422D01*
X-13640486Y5878464D01*
X-13675449Y5765215D01*
X-13705245Y5673783D01*
X-13735144Y5591102D01*
X-13761651Y5526318D01*
X-13781291Y5488516D01*
X-13817768Y5436928D01*
X-14211774Y5436928D01*
X-14324714Y5437192D01*
X-14439787Y5438748D01*
X-14525138Y5442444D01*
X-14585146Y5449118D01*
X-14624194Y5459603D01*
X-14646662Y5474735D01*
X-14656929Y5495351D01*
X-14659379Y5522284D01*
X-14656198Y5535606D01*
X-14642919Y5582443D01*
X-14620144Y5659887D01*
X-14588781Y5764974D01*
X-14549740Y5894740D01*
X-14503931Y6046222D01*
X-14452264Y6216455D01*
X-14395648Y6402477D01*
X-14334993Y6601322D01*
X-14271208Y6810028D01*
X-14205204Y7025629D01*
X-14137889Y7245164D01*
X-14109902Y7336300D01*
X-13191334Y7336300D01*
X-13187650Y7328761D01*
X-13165483Y7322416D01*
X-13120724Y7317884D01*
X-13049643Y7314934D01*
X-12948512Y7313333D01*
X-12813601Y7312851D01*
X-12684030Y7313469D01*
X-12569321Y7315742D01*
X-12489261Y7319765D01*
X-12442335Y7325619D01*
X-12427030Y7333382D01*
X-12431383Y7353337D01*
X-12445426Y7404637D01*
X-12467638Y7481649D01*
X-12496447Y7579235D01*
X-12530280Y7692254D01*
X-12567563Y7815568D01*
X-12606723Y7944038D01*
X-12646187Y8072524D01*
X-12684383Y8195887D01*
X-12719736Y8308988D01*
X-12750675Y8406688D01*
X-12775625Y8483848D01*
X-12793014Y8535328D01*
X-12801268Y8555989D01*
X-12806651Y8548576D01*
X-12822172Y8510150D01*
X-12846049Y8442838D01*
X-12876942Y8350657D01*
X-12913511Y8237624D01*
X-12954418Y8107757D01*
X-12998321Y7965073D01*
X-13030228Y7860287D01*
X-13072076Y7723124D01*
X-13109707Y7600087D01*
X-13141785Y7495532D01*
X-13166974Y7413812D01*
X-13183935Y7359284D01*
X-13191334Y7336300D01*
X-14109902Y7336300D01*
X-14070174Y7465667D01*
X-14002968Y7684175D01*
X-13937181Y7897724D01*
X-13873722Y8103351D01*
X-13813501Y8298090D01*
X-13757427Y8478980D01*
X-13706412Y8643055D01*
X-13661362Y8787352D01*
X-13623190Y8908906D01*
X-13592804Y9004756D01*
X-13571114Y9071935D01*
X-13559029Y9107481D01*
X-13557097Y9112516D01*
X-13509621Y9197096D01*
X-13441672Y9274075D01*
X-13366132Y9328681D01*
X-13278439Y9360899D01*
X-13157284Y9384025D01*
X-13002066Y9397917D01*
X-12811594Y9402732D01*
X-12753740Y9402466D01*
X-12579185Y9395862D01*
X-12436707Y9379665D01*
X-12322811Y9352845D01*
X-12234003Y9314373D01*
X-12166789Y9263219D01*
X-12117674Y9198356D01*
X-12111792Y9184995D01*
X-12093750Y9135925D01*
X-12065878Y9055114D01*
X-12028993Y8945081D01*
X-11983911Y8808348D01*
X-11931451Y8647438D01*
X-11872429Y8464869D01*
X-11807662Y8263165D01*
X-11737967Y8044846D01*
X-11664162Y7812434D01*
X-11587062Y7568448D01*
X-11513137Y7333382D01*
X-11507486Y7315412D01*
G37*
G36*
X-20249772Y8787694D02*
G01*
X-20249630Y8596519D01*
X-20249630Y7838110D01*
X-19612426Y7838110D01*
X-18975222Y7838110D01*
X-18969922Y8599384D01*
X-18969161Y8706319D01*
X-18967794Y8876649D01*
X-18966316Y9014883D01*
X-18964543Y9124537D01*
X-18962288Y9209127D01*
X-18959365Y9272171D01*
X-18955587Y9317186D01*
X-18950768Y9347686D01*
X-18944723Y9367189D01*
X-18937265Y9379212D01*
X-18928208Y9387271D01*
X-18914757Y9394279D01*
X-18882980Y9402145D01*
X-18832280Y9407736D01*
X-18758013Y9411354D01*
X-18655533Y9413303D01*
X-18520195Y9413885D01*
X-18496973Y9413881D01*
X-18374925Y9413561D01*
X-18284137Y9412376D01*
X-18219231Y9409830D01*
X-18174825Y9405427D01*
X-18145541Y9398669D01*
X-18125998Y9389061D01*
X-18110817Y9376106D01*
X-18108403Y9373648D01*
X-18102576Y9366594D01*
X-18097436Y9356921D01*
X-18092947Y9342447D01*
X-18089072Y9320990D01*
X-18085775Y9290370D01*
X-18083019Y9248406D01*
X-18080768Y9192916D01*
X-18078985Y9121719D01*
X-18077634Y9032635D01*
X-18076678Y8923481D01*
X-18076081Y8792077D01*
X-18075806Y8636241D01*
X-18075817Y8453793D01*
X-18076077Y8242551D01*
X-18076550Y8000334D01*
X-18077199Y7724962D01*
X-18077988Y7414252D01*
X-18078099Y7371158D01*
X-18078907Y7065134D01*
X-18079688Y6794175D01*
X-18080486Y6556114D01*
X-18081350Y6348782D01*
X-18082323Y6170011D01*
X-18083454Y6017635D01*
X-18084786Y5889485D01*
X-18086367Y5783394D01*
X-18088242Y5697194D01*
X-18090457Y5628717D01*
X-18093059Y5575797D01*
X-18096092Y5536264D01*
X-18099604Y5507951D01*
X-18103640Y5488692D01*
X-18108246Y5476317D01*
X-18113468Y5468660D01*
X-18119353Y5463552D01*
X-18123314Y5461269D01*
X-18163143Y5451462D01*
X-18231581Y5443885D01*
X-18321288Y5438537D01*
X-18424924Y5435419D01*
X-18535149Y5434531D01*
X-18644623Y5435873D01*
X-18746006Y5439445D01*
X-18831958Y5445247D01*
X-18895139Y5453279D01*
X-18928208Y5463542D01*
X-18933913Y5468164D01*
X-18941931Y5478167D01*
X-18948480Y5494244D01*
X-18953743Y5519891D01*
X-18957902Y5558600D01*
X-18961140Y5613865D01*
X-18963640Y5689180D01*
X-18965585Y5788038D01*
X-18967158Y5913933D01*
X-18968540Y6070359D01*
X-18969916Y6260809D01*
X-18975209Y7031463D01*
X-19612420Y7031463D01*
X-20249630Y7031463D01*
X-20249630Y6268501D01*
X-20249706Y6112564D01*
X-20250090Y5949043D01*
X-20250920Y5816743D01*
X-20252333Y5712170D01*
X-20254465Y5631827D01*
X-20257452Y5572219D01*
X-20261431Y5529851D01*
X-20266537Y5501228D01*
X-20272907Y5482854D01*
X-20280676Y5471234D01*
X-20293137Y5460249D01*
X-20312664Y5451274D01*
X-20343542Y5444926D01*
X-20391006Y5440761D01*
X-20460286Y5438336D01*
X-20556618Y5437206D01*
X-20685233Y5436928D01*
X-20792973Y5437591D01*
X-20907813Y5440073D01*
X-20999661Y5444180D01*
X-21063679Y5449681D01*
X-21095028Y5456347D01*
X-21096714Y5457289D01*
X-21102351Y5461682D01*
X-21107341Y5469272D01*
X-21111722Y5482204D01*
X-21115534Y5502623D01*
X-21118817Y5532673D01*
X-21121610Y5574502D01*
X-21123953Y5630252D01*
X-21125885Y5702070D01*
X-21127446Y5792100D01*
X-21128675Y5902488D01*
X-21129613Y6035379D01*
X-21130297Y6192918D01*
X-21130768Y6377249D01*
X-21131066Y6590519D01*
X-21131230Y6834871D01*
X-21131299Y7112452D01*
X-21131314Y7425407D01*
X-21131313Y7515974D01*
X-21131287Y7818891D01*
X-21131196Y8087031D01*
X-21130999Y8322538D01*
X-21130657Y8527557D01*
X-21130130Y8704234D01*
X-21129379Y8854713D01*
X-21128731Y8935525D01*
X-20287148Y8935525D01*
X-20277769Y8926145D01*
X-20268389Y8935525D01*
X-20277769Y8944904D01*
X-20287148Y8935525D01*
X-21128731Y8935525D01*
X-21128365Y8981141D01*
X-21127048Y9085661D01*
X-21125388Y9170419D01*
X-21123346Y9237561D01*
X-21120882Y9289230D01*
X-21117956Y9327573D01*
X-21114531Y9354734D01*
X-21110564Y9372859D01*
X-21106018Y9384093D01*
X-21100853Y9390580D01*
X-21095028Y9394466D01*
X-21071616Y9400046D01*
X-21012911Y9405760D01*
X-20925480Y9410123D01*
X-20814129Y9412907D01*
X-20683665Y9413885D01*
X-20633495Y9413840D01*
X-20514174Y9413104D01*
X-20425615Y9411186D01*
X-20362824Y9407721D01*
X-20320805Y9402346D01*
X-20294565Y9394695D01*
X-20279109Y9384406D01*
X-20275064Y9379439D01*
X-20268353Y9364513D01*
X-20262913Y9339600D01*
X-20258616Y9301259D01*
X-20255334Y9246050D01*
X-20252937Y9170531D01*
X-20251297Y9071259D01*
X-20250285Y8944794D01*
X-20250255Y8935525D01*
X-20249772Y8787694D01*
G37*
G36*
X-26170377Y7197977D02*
G01*
X-26176705Y6956426D01*
X-26179879Y6875041D01*
X-26185686Y6742749D01*
X-26191720Y6637198D01*
X-26198754Y6551296D01*
X-26207562Y6477950D01*
X-26218916Y6410070D01*
X-26233588Y6340561D01*
X-26252353Y6262334D01*
X-26296653Y6100195D01*
X-26345294Y5961917D01*
X-26400390Y5847918D01*
X-26465827Y5751458D01*
X-26545492Y5665798D01*
X-26643268Y5584196D01*
X-26663982Y5568426D01*
X-26705251Y5537042D01*
X-26742298Y5510694D01*
X-26778602Y5488909D01*
X-26817640Y5471217D01*
X-26862890Y5457143D01*
X-26917831Y5446216D01*
X-26985939Y5437964D01*
X-27070693Y5431914D01*
X-27175571Y5427594D01*
X-27304051Y5424532D01*
X-27459610Y5422255D01*
X-27645726Y5420291D01*
X-27865878Y5418169D01*
X-27897561Y5417864D01*
X-28084776Y5416440D01*
X-28262584Y5415705D01*
X-28426970Y5415636D01*
X-28573916Y5416207D01*
X-28699410Y5417395D01*
X-28799434Y5419175D01*
X-28869975Y5421525D01*
X-28907015Y5424419D01*
X-28948206Y5433052D01*
X-29063005Y5476197D01*
X-29181905Y5549528D01*
X-29309300Y5655568D01*
X-29394203Y5742551D01*
X-29462957Y5834498D01*
X-29518980Y5938799D01*
X-29566768Y6063840D01*
X-29610816Y6218006D01*
X-29633416Y6311161D01*
X-29653106Y6404762D01*
X-29668984Y6498708D01*
X-29681356Y6597644D01*
X-29690528Y6706211D01*
X-29696806Y6829055D01*
X-29700498Y6970818D01*
X-29701908Y7136144D01*
X-29701907Y7136573D01*
X-28819912Y7136573D01*
X-28819137Y6969722D01*
X-28816685Y6831276D01*
X-28812370Y6717914D01*
X-28806003Y6626317D01*
X-28797399Y6553162D01*
X-28786370Y6495130D01*
X-28772730Y6448900D01*
X-28756292Y6411151D01*
X-28748084Y6395989D01*
X-28696999Y6326412D01*
X-28629402Y6273174D01*
X-28540199Y6233904D01*
X-28424296Y6206229D01*
X-28276600Y6187778D01*
X-28056990Y6174150D01*
X-27822260Y6173693D01*
X-27571657Y6188029D01*
X-27528898Y6192161D01*
X-27382560Y6218886D01*
X-27266972Y6263794D01*
X-27179600Y6328621D01*
X-27117911Y6415099D01*
X-27079370Y6524963D01*
X-27078844Y6527493D01*
X-27074142Y6571451D01*
X-27070119Y6647407D01*
X-27066773Y6750395D01*
X-27064105Y6875452D01*
X-27062113Y7017610D01*
X-27060799Y7171907D01*
X-27060162Y7333376D01*
X-27060202Y7497052D01*
X-27060918Y7657972D01*
X-27062311Y7811169D01*
X-27064381Y7951678D01*
X-27067126Y8074535D01*
X-27070548Y8174775D01*
X-27074646Y8247432D01*
X-27079420Y8287542D01*
X-27086685Y8316827D01*
X-27116110Y8402158D01*
X-27156679Y8472304D01*
X-27211637Y8528474D01*
X-27284231Y8571874D01*
X-27377706Y8603714D01*
X-27495307Y8625202D01*
X-27640281Y8637545D01*
X-27815874Y8641952D01*
X-28025331Y8639630D01*
X-28126228Y8636907D01*
X-28270490Y8630764D01*
X-28385228Y8621774D01*
X-28475459Y8608859D01*
X-28546201Y8590940D01*
X-28602475Y8566937D01*
X-28649296Y8535771D01*
X-28691685Y8496364D01*
X-28708614Y8478397D01*
X-28733378Y8449771D01*
X-28753783Y8420099D01*
X-28770294Y8385734D01*
X-28783374Y8343030D01*
X-28793486Y8288338D01*
X-28801096Y8218012D01*
X-28806665Y8128405D01*
X-28810659Y8015869D01*
X-28813540Y7876757D01*
X-28815773Y7707422D01*
X-28817821Y7504217D01*
X-28819197Y7335150D01*
X-28819912Y7136573D01*
X-29701907Y7136573D01*
X-29701345Y7329677D01*
X-29699114Y7556060D01*
X-29698268Y7624382D01*
X-29695819Y7801244D01*
X-29693234Y7946492D01*
X-29690278Y8064527D01*
X-29686717Y8159751D01*
X-29682317Y8236566D01*
X-29676843Y8299376D01*
X-29670061Y8352580D01*
X-29661736Y8400583D01*
X-29651634Y8447785D01*
X-29644454Y8478616D01*
X-29607080Y8625634D01*
X-29568360Y8757872D01*
X-29530604Y8867888D01*
X-29496125Y8948245D01*
X-29480092Y8975260D01*
X-29427836Y9042887D01*
X-29357103Y9119081D01*
X-29276447Y9195497D01*
X-29194421Y9263791D01*
X-29119575Y9315618D01*
X-29080986Y9337983D01*
X-29008481Y9375577D01*
X-28934502Y9406689D01*
X-28855047Y9431834D01*
X-28766119Y9451525D01*
X-28663716Y9466276D01*
X-28543839Y9476601D01*
X-28402489Y9483014D01*
X-28235666Y9486029D01*
X-28039369Y9486160D01*
X-27809600Y9483920D01*
X-27746196Y9483070D01*
X-27569201Y9480310D01*
X-27423560Y9476953D01*
X-27304592Y9472390D01*
X-27207618Y9466006D01*
X-27127957Y9457190D01*
X-27060928Y9445330D01*
X-27001852Y9429814D01*
X-26946048Y9410029D01*
X-26888836Y9385363D01*
X-26825535Y9355204D01*
X-26801276Y9342620D01*
X-26705403Y9281257D01*
X-26605688Y9202412D01*
X-26511493Y9114622D01*
X-26432183Y9026427D01*
X-26377123Y8946362D01*
X-26373466Y8939343D01*
X-26347864Y8879173D01*
X-26317904Y8794429D01*
X-26287019Y8695370D01*
X-26258641Y8592257D01*
X-26238476Y8511788D01*
X-26222155Y8440590D01*
X-26209674Y8374733D01*
X-26200212Y8307074D01*
X-26192947Y8230475D01*
X-26187055Y8137795D01*
X-26181715Y8021892D01*
X-26176103Y7875628D01*
X-26171469Y7712029D01*
X-26168627Y7456573D01*
X-26169461Y7333376D01*
X-26170377Y7197977D01*
G37*
G36*
X-21610224Y8752529D02*
G01*
X-21606415Y8647557D01*
X-21603703Y8521672D01*
X-21601905Y8372500D01*
X-21600842Y8197670D01*
X-21600330Y7994811D01*
X-21600189Y7761549D01*
X-21600238Y7495514D01*
X-21600294Y7194332D01*
X-21600301Y7049595D01*
X-21600372Y6774464D01*
X-21600558Y6533460D01*
X-21600901Y6324291D01*
X-21601445Y6144665D01*
X-21602233Y5992290D01*
X-21603309Y5864872D01*
X-21604717Y5760121D01*
X-21606499Y5675744D01*
X-21608700Y5609449D01*
X-21611363Y5558944D01*
X-21614531Y5521937D01*
X-21618247Y5496135D01*
X-21622556Y5479247D01*
X-21627500Y5468980D01*
X-21633123Y5463042D01*
X-21640295Y5458905D01*
X-21670301Y5450743D01*
X-21721732Y5444773D01*
X-21798607Y5440746D01*
X-21904944Y5438413D01*
X-22044762Y5437525D01*
X-22126428Y5437433D01*
X-22234561Y5437714D01*
X-22313521Y5438989D01*
X-22368509Y5441783D01*
X-22404727Y5446619D01*
X-22427376Y5454022D01*
X-22441659Y5464514D01*
X-22452776Y5478620D01*
X-22453823Y5480212D01*
X-22459183Y5492456D01*
X-22463839Y5512323D01*
X-22467845Y5542305D01*
X-22471252Y5584894D01*
X-22474112Y5642581D01*
X-22476479Y5717856D01*
X-22478404Y5813211D01*
X-22479940Y5931138D01*
X-22481138Y6074127D01*
X-22482052Y6244669D01*
X-22482734Y6445257D01*
X-22483236Y6678380D01*
X-22483610Y6946530D01*
X-22485242Y8372748D01*
X-22531739Y8157017D01*
X-22538560Y8125284D01*
X-22555540Y8046031D01*
X-22578897Y7936808D01*
X-22607737Y7801799D01*
X-22641167Y7645188D01*
X-22678296Y7471160D01*
X-22718228Y7283897D01*
X-22760072Y7087586D01*
X-22802935Y6886409D01*
X-22834309Y6739725D01*
X-22875052Y6551050D01*
X-22913615Y6374485D01*
X-22949207Y6213544D01*
X-22981036Y6071743D01*
X-23008312Y5952597D01*
X-23030244Y5859622D01*
X-23046042Y5796332D01*
X-23054914Y5766243D01*
X-23099352Y5684597D01*
X-23186983Y5587374D01*
X-23300302Y5512528D01*
X-23434430Y5463945D01*
X-23526644Y5446468D01*
X-23688592Y5437985D01*
X-23840898Y5457726D01*
X-23979091Y5503963D01*
X-24098701Y5574971D01*
X-24195256Y5669022D01*
X-24264284Y5784391D01*
X-24266863Y5791049D01*
X-24281124Y5838100D01*
X-24301291Y5915107D01*
X-24326073Y6016673D01*
X-24354179Y6137400D01*
X-24384316Y6271894D01*
X-24415192Y6414756D01*
X-24435122Y6508649D01*
X-24471750Y6681052D01*
X-24513031Y6875203D01*
X-24557019Y7081953D01*
X-24601769Y7292159D01*
X-24645333Y7496673D01*
X-24685766Y7686351D01*
X-24760137Y8035082D01*
X-24076513Y8035082D01*
X-24067133Y8025702D01*
X-24057754Y8035082D01*
X-24067133Y8044461D01*
X-24076513Y8035082D01*
X-24760137Y8035082D01*
X-24839431Y8406896D01*
X-24851896Y7433101D01*
X-24854181Y7246493D01*
X-24856564Y7033326D01*
X-24858727Y6820452D01*
X-24860617Y6614073D01*
X-24862181Y6420395D01*
X-24863365Y6245620D01*
X-24864116Y6095952D01*
X-24864381Y5977596D01*
X-24864418Y5917573D01*
X-24864936Y5780448D01*
X-24866263Y5674837D01*
X-24868653Y5596365D01*
X-24872357Y5540659D01*
X-24877628Y5503347D01*
X-24884718Y5480054D01*
X-24893880Y5466407D01*
X-24905246Y5460197D01*
X-24951980Y5450015D01*
X-25025355Y5442256D01*
X-25118252Y5436914D01*
X-25223552Y5433986D01*
X-25334133Y5433467D01*
X-25442876Y5435354D01*
X-25542662Y5439642D01*
X-25626370Y5446328D01*
X-25686881Y5455407D01*
X-25717075Y5466876D01*
X-25721836Y5473861D01*
X-25726361Y5487154D01*
X-25730283Y5508622D01*
X-25733633Y5540524D01*
X-25736444Y5585116D01*
X-25738747Y5644655D01*
X-25740573Y5721399D01*
X-25741956Y5817604D01*
X-25742926Y5935527D01*
X-25743515Y6077427D01*
X-25743755Y6245558D01*
X-25743678Y6442180D01*
X-25743316Y6669549D01*
X-25742701Y6929921D01*
X-25741864Y7225554D01*
X-25736705Y8954284D01*
X-25684159Y9061288D01*
X-25645542Y9128158D01*
X-25564667Y9220531D01*
X-25458972Y9293343D01*
X-25325013Y9348745D01*
X-25159345Y9388886D01*
X-25102513Y9397083D01*
X-24983137Y9405866D01*
X-24849247Y9407830D01*
X-24713739Y9403235D01*
X-24589508Y9392341D01*
X-24489452Y9375406D01*
X-24427688Y9357246D01*
X-24328360Y9308450D01*
X-24244111Y9236854D01*
X-24173049Y9139600D01*
X-24113286Y9013829D01*
X-24062933Y8856682D01*
X-24020098Y8665299D01*
X-24015485Y8639533D01*
X-24004552Y8574693D01*
X-23989364Y8482007D01*
X-23970556Y8365533D01*
X-23948763Y8229325D01*
X-23924619Y8077441D01*
X-23917919Y8035082D01*
X-23898758Y7913935D01*
X-23871817Y7742865D01*
X-23844428Y7568286D01*
X-23817228Y7394254D01*
X-23790851Y7224826D01*
X-23765932Y7064057D01*
X-23743105Y6916003D01*
X-23723004Y6784720D01*
X-23706266Y6674265D01*
X-23693524Y6588694D01*
X-23685414Y6532062D01*
X-23682569Y6508425D01*
X-23680637Y6506031D01*
X-23664181Y6517088D01*
X-23661259Y6523580D01*
X-23651305Y6562259D01*
X-23636813Y6631152D01*
X-23618656Y6725636D01*
X-23597707Y6841093D01*
X-23574839Y6972903D01*
X-23550926Y7116446D01*
X-23516486Y7327302D01*
X-23472231Y7597827D01*
X-23433186Y7835505D01*
X-23398868Y8042796D01*
X-23368795Y8222158D01*
X-23342485Y8376049D01*
X-23319455Y8506928D01*
X-23299223Y8617252D01*
X-23281305Y8709481D01*
X-23269290Y8766692D01*
X-21994238Y8766692D01*
X-21984859Y8757312D01*
X-21975479Y8766692D01*
X-21984859Y8776071D01*
X-21994238Y8766692D01*
X-23269290Y8766692D01*
X-23265220Y8786073D01*
X-23250485Y8849487D01*
X-23236617Y8902180D01*
X-23223134Y8946612D01*
X-23209553Y8985241D01*
X-23195393Y9020524D01*
X-23180169Y9054922D01*
X-23163400Y9090892D01*
X-23152485Y9113294D01*
X-23096226Y9206027D01*
X-23029081Y9277663D01*
X-22945891Y9330849D01*
X-22841496Y9368229D01*
X-22710738Y9392449D01*
X-22548455Y9406154D01*
X-22352105Y9407364D01*
X-22161176Y9386112D01*
X-21998011Y9340875D01*
X-21861862Y9271438D01*
X-21751981Y9177588D01*
X-21748531Y9173830D01*
X-21723779Y9147535D01*
X-21701938Y9124047D01*
X-21682827Y9100994D01*
X-21666263Y9076002D01*
X-21652065Y9046701D01*
X-21640053Y9010718D01*
X-21630044Y8965682D01*
X-21621857Y8909219D01*
X-21615311Y8838959D01*
X-21611058Y8766692D01*
X-21610224Y8752529D01*
G37*
G36*
X-40772374Y23984271D02*
G01*
X-40772374Y23935615D01*
X-41323953Y23937167D01*
X-41875532Y23938718D01*
X-41877308Y23985823D01*
X-41879083Y24032927D01*
X-41325728Y24032927D01*
X-40772374Y24032927D01*
X-40772374Y23984271D01*
G37*
G36*
X-40772374Y15031364D02*
G01*
X-40772374Y14982707D01*
X-41323953Y14984259D01*
X-41875532Y14985811D01*
X-41877308Y15032915D01*
X-41879083Y15080020D01*
X-41325728Y15080020D01*
X-40772374Y15080020D01*
X-40772374Y15031364D01*
G37*
G36*
X-40772374Y10776757D02*
G01*
X-40772374Y10728101D01*
X-41323953Y10729653D01*
X-41875532Y10731204D01*
X-41877308Y10778309D01*
X-41879083Y10825414D01*
X-41325728Y10825414D01*
X-40772374Y10825414D01*
X-40772374Y10776757D01*
G37*
G36*
X-40772374Y28652246D02*
G01*
X-40772374Y28603590D01*
X-41325728Y28603590D01*
X-41879083Y28603590D01*
X-41877308Y28650695D01*
X-41875532Y28697799D01*
X-41323953Y28699351D01*
X-40772374Y28700903D01*
X-40772374Y28652246D01*
G37*
G36*
X-34603195Y29335990D02*
G01*
X-34603195Y25169515D01*
X-35992020Y25169515D01*
X-37380845Y25169515D01*
X-37380845Y29335990D01*
X-37380845Y33502465D01*
X-35992020Y33502465D01*
X-34603195Y33502465D01*
X-34603195Y29335990D01*
G37*
G36*
X-34603195Y12664011D02*
G01*
X-34603195Y8497536D01*
X-35992020Y8497536D01*
X-37380845Y8497536D01*
X-37380845Y12664011D01*
X-37380845Y16830487D01*
X-35992020Y16830487D01*
X-34603195Y16830487D01*
X-34603195Y12664011D01*
G37*
G36*
X-41781323Y23431204D02*
G01*
X-41781323Y23157694D01*
X-41276848Y23157694D01*
X-40772374Y23157694D01*
X-40772374Y23109070D01*
X-40772374Y23060446D01*
X-41325473Y23060446D01*
X-41878571Y23060446D01*
X-41878571Y23378782D01*
X-41878571Y23697117D01*
X-41859578Y23700916D01*
X-41853822Y23701875D01*
X-41833226Y23703906D01*
X-41810954Y23704715D01*
X-41781323Y23704715D01*
X-41781323Y23431204D01*
G37*
G36*
X-40772374Y19143169D02*
G01*
X-40772374Y18817996D01*
X-41325473Y18817996D01*
X-41878571Y18817996D01*
X-41878571Y18866620D01*
X-41878571Y18915244D01*
X-41617217Y18915244D01*
X-41355863Y18915244D01*
X-41355863Y19149247D01*
X-41355863Y19383250D01*
X-41310278Y19383250D01*
X-41264692Y19383250D01*
X-41264692Y19149247D01*
X-41264692Y18915244D01*
X-41067157Y18915244D01*
X-40869622Y18915244D01*
X-40869622Y19191793D01*
X-40869622Y19468343D01*
X-40820998Y19468343D01*
X-40772374Y19468343D01*
X-40772374Y19143169D01*
G37*
G36*
X-41785925Y32338527D02*
G01*
X-41784362Y32046782D01*
X-41562515Y32046782D01*
X-41340668Y32046782D01*
X-41339078Y32288383D01*
X-41337489Y32529984D01*
X-41298122Y32529984D01*
X-41258754Y32529984D01*
X-41257165Y32288383D01*
X-41255575Y32046782D01*
X-41061079Y32046782D01*
X-40866583Y32046782D01*
X-40865002Y32325116D01*
X-40863421Y32603450D01*
X-40819417Y32601666D01*
X-40775413Y32599881D01*
X-40773840Y32276227D01*
X-40772267Y31952573D01*
X-41325419Y31952573D01*
X-41878571Y31952573D01*
X-41878571Y32289422D01*
X-41878571Y32626272D01*
X-41833030Y32628272D01*
X-41787488Y32630271D01*
X-41785925Y32338527D01*
G37*
G36*
X-39106999Y14697105D02*
G01*
X-39106999Y14593779D01*
X-39328847Y14593779D01*
X-39550694Y14593779D01*
X-39550694Y14371932D01*
X-39550694Y14150085D01*
X-39328847Y14150085D01*
X-39106999Y14150085D01*
X-39106999Y14046758D01*
X-39106999Y13943432D01*
X-39657059Y13943432D01*
X-40207119Y13943432D01*
X-40207119Y14046758D01*
X-40207119Y14150085D01*
X-39970077Y14150085D01*
X-39733034Y14150085D01*
X-39733034Y14371932D01*
X-39733034Y14593779D01*
X-39970077Y14593779D01*
X-40207119Y14593779D01*
X-40207119Y14697105D01*
X-40207119Y14800432D01*
X-39657059Y14800432D01*
X-39106999Y14800432D01*
X-39106999Y14697105D01*
G37*
G36*
X-39106999Y10138599D02*
G01*
X-39106999Y10035272D01*
X-39328847Y10035272D01*
X-39550694Y10035272D01*
X-39550694Y9813425D01*
X-39550694Y9591578D01*
X-39328847Y9591578D01*
X-39106999Y9591578D01*
X-39106999Y9488252D01*
X-39106999Y9384925D01*
X-39657059Y9384925D01*
X-40207119Y9384925D01*
X-40207119Y9488252D01*
X-40207119Y9591578D01*
X-39970077Y9591578D01*
X-39733034Y9591578D01*
X-39733034Y9813425D01*
X-39733034Y10035272D01*
X-39970077Y10035272D01*
X-40207119Y10035272D01*
X-40207119Y10138599D01*
X-40207119Y10241925D01*
X-39657059Y10241925D01*
X-39106999Y10241925D01*
X-39106999Y10138599D01*
G37*
G36*
X-40024779Y15514760D02*
G01*
X-40024779Y15250204D01*
X-39872828Y15250204D01*
X-39720878Y15250204D01*
X-39720878Y15465974D01*
X-39720878Y15681743D01*
X-39638825Y15681743D01*
X-39556772Y15681743D01*
X-39556772Y15465974D01*
X-39556772Y15250204D01*
X-39423056Y15250204D01*
X-39289340Y15250204D01*
X-39289340Y15502442D01*
X-39289340Y15754679D01*
X-39198169Y15754679D01*
X-39106999Y15754679D01*
X-39106999Y15402154D01*
X-39106999Y15049630D01*
X-39657107Y15049630D01*
X-40207215Y15049630D01*
X-40205647Y15412791D01*
X-40204080Y15775952D01*
X-40114429Y15777634D01*
X-40024779Y15779316D01*
X-40024779Y15514760D01*
G37*
G36*
X-39272625Y9206486D02*
G01*
X-39260471Y9205191D01*
X-39237678Y9203895D01*
X-39209161Y9203001D01*
X-39178416Y9202652D01*
X-39106999Y9202585D01*
X-39106999Y8850061D01*
X-39106999Y8497536D01*
X-39657059Y8497536D01*
X-40207119Y8497536D01*
X-40207119Y8597823D01*
X-40207119Y8698110D01*
X-39982311Y8698110D01*
X-39757504Y8698110D01*
X-39755905Y8909321D01*
X-39754307Y9120532D01*
X-39664657Y9122214D01*
X-39575006Y9123896D01*
X-39575006Y8911003D01*
X-39575006Y8698110D01*
X-39435212Y8698110D01*
X-39295418Y8698110D01*
X-39295418Y8954182D01*
X-39295418Y9210254D01*
X-39272625Y9206486D01*
G37*
G36*
X-41787401Y24750399D02*
G01*
X-41787401Y24458388D01*
X-41562515Y24458388D01*
X-41337629Y24458388D01*
X-41337629Y24701508D01*
X-41337629Y24944629D01*
X-41298122Y24944629D01*
X-41258614Y24944629D01*
X-41258614Y24701508D01*
X-41258614Y24458388D01*
X-41061079Y24458388D01*
X-40863544Y24458388D01*
X-40863544Y24737976D01*
X-40863544Y25017565D01*
X-40846158Y25017565D01*
X-40841353Y25017459D01*
X-40821959Y25016108D01*
X-40800573Y25013700D01*
X-40772374Y25009835D01*
X-40772374Y24685455D01*
X-40772374Y24361076D01*
X-41323953Y24362627D01*
X-41875532Y24364179D01*
X-41875532Y24701508D01*
X-41875532Y25038838D01*
X-41831467Y25040624D01*
X-41787401Y25042409D01*
X-41787401Y24750399D01*
G37*
G36*
X-40772374Y15691306D02*
G01*
X-40772374Y15688889D01*
X-40772390Y15610459D01*
X-40772454Y15543284D01*
X-40772588Y15486490D01*
X-40772816Y15439202D01*
X-40773162Y15400543D01*
X-40773650Y15369640D01*
X-40774303Y15345616D01*
X-40775145Y15327597D01*
X-40776199Y15314708D01*
X-40777489Y15306072D01*
X-40779038Y15300816D01*
X-40780871Y15298064D01*
X-40783010Y15296940D01*
X-40791688Y15295634D01*
X-40809742Y15294262D01*
X-40831634Y15293455D01*
X-40869622Y15292750D01*
X-40869622Y15465974D01*
X-40869622Y15639197D01*
X-41374097Y15639197D01*
X-41878571Y15639197D01*
X-41878571Y15687821D01*
X-41878571Y15736445D01*
X-41374097Y15736445D01*
X-40869622Y15736445D01*
X-40869622Y15909668D01*
X-40869622Y16082891D01*
X-40820998Y16082891D01*
X-40772374Y16082891D01*
X-40772374Y15691306D01*
G37*
G36*
X-41793404Y29705461D02*
G01*
X-41791791Y29700009D01*
X-41790461Y29690180D01*
X-41789377Y29675002D01*
X-41788501Y29653503D01*
X-41787796Y29624710D01*
X-41787225Y29587651D01*
X-41786750Y29541353D01*
X-41786334Y29484844D01*
X-41785940Y29417152D01*
X-41784362Y29123260D01*
X-41562515Y29123260D01*
X-41340668Y29123260D01*
X-41339078Y29364861D01*
X-41337489Y29606462D01*
X-41298122Y29606462D01*
X-41258754Y29606462D01*
X-41257165Y29364861D01*
X-41255575Y29123260D01*
X-41061079Y29123260D01*
X-40866583Y29123260D01*
X-40865002Y29401594D01*
X-40863421Y29679928D01*
X-40819417Y29678143D01*
X-40775413Y29676359D01*
X-40773840Y29352705D01*
X-40772267Y29029051D01*
X-41325419Y29029051D01*
X-41878571Y29029051D01*
X-41878571Y29366380D01*
X-41878571Y29703710D01*
X-41842600Y29703710D01*
X-41826696Y29704047D01*
X-41808127Y29705379D01*
X-41797074Y29707377D01*
X-41795337Y29707510D01*
X-41793404Y29705461D01*
G37*
G36*
X-39106999Y16742403D02*
G01*
X-39106999Y16654318D01*
X-39475181Y16652752D01*
X-39843363Y16651185D01*
X-39475181Y16399964D01*
X-39106999Y16148742D01*
X-39106999Y16061115D01*
X-39106999Y15973487D01*
X-39657059Y15973487D01*
X-40207119Y15973487D01*
X-40207119Y16065368D01*
X-40207119Y16157249D01*
X-39824381Y16154892D01*
X-39808588Y16154798D01*
X-39742570Y16154489D01*
X-39680628Y16154328D01*
X-39623774Y16154310D01*
X-39573017Y16154429D01*
X-39529366Y16154681D01*
X-39493832Y16155060D01*
X-39467424Y16155561D01*
X-39451151Y16156178D01*
X-39446025Y16156905D01*
X-39451568Y16161103D01*
X-39465668Y16171119D01*
X-39486575Y16185701D01*
X-39512610Y16203682D01*
X-39542096Y16223890D01*
X-39552166Y16230789D01*
X-39579202Y16249425D01*
X-39614252Y16273691D01*
X-39656022Y16302686D01*
X-39703216Y16335510D01*
X-39754542Y16371262D01*
X-39808704Y16409041D01*
X-39864407Y16447947D01*
X-39920358Y16487079D01*
X-40206931Y16687653D01*
X-40207025Y16759070D01*
X-40207119Y16830487D01*
X-39657059Y16830487D01*
X-39106999Y16830487D01*
X-39106999Y16742403D01*
G37*
G36*
X-41785930Y12591075D02*
G01*
X-41784362Y12299331D01*
X-41562515Y12299331D01*
X-41340668Y12299331D01*
X-41339078Y12540932D01*
X-41337489Y12782533D01*
X-41298052Y12782533D01*
X-41258614Y12782533D01*
X-41258614Y12539412D01*
X-41258614Y12296292D01*
X-41061079Y12296292D01*
X-40863544Y12296292D01*
X-40863544Y12576146D01*
X-40863544Y12856001D01*
X-40819478Y12854215D01*
X-40775413Y12852430D01*
X-40773833Y12533334D01*
X-40773719Y12508678D01*
X-40773519Y12448658D01*
X-40773437Y12392681D01*
X-40773470Y12341904D01*
X-40773611Y12297488D01*
X-40773857Y12260592D01*
X-40774203Y12232373D01*
X-40774643Y12213993D01*
X-40775174Y12206609D01*
X-40776318Y12205762D01*
X-40781948Y12204517D01*
X-40792791Y12203443D01*
X-40809479Y12202532D01*
X-40832643Y12201777D01*
X-40862914Y12201172D01*
X-40900923Y12200709D01*
X-40947300Y12200381D01*
X-41002678Y12200182D01*
X-41067688Y12200104D01*
X-41142959Y12200141D01*
X-41229124Y12200286D01*
X-41326814Y12200531D01*
X-41875532Y12202083D01*
X-41875532Y12539412D01*
X-41875532Y12876742D01*
X-41831516Y12879781D01*
X-41787499Y12882820D01*
X-41785930Y12591075D01*
G37*
G36*
X-40772374Y10363485D02*
G01*
X-40772374Y10320939D01*
X-41238080Y10320939D01*
X-41703785Y10320939D01*
X-41519187Y10198826D01*
X-41476441Y10170543D01*
X-41425402Y10136765D01*
X-41368050Y10098800D01*
X-41306295Y10057915D01*
X-41242050Y10015375D01*
X-41177225Y9972445D01*
X-41113732Y9930392D01*
X-41053482Y9890480D01*
X-40772374Y9704248D01*
X-40772374Y9657030D01*
X-40772374Y9609812D01*
X-41325739Y9609812D01*
X-41879104Y9609812D01*
X-41877318Y9653877D01*
X-41875532Y9697943D01*
X-41400229Y9697943D01*
X-41378616Y9697946D01*
X-41304884Y9698008D01*
X-41235124Y9698144D01*
X-41170247Y9698348D01*
X-41111161Y9698613D01*
X-41058776Y9698933D01*
X-41014001Y9699302D01*
X-40977745Y9699715D01*
X-40950917Y9700164D01*
X-40934427Y9700643D01*
X-40929184Y9701147D01*
X-40929572Y9701418D01*
X-40937289Y9706623D01*
X-40954251Y9717997D01*
X-40979748Y9735068D01*
X-41013073Y9757362D01*
X-41053516Y9784405D01*
X-41100371Y9815723D01*
X-41152927Y9850844D01*
X-41210478Y9889294D01*
X-41272313Y9930599D01*
X-41337725Y9974285D01*
X-41406006Y10019880D01*
X-41878571Y10335408D01*
X-41878571Y10370720D01*
X-41878571Y10406031D01*
X-41325473Y10406031D01*
X-40772374Y10406031D01*
X-40772374Y10363485D01*
G37*
G36*
X-40772374Y30681805D02*
G01*
X-40772374Y30638795D01*
X-41236838Y30640779D01*
X-41249117Y30640830D01*
X-41322446Y30641100D01*
X-41391933Y30641291D01*
X-41456656Y30641406D01*
X-41515690Y30641445D01*
X-41568112Y30641409D01*
X-41612997Y30641300D01*
X-41649422Y30641120D01*
X-41676463Y30640869D01*
X-41693195Y30640548D01*
X-41698696Y30640159D01*
X-41698649Y30640119D01*
X-41692675Y30636037D01*
X-41677327Y30625755D01*
X-41653322Y30609751D01*
X-41621378Y30588500D01*
X-41582212Y30562480D01*
X-41536542Y30532165D01*
X-41485087Y30498033D01*
X-41428562Y30460560D01*
X-41367686Y30420222D01*
X-41303177Y30377496D01*
X-41235751Y30332858D01*
X-40775413Y30028159D01*
X-40773595Y29986578D01*
X-40773112Y29964861D01*
X-40773586Y29946735D01*
X-40774936Y29936764D01*
X-40775452Y29936139D01*
X-40779099Y29934778D01*
X-40786701Y29933597D01*
X-40798942Y29932586D01*
X-40816505Y29931739D01*
X-40840073Y29931046D01*
X-40870330Y29930500D01*
X-40907959Y29930092D01*
X-40953643Y29929814D01*
X-41008066Y29929658D01*
X-41071911Y29929615D01*
X-41145862Y29929677D01*
X-41230602Y29929836D01*
X-41326814Y29930083D01*
X-41875532Y29931635D01*
X-41877317Y29975664D01*
X-41879102Y30019692D01*
X-41404064Y30021249D01*
X-40929025Y30022805D01*
X-41402279Y30338862D01*
X-41875532Y30654918D01*
X-41877355Y30689867D01*
X-41879178Y30724815D01*
X-41325776Y30724815D01*
X-40772374Y30724815D01*
X-40772374Y30681805D01*
G37*
G36*
X-40774058Y17060248D02*
G01*
X-40773195Y17050025D01*
X-40772597Y17031624D01*
X-40772374Y17007784D01*
X-40772374Y16954117D01*
X-41056521Y16804347D01*
X-41076859Y16793633D01*
X-41131200Y16765079D01*
X-41182581Y16738179D01*
X-41229890Y16713508D01*
X-41272015Y16691643D01*
X-41307844Y16673160D01*
X-41336266Y16658635D01*
X-41356167Y16648644D01*
X-41366437Y16643764D01*
X-41374244Y16640279D01*
X-41387145Y16633274D01*
X-41392269Y16628480D01*
X-41392255Y16628342D01*
X-41386739Y16623396D01*
X-41373170Y16615091D01*
X-41354343Y16605146D01*
X-41353180Y16604565D01*
X-41338921Y16597270D01*
X-41315290Y16585011D01*
X-41283497Y16568421D01*
X-41244749Y16548134D01*
X-41200254Y16524782D01*
X-41151219Y16498998D01*
X-41098854Y16471416D01*
X-41044365Y16442669D01*
X-40772374Y16299054D01*
X-40772374Y16242277D01*
X-40772524Y16227942D01*
X-40773427Y16206652D01*
X-40774967Y16192499D01*
X-40776932Y16187992D01*
X-40778051Y16188603D01*
X-40787963Y16194016D01*
X-40807295Y16204573D01*
X-40835150Y16219784D01*
X-40870629Y16239159D01*
X-40912836Y16262207D01*
X-40960871Y16288438D01*
X-41013838Y16317362D01*
X-41070839Y16348488D01*
X-41130976Y16381327D01*
X-41480462Y16572171D01*
X-41677997Y16575210D01*
X-41875532Y16578249D01*
X-41875532Y16626873D01*
X-41875532Y16675497D01*
X-41680365Y16677100D01*
X-41485197Y16678702D01*
X-41130919Y16870077D01*
X-41103205Y16885044D01*
X-41044003Y16916991D01*
X-40988404Y16946963D01*
X-40937293Y16974482D01*
X-40891556Y16999073D01*
X-40852080Y17020260D01*
X-40819750Y17037567D01*
X-40795454Y17050519D01*
X-40780078Y17058639D01*
X-40774507Y17061451D01*
X-40774058Y17060248D01*
G37*
G36*
X-40771251Y21158029D02*
G01*
X-41324911Y21158029D01*
X-41878571Y21158029D01*
X-41878571Y21206653D01*
X-41878571Y21255277D01*
X-41654149Y21255277D01*
X-41429726Y21255277D01*
X-41427905Y21416045D01*
X-41343707Y21416045D01*
X-41343707Y21255277D01*
X-41103214Y21255277D01*
X-40862720Y21255277D01*
X-40864795Y21433059D01*
X-40865368Y21479500D01*
X-40866027Y21521457D01*
X-40866820Y21554241D01*
X-40867866Y21579428D01*
X-40869288Y21598594D01*
X-40871205Y21613317D01*
X-40873739Y21625172D01*
X-40877009Y21635735D01*
X-40881136Y21646584D01*
X-40895352Y21675962D01*
X-40921646Y21710462D01*
X-40955656Y21736551D01*
X-40998190Y21754800D01*
X-41050060Y21765781D01*
X-41056919Y21766638D01*
X-41115616Y21769515D01*
X-41169666Y21764191D01*
X-41217891Y21751093D01*
X-41259113Y21730647D01*
X-41292156Y21703280D01*
X-41315843Y21669420D01*
X-41317068Y21666960D01*
X-41324769Y21649731D01*
X-41330864Y21631708D01*
X-41335531Y21611269D01*
X-41338950Y21586791D01*
X-41341299Y21556652D01*
X-41342755Y21519230D01*
X-41343499Y21472902D01*
X-41343707Y21416045D01*
X-41427905Y21416045D01*
X-41427609Y21442176D01*
X-41427282Y21470646D01*
X-41426680Y21517645D01*
X-41426015Y21554896D01*
X-41425159Y21583989D01*
X-41423986Y21606515D01*
X-41422369Y21624064D01*
X-41420180Y21638226D01*
X-41417293Y21650591D01*
X-41413581Y21662750D01*
X-41408916Y21676292D01*
X-41394289Y21713862D01*
X-41378381Y21744462D01*
X-41359388Y21770345D01*
X-41334989Y21795245D01*
X-41312894Y21813132D01*
X-41265776Y21839400D01*
X-41210389Y21857160D01*
X-41147100Y21866313D01*
X-41076274Y21866756D01*
X-41020994Y21861715D01*
X-40968832Y21851324D01*
X-40924850Y21835299D01*
X-40887403Y21813024D01*
X-40854844Y21783882D01*
X-40836509Y21762401D01*
X-40817689Y21733438D01*
X-40802569Y21699683D01*
X-40789238Y21657453D01*
X-40787530Y21651048D01*
X-40784480Y21638072D01*
X-40781998Y21624225D01*
X-40780005Y21608098D01*
X-40778421Y21588279D01*
X-40777167Y21563357D01*
X-40776163Y21531923D01*
X-40775329Y21492565D01*
X-40774587Y21443872D01*
X-40773856Y21384435D01*
X-40772370Y21255277D01*
X-40771251Y21158029D01*
G37*
G36*
X-40772374Y25284933D02*
G01*
X-41323953Y25286485D01*
X-41875532Y25288036D01*
X-41876475Y25382245D01*
X-41781323Y25382245D01*
X-41324945Y25382245D01*
X-40868567Y25382245D01*
X-40871020Y25569144D01*
X-40871524Y25605768D01*
X-40872291Y25652033D01*
X-40873162Y25688736D01*
X-40874243Y25717437D01*
X-40875641Y25739697D01*
X-40877464Y25757078D01*
X-40879817Y25771140D01*
X-40882809Y25783444D01*
X-40886546Y25795550D01*
X-40888412Y25801051D01*
X-40911385Y25852854D01*
X-40941701Y25896255D01*
X-40980016Y25931754D01*
X-41026989Y25959852D01*
X-41083275Y25981049D01*
X-41149533Y25995845D01*
X-41187844Y26000959D01*
X-41247958Y26005445D01*
X-41312393Y26006851D01*
X-41377909Y26005276D01*
X-41441266Y26000819D01*
X-41499225Y25993579D01*
X-41548545Y25983655D01*
X-41598867Y25967701D01*
X-41651824Y25941758D01*
X-41695277Y25908495D01*
X-41729596Y25867546D01*
X-41755151Y25818542D01*
X-41772310Y25761117D01*
X-41774711Y25747244D01*
X-41777169Y25724426D01*
X-41778993Y25694692D01*
X-41780239Y25656733D01*
X-41780962Y25609242D01*
X-41781218Y25550910D01*
X-41781323Y25382245D01*
X-41876475Y25382245D01*
X-41877297Y25464298D01*
X-41877602Y25548382D01*
X-41876544Y25621529D01*
X-41873866Y25684885D01*
X-41869312Y25739608D01*
X-41862625Y25786856D01*
X-41853548Y25827785D01*
X-41841825Y25863554D01*
X-41827198Y25895320D01*
X-41809412Y25924241D01*
X-41788209Y25951473D01*
X-41763333Y25978176D01*
X-41754944Y25986332D01*
X-41713970Y26019862D01*
X-41667987Y26047307D01*
X-41615685Y26069137D01*
X-41555751Y26085822D01*
X-41486873Y26097832D01*
X-41407739Y26105638D01*
X-41372206Y26107650D01*
X-41282795Y26108588D01*
X-41198543Y26103488D01*
X-41120628Y26092548D01*
X-41050232Y26075965D01*
X-40988534Y26053938D01*
X-40936713Y26026664D01*
X-40912265Y26008594D01*
X-40877362Y25975186D01*
X-40846351Y25936951D01*
X-40822943Y25898086D01*
X-40814699Y25880342D01*
X-40804027Y25853775D01*
X-40795238Y25826049D01*
X-40788165Y25795791D01*
X-40782641Y25761628D01*
X-40778497Y25722187D01*
X-40775567Y25676095D01*
X-40773681Y25621978D01*
X-40772673Y25558464D01*
X-40772374Y25484179D01*
X-40772374Y25382245D01*
X-40772374Y25284933D01*
G37*
G36*
X-40775133Y11971548D02*
G01*
X-40773200Y11964469D01*
X-40772896Y11949746D01*
X-40773636Y11925126D01*
X-40775413Y11874648D01*
X-41109703Y11757434D01*
X-41134572Y11748719D01*
X-41202707Y11724882D01*
X-41271851Y11700749D01*
X-41340222Y11676937D01*
X-41406038Y11654065D01*
X-41467515Y11632753D01*
X-41522873Y11613619D01*
X-41570329Y11597282D01*
X-41608100Y11584361D01*
X-41615960Y11581683D01*
X-41657854Y11567300D01*
X-41695753Y11554116D01*
X-41728152Y11542666D01*
X-41753547Y11533486D01*
X-41770431Y11527114D01*
X-41777301Y11524084D01*
X-41775782Y11521633D01*
X-41765152Y11515973D01*
X-41746705Y11508411D01*
X-41722599Y11499901D01*
X-41722444Y11499850D01*
X-41704903Y11493936D01*
X-41678028Y11484723D01*
X-41642859Y11472577D01*
X-41600438Y11457862D01*
X-41551804Y11440945D01*
X-41497999Y11422189D01*
X-41440063Y11401959D01*
X-41379036Y11380622D01*
X-41315960Y11358542D01*
X-41251874Y11336084D01*
X-41187820Y11313613D01*
X-41124838Y11291494D01*
X-41063968Y11270092D01*
X-41006252Y11249773D01*
X-40952730Y11230901D01*
X-40904442Y11213841D01*
X-40862429Y11198959D01*
X-40827732Y11186619D01*
X-40801391Y11177187D01*
X-40784447Y11171027D01*
X-40777940Y11168505D01*
X-40776967Y11167107D01*
X-40774620Y11156178D01*
X-40772986Y11137245D01*
X-40772374Y11113351D01*
X-40772497Y11088933D01*
X-40773291Y11073660D01*
X-40775391Y11066206D01*
X-40779433Y11064374D01*
X-40786049Y11065964D01*
X-40786881Y11066243D01*
X-40797134Y11069885D01*
X-40817795Y11077321D01*
X-40848047Y11088257D01*
X-40887077Y11102395D01*
X-40934070Y11119442D01*
X-40988211Y11139100D01*
X-41048686Y11161074D01*
X-41114680Y11185069D01*
X-41185378Y11210788D01*
X-41259966Y11237936D01*
X-41337629Y11266217D01*
X-41875532Y11462143D01*
X-41875532Y11519096D01*
X-41875532Y11576048D01*
X-41337629Y11772112D01*
X-41318343Y11779141D01*
X-41241358Y11807181D01*
X-41167642Y11834002D01*
X-41098010Y11859310D01*
X-41033278Y11882810D01*
X-40974260Y11904206D01*
X-40921772Y11923204D01*
X-40876628Y11939508D01*
X-40839643Y11952824D01*
X-40811632Y11962857D01*
X-40793410Y11969310D01*
X-40785792Y11971890D01*
X-40779282Y11973232D01*
X-40775133Y11971548D01*
G37*
G36*
X-40774040Y22335643D02*
G01*
X-40771239Y22112276D01*
X-41325161Y22112276D01*
X-41879083Y22112276D01*
X-41877308Y22159381D01*
X-41875532Y22206486D01*
X-41652166Y22208080D01*
X-41449678Y22209525D01*
X-41344530Y22209525D01*
X-41104037Y22209525D01*
X-40863544Y22209525D01*
X-40863544Y22372354D01*
X-40863609Y22406076D01*
X-40864137Y22457429D01*
X-40865385Y22499123D01*
X-40867575Y22532753D01*
X-40870932Y22559913D01*
X-40875679Y22582198D01*
X-40882040Y22601202D01*
X-40890240Y22618520D01*
X-40900501Y22635747D01*
X-40915575Y22655695D01*
X-40948542Y22684174D01*
X-40991182Y22705905D01*
X-40999533Y22708786D01*
X-41016004Y22712524D01*
X-41037194Y22714895D01*
X-41065577Y22716133D01*
X-41103625Y22716468D01*
X-41117952Y22716427D01*
X-41149977Y22715940D01*
X-41173720Y22714644D01*
X-41192016Y22712211D01*
X-41207697Y22708315D01*
X-41223597Y22702629D01*
X-41236110Y22697080D01*
X-41273625Y22672318D01*
X-41304565Y22639118D01*
X-41326437Y22599968D01*
X-41329813Y22591176D01*
X-41333156Y22580739D01*
X-41335760Y22569145D01*
X-41337741Y22554824D01*
X-41339218Y22536204D01*
X-41340310Y22511713D01*
X-41341134Y22479781D01*
X-41341810Y22438836D01*
X-41342455Y22387306D01*
X-41344530Y22209525D01*
X-41449678Y22209525D01*
X-41428799Y22209674D01*
X-41428799Y22373962D01*
X-41428505Y22434131D01*
X-41427471Y22485316D01*
X-41425500Y22527653D01*
X-41422399Y22562808D01*
X-41417972Y22592449D01*
X-41412024Y22618242D01*
X-41404361Y22641853D01*
X-41394788Y22664951D01*
X-41393935Y22666818D01*
X-41367695Y22712198D01*
X-41334286Y22748865D01*
X-41292479Y22777904D01*
X-41241040Y22800402D01*
X-41224737Y22805615D01*
X-41208775Y22809415D01*
X-41190952Y22811928D01*
X-41168695Y22813408D01*
X-41139431Y22814109D01*
X-41100586Y22814287D01*
X-41061902Y22814112D01*
X-41032635Y22813418D01*
X-41010375Y22811946D01*
X-40992545Y22809442D01*
X-40976567Y22805649D01*
X-40959863Y22800312D01*
X-40957216Y22799388D01*
X-40908085Y22777726D01*
X-40868538Y22750219D01*
X-40836871Y22715391D01*
X-40811381Y22671768D01*
X-40809510Y22667787D01*
X-40801482Y22649589D01*
X-40794861Y22631767D01*
X-40789495Y22612929D01*
X-40785227Y22591683D01*
X-40781904Y22566635D01*
X-40779371Y22536394D01*
X-40777472Y22499566D01*
X-40776054Y22454761D01*
X-40774962Y22400584D01*
X-40774561Y22372354D01*
X-40774040Y22335643D01*
G37*
G36*
X-41817143Y28349213D02*
G01*
X-41800775Y28346265D01*
X-41780331Y28342330D01*
X-41745909Y28335515D01*
X-41762921Y28297849D01*
X-41770824Y28279180D01*
X-41788720Y28222028D01*
X-41798892Y28159803D01*
X-41801812Y28089998D01*
X-41798376Y28026247D01*
X-41787313Y27963228D01*
X-41768233Y27908639D01*
X-41740728Y27862052D01*
X-41704390Y27823039D01*
X-41658810Y27791172D01*
X-41603581Y27766022D01*
X-41538294Y27747162D01*
X-41462541Y27734163D01*
X-41450424Y27732814D01*
X-41410674Y27730052D01*
X-41364511Y27728730D01*
X-41314584Y27728759D01*
X-41263541Y27730053D01*
X-41214032Y27732524D01*
X-41168704Y27736083D01*
X-41130207Y27740644D01*
X-41101189Y27746119D01*
X-41093491Y27748117D01*
X-41030575Y27769456D01*
X-40977731Y27797368D01*
X-40934612Y27832194D01*
X-40900871Y27874271D01*
X-40876161Y27923939D01*
X-40860134Y27981536D01*
X-40855396Y28012788D01*
X-40851632Y28069410D01*
X-40852694Y28129117D01*
X-40858320Y28188250D01*
X-40868249Y28243149D01*
X-40882218Y28290154D01*
X-40886663Y28302376D01*
X-40891891Y28318680D01*
X-40893931Y28327990D01*
X-40891557Y28330980D01*
X-40880046Y28335569D01*
X-40862024Y28339066D01*
X-40850252Y28340662D01*
X-40831549Y28343619D01*
X-40819701Y28346053D01*
X-40815280Y28346080D01*
X-40806713Y28338900D01*
X-40797890Y28321623D01*
X-40788510Y28293580D01*
X-40778271Y28254105D01*
X-40778221Y28253893D01*
X-40763402Y28172975D01*
X-40757330Y28093674D01*
X-40759867Y28017486D01*
X-40770876Y27945908D01*
X-40790221Y27880436D01*
X-40817764Y27822566D01*
X-40819029Y27820443D01*
X-40854929Y27772433D01*
X-40900904Y27730724D01*
X-40956503Y27695555D01*
X-41021279Y27667165D01*
X-41094782Y27645793D01*
X-41176561Y27631678D01*
X-41184177Y27630856D01*
X-41217769Y27628670D01*
X-41259398Y27627577D01*
X-41306181Y27627504D01*
X-41355238Y27628381D01*
X-41403683Y27630139D01*
X-41448636Y27632706D01*
X-41487212Y27636012D01*
X-41516531Y27639987D01*
X-41541415Y27644839D01*
X-41617756Y27665065D01*
X-41684076Y27691751D01*
X-41740788Y27725229D01*
X-41788304Y27765835D01*
X-41827037Y27813902D01*
X-41857399Y27869763D01*
X-41879803Y27933752D01*
X-41882496Y27944837D01*
X-41888723Y27983646D01*
X-41892546Y28029427D01*
X-41893922Y28078491D01*
X-41892809Y28127153D01*
X-41889166Y28171724D01*
X-41882949Y28208520D01*
X-41880100Y28219943D01*
X-41870998Y28251371D01*
X-41860590Y28281770D01*
X-41849770Y28308999D01*
X-41839432Y28330917D01*
X-41830471Y28345381D01*
X-41823779Y28350249D01*
X-41817143Y28349213D01*
G37*
G36*
X-40772374Y9264116D02*
G01*
X-40772374Y9215464D01*
X-41165925Y9213141D01*
X-41223161Y9212801D01*
X-41298425Y9212306D01*
X-41363164Y9211751D01*
X-41418351Y9211055D01*
X-41464958Y9210138D01*
X-41503959Y9208918D01*
X-41536328Y9207314D01*
X-41563038Y9205246D01*
X-41585062Y9202632D01*
X-41603373Y9199392D01*
X-41618945Y9195445D01*
X-41632751Y9190710D01*
X-41645764Y9185106D01*
X-41658957Y9178551D01*
X-41673304Y9170967D01*
X-41703549Y9151918D01*
X-41738787Y9118948D01*
X-41765760Y9078273D01*
X-41784706Y9029392D01*
X-41795862Y8971803D01*
X-41799467Y8905005D01*
X-41799426Y8897209D01*
X-41796626Y8839776D01*
X-41789006Y8791529D01*
X-41775954Y8750465D01*
X-41756855Y8714583D01*
X-41731097Y8681882D01*
X-41699948Y8653491D01*
X-41660312Y8629408D01*
X-41611886Y8610702D01*
X-41608654Y8609720D01*
X-41600179Y8607377D01*
X-41591025Y8605367D01*
X-41580236Y8603659D01*
X-41566856Y8602220D01*
X-41549928Y8601021D01*
X-41528495Y8600029D01*
X-41501602Y8599213D01*
X-41468291Y8598541D01*
X-41427607Y8597983D01*
X-41378592Y8597507D01*
X-41320291Y8597080D01*
X-41251747Y8596673D01*
X-41172003Y8596253D01*
X-40772374Y8594216D01*
X-40772374Y8545876D01*
X-40772374Y8497536D01*
X-41154492Y8497536D01*
X-41206058Y8497549D01*
X-41282902Y8497652D01*
X-41349218Y8497909D01*
X-41406025Y8498378D01*
X-41454339Y8499120D01*
X-41495179Y8500193D01*
X-41529563Y8501657D01*
X-41558508Y8503570D01*
X-41583032Y8505992D01*
X-41604152Y8508982D01*
X-41622887Y8512599D01*
X-41640255Y8516903D01*
X-41657273Y8521952D01*
X-41674958Y8527807D01*
X-41695708Y8535719D01*
X-41748363Y8564338D01*
X-41793879Y8602462D01*
X-41831749Y8649505D01*
X-41861466Y8704883D01*
X-41882524Y8768007D01*
X-41887628Y8796452D01*
X-41891373Y8835489D01*
X-41893291Y8879825D01*
X-41893381Y8925999D01*
X-41891639Y8970546D01*
X-41888066Y9010003D01*
X-41882659Y9040907D01*
X-41868598Y9086322D01*
X-41841422Y9143300D01*
X-41805915Y9192205D01*
X-41762592Y9232366D01*
X-41711969Y9263110D01*
X-41710892Y9263624D01*
X-41693311Y9271987D01*
X-41677425Y9279222D01*
X-41662246Y9285418D01*
X-41646783Y9290661D01*
X-41630048Y9295039D01*
X-41611051Y9298637D01*
X-41588802Y9301545D01*
X-41562313Y9303847D01*
X-41530594Y9305632D01*
X-41492655Y9306987D01*
X-41447508Y9307998D01*
X-41394162Y9308753D01*
X-41331629Y9309338D01*
X-41258918Y9309841D01*
X-41175042Y9310349D01*
X-40772374Y9312768D01*
X-40772374Y9264116D01*
G37*
G36*
X-41790440Y31707171D02*
G01*
X-41774079Y31703219D01*
X-41759271Y31697251D01*
X-41755136Y31690824D01*
X-41755726Y31688056D01*
X-41759578Y31674753D01*
X-41766078Y31654493D01*
X-41774226Y31630439D01*
X-41791465Y31568553D01*
X-41801494Y31502018D01*
X-41803402Y31435847D01*
X-41797371Y31371924D01*
X-41783585Y31312135D01*
X-41762230Y31258367D01*
X-41733487Y31212506D01*
X-41719141Y31197578D01*
X-41694393Y31177689D01*
X-41664705Y31157786D01*
X-41633584Y31140191D01*
X-41604538Y31127224D01*
X-41601295Y31126039D01*
X-41569104Y31115454D01*
X-41536573Y31107243D01*
X-41501343Y31101067D01*
X-41461054Y31096585D01*
X-41413347Y31093457D01*
X-41355863Y31091341D01*
X-41317644Y31090566D01*
X-41249386Y31090948D01*
X-41190339Y31094109D01*
X-41138699Y31100302D01*
X-41092663Y31109779D01*
X-41050428Y31122791D01*
X-41010192Y31139590D01*
X-40978812Y31157726D01*
X-40941789Y31187661D01*
X-40909991Y31222755D01*
X-40886839Y31259680D01*
X-40872111Y31297674D01*
X-40859458Y31351621D01*
X-40852649Y31411488D01*
X-40851703Y31474664D01*
X-40856635Y31538534D01*
X-40867464Y31600487D01*
X-40884207Y31657910D01*
X-40898030Y31695994D01*
X-40867111Y31700024D01*
X-40856677Y31701463D01*
X-40836697Y31704619D01*
X-40822840Y31707331D01*
X-40821034Y31707675D01*
X-40812627Y31705894D01*
X-40804801Y31697323D01*
X-40796911Y31680664D01*
X-40788309Y31654615D01*
X-40778348Y31617877D01*
X-40768904Y31575776D01*
X-40758242Y31498351D01*
X-40756292Y31422888D01*
X-40762817Y31350681D01*
X-40777582Y31283023D01*
X-40800352Y31221207D01*
X-40830891Y31166525D01*
X-40868964Y31120272D01*
X-40885452Y31104724D01*
X-40923360Y31075163D01*
X-40965737Y31050530D01*
X-41014087Y31030248D01*
X-41069910Y31013744D01*
X-41134711Y31000443D01*
X-41209990Y30989769D01*
X-41227588Y30988569D01*
X-41256762Y30988027D01*
X-41293057Y30988276D01*
X-41333810Y30989216D01*
X-41376356Y30990751D01*
X-41418032Y30992782D01*
X-41456174Y30995210D01*
X-41488119Y30997938D01*
X-41511202Y31000867D01*
X-41534620Y31005141D01*
X-41611954Y31024692D01*
X-41679428Y31051084D01*
X-41737353Y31084566D01*
X-41786040Y31125384D01*
X-41825798Y31173785D01*
X-41856937Y31230015D01*
X-41879767Y31294322D01*
X-41881236Y31299790D01*
X-41886091Y31320826D01*
X-41889410Y31342348D01*
X-41891456Y31367271D01*
X-41892492Y31398511D01*
X-41892779Y31438981D01*
X-41892449Y31474495D01*
X-41890587Y31516031D01*
X-41886521Y31551789D01*
X-41879624Y31585449D01*
X-41869265Y31620690D01*
X-41854818Y31661192D01*
X-41851874Y31668976D01*
X-41842617Y31691504D01*
X-41834318Y31704821D01*
X-41824504Y31710693D01*
X-41810703Y31710888D01*
X-41790440Y31707171D01*
G37*
G36*
X-39106754Y11186035D02*
G01*
X-39652378Y10991123D01*
X-39678796Y10981687D01*
X-39755870Y10954172D01*
X-39829432Y10927931D01*
X-39898689Y10903246D01*
X-39962848Y10880399D01*
X-40021116Y10859671D01*
X-40072698Y10841346D01*
X-40116802Y10825705D01*
X-40152633Y10813029D01*
X-40179399Y10803602D01*
X-40196306Y10797704D01*
X-40202560Y10795617D01*
X-40203891Y10800173D01*
X-40205181Y10815077D01*
X-40206204Y10838490D01*
X-40206877Y10868497D01*
X-40207119Y10903184D01*
X-40207119Y11011344D01*
X-40099234Y11043991D01*
X-40066150Y11054098D01*
X-40034520Y11063960D01*
X-40008365Y11072322D01*
X-39989743Y11078527D01*
X-39980713Y11081916D01*
X-39979089Y11082922D01*
X-39976594Y11085996D01*
X-39974604Y11091708D01*
X-39973063Y11101247D01*
X-39971915Y11115802D01*
X-39971102Y11136564D01*
X-39970568Y11164723D01*
X-39970257Y11201467D01*
X-39970112Y11247989D01*
X-39970077Y11305476D01*
X-39970077Y11417468D01*
X-39799043Y11417468D01*
X-39799019Y11384036D01*
X-39798830Y11344858D01*
X-39798472Y11301525D01*
X-39796853Y11137618D01*
X-39599318Y11199040D01*
X-39573983Y11206908D01*
X-39523211Y11222626D01*
X-39473769Y11237869D01*
X-39427712Y11252008D01*
X-39387093Y11264413D01*
X-39353969Y11274453D01*
X-39330393Y11281499D01*
X-39328656Y11282012D01*
X-39301541Y11290287D01*
X-39279395Y11297533D01*
X-39264460Y11302984D01*
X-39258976Y11305876D01*
X-39259831Y11306717D01*
X-39269112Y11310551D01*
X-39286435Y11316072D01*
X-39309093Y11322388D01*
X-39325241Y11326858D01*
X-39352087Y11334613D01*
X-39387274Y11344975D01*
X-39429117Y11357442D01*
X-39475928Y11371512D01*
X-39526022Y11386681D01*
X-39577714Y11402447D01*
X-39583741Y11404291D01*
X-39632539Y11419150D01*
X-39677418Y11432689D01*
X-39717096Y11444532D01*
X-39750290Y11454301D01*
X-39775717Y11461618D01*
X-39792095Y11466104D01*
X-39798141Y11467382D01*
X-39798155Y11467364D01*
X-39798608Y11460723D01*
X-39798905Y11443561D01*
X-39799043Y11417468D01*
X-39970077Y11417468D01*
X-39970077Y11523756D01*
X-40005025Y11533708D01*
X-40007363Y11534378D01*
X-40027984Y11540453D01*
X-40056246Y11548964D01*
X-40088733Y11558875D01*
X-40122027Y11569153D01*
X-40204080Y11594645D01*
X-40205735Y11708879D01*
X-40205753Y11710102D01*
X-40206256Y11749666D01*
X-40206369Y11778671D01*
X-40205965Y11798669D01*
X-40204915Y11811211D01*
X-40203093Y11817848D01*
X-40200370Y11820134D01*
X-40196618Y11819620D01*
X-40195902Y11819377D01*
X-40186090Y11815907D01*
X-40165843Y11808690D01*
X-40135975Y11798015D01*
X-40097295Y11784173D01*
X-40050615Y11767454D01*
X-39996746Y11748150D01*
X-39936498Y11726551D01*
X-39870683Y11702947D01*
X-39800111Y11677630D01*
X-39725594Y11650889D01*
X-39647942Y11623015D01*
X-39110038Y11429901D01*
X-39108396Y11307968D01*
X-39108368Y11305876D01*
X-39106754Y11186035D01*
G37*
G36*
X-40773069Y13221995D02*
G01*
X-40773164Y13186245D01*
X-40773471Y13158313D01*
X-40773985Y13139643D01*
X-40774700Y13131683D01*
X-40774765Y13131537D01*
X-40776802Y13130022D01*
X-40781747Y13128698D01*
X-40790310Y13127558D01*
X-40803204Y13126591D01*
X-40821139Y13125788D01*
X-40844827Y13125139D01*
X-40874980Y13124636D01*
X-40912309Y13124268D01*
X-40957525Y13124027D01*
X-41011339Y13123903D01*
X-41074464Y13123886D01*
X-41147611Y13123968D01*
X-41231490Y13124138D01*
X-41326814Y13124388D01*
X-41875532Y13125940D01*
X-41875532Y13174564D01*
X-41875532Y13223188D01*
X-41627854Y13224776D01*
X-41380175Y13226364D01*
X-41380201Y13352414D01*
X-41380205Y13372419D01*
X-41301161Y13372419D01*
X-41301161Y13226227D01*
X-41081935Y13226227D01*
X-40862709Y13226227D01*
X-40864857Y13400970D01*
X-40865208Y13428531D01*
X-40865996Y13477186D01*
X-40867075Y13516011D01*
X-40868700Y13546574D01*
X-40871122Y13570440D01*
X-40874594Y13589178D01*
X-40879368Y13604353D01*
X-40885696Y13617534D01*
X-40893831Y13630287D01*
X-40904025Y13644179D01*
X-40918793Y13659494D01*
X-40948684Y13678729D01*
X-40986379Y13693526D01*
X-41029519Y13703032D01*
X-41075744Y13706390D01*
X-41102696Y13705471D01*
X-41154404Y13697789D01*
X-41198962Y13682684D01*
X-41235243Y13660604D01*
X-41262122Y13631999D01*
X-41271620Y13616889D01*
X-41280889Y13597751D01*
X-41288077Y13575996D01*
X-41293424Y13550037D01*
X-41297167Y13518287D01*
X-41299545Y13479158D01*
X-41300796Y13431064D01*
X-41301161Y13372419D01*
X-41380205Y13372419D01*
X-41380228Y13478465D01*
X-41629400Y13620118D01*
X-41878571Y13761772D01*
X-41878571Y13819173D01*
X-41878493Y13833789D01*
X-41878022Y13855793D01*
X-41877221Y13870938D01*
X-41876199Y13876574D01*
X-41876099Y13876543D01*
X-41869578Y13872931D01*
X-41853739Y13863741D01*
X-41829594Y13849570D01*
X-41798157Y13831018D01*
X-41760442Y13808684D01*
X-41717461Y13783166D01*
X-41670228Y13755065D01*
X-41619756Y13724978D01*
X-41365685Y13573381D01*
X-41355085Y13615123D01*
X-41354546Y13617235D01*
X-41344546Y13651133D01*
X-41333047Y13677617D01*
X-41317680Y13701147D01*
X-41296072Y13726186D01*
X-41271154Y13749363D01*
X-41232989Y13773853D01*
X-41188567Y13790731D01*
X-41136475Y13800494D01*
X-41075296Y13803638D01*
X-41057004Y13803399D01*
X-41025804Y13802046D01*
X-40997935Y13799766D01*
X-40977806Y13796864D01*
X-40972438Y13795680D01*
X-40921236Y13778415D01*
X-40876580Y13752179D01*
X-40839795Y13717936D01*
X-40812209Y13676648D01*
X-40811636Y13675514D01*
X-40802983Y13657547D01*
X-40795869Y13640254D01*
X-40790123Y13622207D01*
X-40785577Y13601984D01*
X-40782061Y13578157D01*
X-40779406Y13549301D01*
X-40777443Y13513991D01*
X-40776001Y13470802D01*
X-40774913Y13418307D01*
X-40774008Y13355082D01*
X-40773528Y13311165D01*
X-40773188Y13264117D01*
X-40773081Y13226227D01*
X-40773069Y13221995D01*
G37*
G36*
X-40133338Y13753200D02*
G01*
X-40107428Y13749981D01*
X-40071445Y13744869D01*
X-40042277Y13740534D01*
X-40021143Y13736693D01*
X-40008694Y13733179D01*
X-40003171Y13729486D01*
X-40002815Y13725108D01*
X-40013191Y13693592D01*
X-40023955Y13658004D01*
X-40031464Y13627763D01*
X-40036416Y13599432D01*
X-40039508Y13569575D01*
X-40041438Y13534755D01*
X-40042138Y13509024D01*
X-40040232Y13450083D01*
X-40032694Y13400346D01*
X-40019151Y13358497D01*
X-39999226Y13323223D01*
X-39972546Y13293209D01*
X-39969844Y13290757D01*
X-39939638Y13267969D01*
X-39904519Y13249787D01*
X-39863098Y13235831D01*
X-39813991Y13225725D01*
X-39755808Y13219091D01*
X-39687164Y13215552D01*
X-39663547Y13215043D01*
X-39584356Y13216215D01*
X-39515670Y13222322D01*
X-39456916Y13233595D01*
X-39407518Y13250269D01*
X-39366904Y13272574D01*
X-39334499Y13300743D01*
X-39309730Y13335010D01*
X-39292022Y13375606D01*
X-39288323Y13388008D01*
X-39284921Y13403853D01*
X-39282660Y13422413D01*
X-39281355Y13446047D01*
X-39280821Y13477114D01*
X-39280875Y13517972D01*
X-39280898Y13521653D01*
X-39281360Y13561444D01*
X-39282325Y13592047D01*
X-39284064Y13616210D01*
X-39286848Y13636679D01*
X-39290949Y13656200D01*
X-39296638Y13677519D01*
X-39300099Y13689758D01*
X-39305961Y13710824D01*
X-39309892Y13725421D01*
X-39311181Y13730942D01*
X-39303673Y13732418D01*
X-39286953Y13734801D01*
X-39263716Y13737772D01*
X-39236615Y13741026D01*
X-39208304Y13744261D01*
X-39181436Y13747173D01*
X-39158667Y13749461D01*
X-39142648Y13750819D01*
X-39136035Y13750946D01*
X-39131928Y13744943D01*
X-39125665Y13728694D01*
X-39118479Y13704723D01*
X-39110998Y13675338D01*
X-39103849Y13642849D01*
X-39097657Y13609564D01*
X-39094258Y13585309D01*
X-39090261Y13533108D01*
X-39089595Y13477362D01*
X-39092142Y13421911D01*
X-39097783Y13370595D01*
X-39106399Y13327255D01*
X-39120847Y13280322D01*
X-39143617Y13228352D01*
X-39172689Y13182801D01*
X-39209698Y13140718D01*
X-39222318Y13128615D01*
X-39246768Y13107125D01*
X-39270391Y13088487D01*
X-39289466Y13075731D01*
X-39311723Y13064434D01*
X-39351931Y13047841D01*
X-39397494Y13032422D01*
X-39444393Y13019497D01*
X-39488610Y13010385D01*
X-39489165Y13010295D01*
X-39518933Y13006947D01*
X-39557521Y13004712D01*
X-39602309Y13003545D01*
X-39650679Y13003404D01*
X-39700013Y13004244D01*
X-39747690Y13006021D01*
X-39791092Y13008690D01*
X-39827600Y13012209D01*
X-39854594Y13016533D01*
X-39927624Y13036062D01*
X-39996203Y13062661D01*
X-40054859Y13095360D01*
X-40104076Y13134486D01*
X-40144337Y13180365D01*
X-40176125Y13233322D01*
X-40185165Y13252480D01*
X-40200404Y13290187D01*
X-40211591Y13328054D01*
X-40219791Y13370072D01*
X-40226071Y13420226D01*
X-40228942Y13481890D01*
X-40223526Y13562233D01*
X-40208513Y13641868D01*
X-40184433Y13717026D01*
X-40181849Y13723629D01*
X-40176280Y13737276D01*
X-40170646Y13746564D01*
X-40162945Y13751984D01*
X-40151177Y13754032D01*
X-40133338Y13753200D01*
G37*
G36*
X-39107102Y12281097D02*
G01*
X-39178467Y12255711D01*
X-39184179Y12253679D01*
X-39209016Y12244846D01*
X-39243084Y12232731D01*
X-39284700Y12217934D01*
X-39332179Y12201052D01*
X-39383837Y12182685D01*
X-39437990Y12163431D01*
X-39492953Y12143891D01*
X-39538040Y12127859D01*
X-39608307Y12102869D01*
X-39683688Y12076054D01*
X-39760869Y12048594D01*
X-39836537Y12021668D01*
X-39907377Y11996454D01*
X-39970077Y11974132D01*
X-40204080Y11890808D01*
X-40205743Y11997171D01*
X-40206124Y12026843D01*
X-40206320Y12057779D01*
X-40206250Y12082547D01*
X-40205921Y12099152D01*
X-40205342Y12105598D01*
X-40205092Y12105747D01*
X-40197234Y12108593D01*
X-40179823Y12114317D01*
X-40154653Y12122347D01*
X-40123513Y12132109D01*
X-40088197Y12143033D01*
X-39973116Y12178404D01*
X-39971520Y12398182D01*
X-39971510Y12399618D01*
X-39799892Y12399618D01*
X-39799835Y12362822D01*
X-39799525Y12319435D01*
X-39798903Y12286375D01*
X-39797920Y12262565D01*
X-39796523Y12246925D01*
X-39794665Y12238378D01*
X-39792295Y12235846D01*
X-39791068Y12236060D01*
X-39780136Y12238984D01*
X-39759599Y12244971D01*
X-39730961Y12253568D01*
X-39695725Y12264320D01*
X-39655395Y12276773D01*
X-39611474Y12290473D01*
X-39562714Y12305704D01*
X-39512723Y12321224D01*
X-39464255Y12336187D01*
X-39419826Y12349815D01*
X-39381955Y12361336D01*
X-39353159Y12369974D01*
X-39340340Y12373802D01*
X-39311291Y12382724D01*
X-39287322Y12390429D01*
X-39270632Y12396197D01*
X-39263420Y12399311D01*
X-39264865Y12401382D01*
X-39275433Y12406298D01*
X-39293928Y12412823D01*
X-39318122Y12420113D01*
X-39331455Y12423937D01*
X-39358730Y12431951D01*
X-39394449Y12442588D01*
X-39436766Y12455292D01*
X-39483832Y12469508D01*
X-39533800Y12484681D01*
X-39584821Y12500255D01*
X-39629405Y12513874D01*
X-39673992Y12527435D01*
X-39713632Y12539430D01*
X-39746991Y12549457D01*
X-39772733Y12557116D01*
X-39789525Y12562005D01*
X-39796032Y12563724D01*
X-39796071Y12563716D01*
X-39797085Y12557474D01*
X-39797998Y12540702D01*
X-39798771Y12514964D01*
X-39799369Y12481826D01*
X-39799755Y12442856D01*
X-39799892Y12399618D01*
X-39971510Y12399618D01*
X-39969925Y12617961D01*
X-40041418Y12639985D01*
X-40067007Y12647870D01*
X-40101512Y12658506D01*
X-40133529Y12668379D01*
X-40158495Y12676082D01*
X-40204080Y12690155D01*
X-40205736Y12803947D01*
X-40205737Y12804001D01*
X-40206248Y12843781D01*
X-40206369Y12872971D01*
X-40205971Y12893133D01*
X-40204925Y12905829D01*
X-40203104Y12912619D01*
X-40200378Y12915066D01*
X-40196619Y12914732D01*
X-40194182Y12913932D01*
X-40181046Y12909355D01*
X-40157303Y12900958D01*
X-40123503Y12888938D01*
X-40080197Y12873492D01*
X-40027933Y12854816D01*
X-39967264Y12833109D01*
X-39898737Y12808566D01*
X-39822905Y12781385D01*
X-39740315Y12751764D01*
X-39651520Y12719898D01*
X-39557068Y12685986D01*
X-39457510Y12650224D01*
X-39353395Y12612809D01*
X-39245275Y12573938D01*
X-39107001Y12524217D01*
X-39107052Y12402657D01*
X-39107053Y12399311D01*
X-39107102Y12281097D01*
G37*
G36*
X-40756803Y18087858D02*
G01*
X-40759778Y18039075D01*
X-40767636Y17984182D01*
X-40783222Y17921910D01*
X-40805601Y17867675D01*
X-40835350Y17820999D01*
X-40873044Y17781404D01*
X-40919260Y17748410D01*
X-40974575Y17721539D01*
X-41039564Y17700314D01*
X-41114805Y17684254D01*
X-41200873Y17672882D01*
X-41208375Y17672269D01*
X-41235901Y17671189D01*
X-41271772Y17670907D01*
X-41313423Y17671338D01*
X-41358293Y17672398D01*
X-41403820Y17674001D01*
X-41447440Y17676062D01*
X-41486592Y17678498D01*
X-41518714Y17681222D01*
X-41541242Y17684150D01*
X-41559541Y17687607D01*
X-41634245Y17706688D01*
X-41698827Y17732141D01*
X-41753651Y17764268D01*
X-41799085Y17803370D01*
X-41835492Y17849747D01*
X-41863239Y17903701D01*
X-41882691Y17965533D01*
X-41887174Y17989945D01*
X-41891558Y18031306D01*
X-41893889Y18078495D01*
X-41894022Y18101997D01*
X-41799328Y18101997D01*
X-41798136Y18059838D01*
X-41795159Y18022182D01*
X-41790394Y17992789D01*
X-41778615Y17953684D01*
X-41756392Y17908482D01*
X-41726104Y17870530D01*
X-41687144Y17839369D01*
X-41638903Y17814539D01*
X-41580774Y17795578D01*
X-41512151Y17782027D01*
X-41490971Y17779565D01*
X-41454595Y17776922D01*
X-41410983Y17774963D01*
X-41362900Y17773712D01*
X-41313114Y17773193D01*
X-41264390Y17773430D01*
X-41219494Y17774447D01*
X-41181191Y17776268D01*
X-41152249Y17778916D01*
X-41084080Y17791021D01*
X-41023410Y17809126D01*
X-40972735Y17833210D01*
X-40931562Y17863640D01*
X-40899400Y17900781D01*
X-40875757Y17945002D01*
X-40860142Y17996668D01*
X-40856057Y18023580D01*
X-40853118Y18060859D01*
X-40851801Y18102512D01*
X-40852144Y18144531D01*
X-40854189Y18182909D01*
X-40857975Y18213637D01*
X-40859905Y18223182D01*
X-40875727Y18272059D01*
X-40899830Y18316259D01*
X-40930531Y18352561D01*
X-40949218Y18368411D01*
X-40984264Y18390991D01*
X-41025398Y18409247D01*
X-41073770Y18423488D01*
X-41130530Y18434026D01*
X-41196827Y18441171D01*
X-41273809Y18445232D01*
X-41350553Y18446313D01*
X-41437029Y18443422D01*
X-41513046Y18435629D01*
X-41579055Y18422745D01*
X-41635508Y18404580D01*
X-41682855Y18380945D01*
X-41721545Y18351649D01*
X-41752031Y18316503D01*
X-41774762Y18275317D01*
X-41790189Y18227902D01*
X-41792227Y18217888D01*
X-41796370Y18184782D01*
X-41798738Y18144898D01*
X-41799328Y18101997D01*
X-41894022Y18101997D01*
X-41894168Y18127948D01*
X-41892395Y18176105D01*
X-41888569Y18219403D01*
X-41882691Y18254282D01*
X-41864293Y18313491D01*
X-41836798Y18367950D01*
X-41800636Y18414604D01*
X-41755468Y18453744D01*
X-41700952Y18485664D01*
X-41636748Y18510656D01*
X-41562515Y18529011D01*
X-41536438Y18533396D01*
X-41477930Y18540187D01*
X-41412512Y18544538D01*
X-41343321Y18546444D01*
X-41273492Y18545901D01*
X-41206161Y18542906D01*
X-41144463Y18537455D01*
X-41091533Y18529546D01*
X-41041850Y18518247D01*
X-40974429Y18495788D01*
X-40916844Y18466730D01*
X-40868658Y18430724D01*
X-40829432Y18387419D01*
X-40798729Y18336466D01*
X-40776110Y18277515D01*
X-40767454Y18239801D01*
X-40760909Y18192136D01*
X-40757269Y18140184D01*
X-40756934Y18102512D01*
X-40756803Y18087858D01*
G37*
G36*
X-41547645Y27424965D02*
G01*
X-41492124Y27415066D01*
X-41441630Y27396232D01*
X-41398032Y27368721D01*
X-41386897Y27359167D01*
X-41367796Y27339327D01*
X-41349602Y27315232D01*
X-41331652Y27285629D01*
X-41313286Y27249269D01*
X-41293841Y27204900D01*
X-41272655Y27151269D01*
X-41249067Y27087127D01*
X-41235922Y27051321D01*
X-41219184Y27009310D01*
X-41203770Y26975829D01*
X-41188689Y26948973D01*
X-41172950Y26926838D01*
X-41155563Y26907522D01*
X-41147705Y26900163D01*
X-41112555Y26876734D01*
X-41073649Y26863477D01*
X-41032919Y26860146D01*
X-40992298Y26866497D01*
X-40953717Y26882285D01*
X-40919109Y26907263D01*
X-40890406Y26941187D01*
X-40877024Y26963789D01*
X-40863608Y26994999D01*
X-40854876Y27029667D01*
X-40850180Y27070588D01*
X-40848874Y27120556D01*
X-40849447Y27154658D01*
X-40852259Y27196841D01*
X-40858145Y27235358D01*
X-40867914Y27275047D01*
X-40882375Y27320740D01*
X-40886047Y27331718D01*
X-40892729Y27352730D01*
X-40896984Y27367644D01*
X-40898020Y27373772D01*
X-40897977Y27373809D01*
X-40891229Y27375911D01*
X-40875895Y27379614D01*
X-40855190Y27384141D01*
X-40814118Y27392750D01*
X-40807800Y27376694D01*
X-40806856Y27374287D01*
X-40784195Y27308864D01*
X-40769113Y27246364D01*
X-40760736Y27182114D01*
X-40758191Y27111439D01*
X-40758875Y27074208D01*
X-40762424Y27028745D01*
X-40769629Y26989239D01*
X-40781193Y26952192D01*
X-40797819Y26914103D01*
X-40820083Y26876718D01*
X-40855881Y26836721D01*
X-40899217Y26805450D01*
X-40949057Y26783467D01*
X-41004369Y26771333D01*
X-41064118Y26769607D01*
X-41079398Y26770817D01*
X-41131732Y26780668D01*
X-41176671Y26799426D01*
X-41215621Y26827822D01*
X-41249983Y26866591D01*
X-41264573Y26887548D01*
X-41279581Y26912392D01*
X-41294020Y26940554D01*
X-41308874Y26974125D01*
X-41325128Y27015194D01*
X-41343766Y27065854D01*
X-41356419Y27100567D01*
X-41374319Y27147068D01*
X-41390344Y27184635D01*
X-41405364Y27214966D01*
X-41420247Y27239760D01*
X-41435862Y27260713D01*
X-41453077Y27279522D01*
X-41461884Y27288126D01*
X-41482068Y27305307D01*
X-41501088Y27316507D01*
X-41523300Y27324516D01*
X-41566356Y27332148D01*
X-41613518Y27330875D01*
X-41659309Y27320565D01*
X-41700888Y27301875D01*
X-41735416Y27275462D01*
X-41745727Y27264171D01*
X-41771148Y27225118D01*
X-41789512Y27178329D01*
X-41800768Y27125449D01*
X-41804868Y27068122D01*
X-41801763Y27007992D01*
X-41791404Y26946704D01*
X-41773743Y26885902D01*
X-41748730Y26827232D01*
X-41736213Y26802748D01*
X-41728979Y26786798D01*
X-41728074Y26777248D01*
X-41734385Y26771652D01*
X-41748800Y26767564D01*
X-41772206Y26762538D01*
X-41780500Y26760702D01*
X-41798050Y26757754D01*
X-41809013Y26759456D01*
X-41817301Y26767239D01*
X-41826824Y26782535D01*
X-41853734Y26838071D01*
X-41874813Y26902964D01*
X-41888632Y26972505D01*
X-41894959Y27044011D01*
X-41893562Y27114798D01*
X-41884210Y27182182D01*
X-41866670Y27243482D01*
X-41849963Y27278886D01*
X-41819705Y27322338D01*
X-41782172Y27360015D01*
X-41739569Y27389796D01*
X-41694099Y27409560D01*
X-41666276Y27416927D01*
X-41606319Y27425672D01*
X-41547645Y27424965D01*
G37*
G36*
X-41515207Y33496862D02*
G01*
X-41462037Y33480989D01*
X-41414584Y33454843D01*
X-41373495Y33418597D01*
X-41358104Y33399611D01*
X-41333085Y33360326D01*
X-41307402Y33310182D01*
X-41281426Y33249933D01*
X-41255531Y33180331D01*
X-41248541Y33160413D01*
X-41231664Y33114561D01*
X-41216628Y33077884D01*
X-41202477Y33048514D01*
X-41188254Y33024588D01*
X-41173005Y33004237D01*
X-41155773Y32985597D01*
X-41136103Y32967744D01*
X-41108129Y32949657D01*
X-41077993Y32940041D01*
X-41041724Y32937211D01*
X-41032070Y32937425D01*
X-40986119Y32945017D01*
X-40945739Y32963063D01*
X-40911485Y32991008D01*
X-40883912Y33028294D01*
X-40863573Y33074367D01*
X-40851024Y33128668D01*
X-40847640Y33164644D01*
X-40848281Y33224894D01*
X-40855459Y33288660D01*
X-40868694Y33352217D01*
X-40887508Y33411841D01*
X-40892839Y33426206D01*
X-40898009Y33441078D01*
X-40900009Y33448232D01*
X-40899422Y33449247D01*
X-40890914Y33452810D01*
X-40875156Y33456483D01*
X-40855854Y33459710D01*
X-40836713Y33461937D01*
X-40821438Y33462607D01*
X-40813735Y33461166D01*
X-40808978Y33453295D01*
X-40801556Y33435405D01*
X-40792962Y33410730D01*
X-40784078Y33381987D01*
X-40775784Y33351893D01*
X-40768963Y33323164D01*
X-40767867Y33317749D01*
X-40762467Y33279698D01*
X-40759246Y33235445D01*
X-40758212Y33188620D01*
X-40759376Y33142854D01*
X-40762746Y33101777D01*
X-40768331Y33069020D01*
X-40774570Y33046343D01*
X-40797413Y32989796D01*
X-40828449Y32941916D01*
X-40867464Y32902989D01*
X-40914246Y32873301D01*
X-40952626Y32857901D01*
X-41006540Y32846155D01*
X-41061628Y32844212D01*
X-41115156Y32852112D01*
X-41164388Y32869891D01*
X-41178323Y32877308D01*
X-41206124Y32896252D01*
X-41231577Y32920227D01*
X-41255431Y32950389D01*
X-41278434Y32987893D01*
X-41301337Y33033896D01*
X-41324887Y33089553D01*
X-41349834Y33156019D01*
X-41368619Y33206412D01*
X-41389756Y33257067D01*
X-41410064Y33298062D01*
X-41430335Y33330644D01*
X-41451360Y33356057D01*
X-41473931Y33375547D01*
X-41498840Y33390359D01*
X-41513102Y33396983D01*
X-41527594Y33402019D01*
X-41543016Y33404536D01*
X-41563099Y33405091D01*
X-41591576Y33404243D01*
X-41595577Y33404077D01*
X-41625333Y33402172D01*
X-41647512Y33398914D01*
X-41666225Y33393457D01*
X-41685581Y33384961D01*
X-41719778Y33363518D01*
X-41752778Y33329866D01*
X-41777766Y33287429D01*
X-41794610Y33236508D01*
X-41803181Y33177409D01*
X-41803348Y33110434D01*
X-41803150Y33107128D01*
X-41794137Y33033680D01*
X-41776161Y32965864D01*
X-41748350Y32900351D01*
X-41721361Y32846837D01*
X-41752862Y32841083D01*
X-41773053Y32837440D01*
X-41794008Y32834765D01*
X-41807982Y32836387D01*
X-41817941Y32843702D01*
X-41826848Y32858104D01*
X-41837670Y32880989D01*
X-41858670Y32931425D01*
X-41882333Y33011731D01*
X-41894263Y33093267D01*
X-41894701Y33177292D01*
X-41891045Y33218561D01*
X-41882623Y33266551D01*
X-41869234Y33309764D01*
X-41849856Y33352185D01*
X-41840860Y33368042D01*
X-41806760Y33412363D01*
X-41764160Y33448391D01*
X-41713850Y33475550D01*
X-41656618Y33493265D01*
X-41636116Y33497111D01*
X-41573449Y33502293D01*
X-41515207Y33496862D01*
G37*
G36*
X-41498438Y14710383D02*
G01*
X-41448294Y14692962D01*
X-41432901Y14684987D01*
X-41404246Y14665601D01*
X-41377864Y14640738D01*
X-41353049Y14609312D01*
X-41329094Y14570236D01*
X-41305294Y14522424D01*
X-41280940Y14464789D01*
X-41255327Y14396244D01*
X-41241788Y14358592D01*
X-41228484Y14322980D01*
X-41217206Y14295078D01*
X-41206989Y14272809D01*
X-41196869Y14254095D01*
X-41185881Y14236857D01*
X-41173061Y14219018D01*
X-41156946Y14200147D01*
X-41124184Y14174861D01*
X-41085588Y14159969D01*
X-41040366Y14155090D01*
X-41033275Y14155203D01*
X-40986988Y14162153D01*
X-40946449Y14179556D01*
X-40912114Y14206956D01*
X-40884440Y14243898D01*
X-40863882Y14289925D01*
X-40850896Y14344581D01*
X-40850868Y14344765D01*
X-40846847Y14396727D01*
X-40849011Y14455025D01*
X-40856870Y14515853D01*
X-40869933Y14575405D01*
X-40887709Y14629874D01*
X-40892858Y14643932D01*
X-40897070Y14658387D01*
X-40897524Y14665151D01*
X-40890606Y14668016D01*
X-40875520Y14671934D01*
X-40856352Y14676001D01*
X-40837072Y14679444D01*
X-40821649Y14681493D01*
X-40814053Y14681374D01*
X-40811624Y14678188D01*
X-40805729Y14664950D01*
X-40798304Y14644159D01*
X-40790178Y14618491D01*
X-40782183Y14590626D01*
X-40775147Y14563240D01*
X-40769903Y14539013D01*
X-40767763Y14527138D01*
X-40757947Y14447413D01*
X-40756962Y14373570D01*
X-40764631Y14306126D01*
X-40780775Y14245597D01*
X-40805219Y14192498D01*
X-40837785Y14147347D01*
X-40878295Y14110659D01*
X-40926572Y14082950D01*
X-40927393Y14082590D01*
X-40964621Y14070491D01*
X-41007983Y14062825D01*
X-41052199Y14060220D01*
X-41091988Y14063302D01*
X-41095753Y14063967D01*
X-41136683Y14074389D01*
X-41173183Y14090438D01*
X-41206045Y14113041D01*
X-41236065Y14143123D01*
X-41264033Y14181608D01*
X-41290745Y14229422D01*
X-41316992Y14287490D01*
X-41343568Y14356737D01*
X-41349339Y14372654D01*
X-41371618Y14430875D01*
X-41392282Y14478792D01*
X-41412111Y14517669D01*
X-41431886Y14548772D01*
X-41452389Y14573364D01*
X-41474398Y14592711D01*
X-41498696Y14608078D01*
X-41502547Y14610073D01*
X-41516367Y14615665D01*
X-41532414Y14619037D01*
X-41553991Y14620691D01*
X-41584401Y14621130D01*
X-41587867Y14621129D01*
X-41615607Y14620793D01*
X-41635519Y14619306D01*
X-41651525Y14615861D01*
X-41667544Y14609648D01*
X-41687498Y14599857D01*
X-41712540Y14585059D01*
X-41744642Y14556928D01*
X-41769466Y14521087D01*
X-41788503Y14475707D01*
X-41789500Y14472637D01*
X-41795166Y14453109D01*
X-41798886Y14434383D01*
X-41801003Y14413224D01*
X-41801862Y14386395D01*
X-41801807Y14350659D01*
X-41800512Y14308469D01*
X-41795432Y14257429D01*
X-41785718Y14211365D01*
X-41770472Y14166336D01*
X-41748794Y14118405D01*
X-41722478Y14065453D01*
X-41756459Y14058760D01*
X-41770848Y14055840D01*
X-41787555Y14052194D01*
X-41796518Y14049892D01*
X-41797416Y14049584D01*
X-41807540Y14047238D01*
X-41811303Y14050006D01*
X-41819115Y14062110D01*
X-41829202Y14081763D01*
X-41840590Y14106708D01*
X-41852302Y14134688D01*
X-41863367Y14163446D01*
X-41872808Y14190726D01*
X-41879651Y14214269D01*
X-41883979Y14235047D01*
X-41889294Y14274369D01*
X-41892685Y14318697D01*
X-41894076Y14364642D01*
X-41893394Y14408816D01*
X-41890562Y14447831D01*
X-41885505Y14478297D01*
X-41870393Y14525185D01*
X-41845978Y14575010D01*
X-41815320Y14618895D01*
X-41779863Y14654818D01*
X-41741048Y14680759D01*
X-41725094Y14688307D01*
X-41669632Y14707376D01*
X-41611664Y14717483D01*
X-41553747Y14718521D01*
X-41498438Y14710383D01*
G37*
G36*
X-40772374Y20459238D02*
G01*
X-40772509Y20436925D01*
X-40773362Y20418641D01*
X-40775517Y20407779D01*
X-40779552Y20401739D01*
X-40786049Y20397918D01*
X-40786725Y20397631D01*
X-40796572Y20393738D01*
X-40816795Y20385895D01*
X-40846581Y20374414D01*
X-40885116Y20359606D01*
X-40931588Y20341782D01*
X-40985183Y20321255D01*
X-41045088Y20298335D01*
X-41110490Y20273334D01*
X-41180577Y20246563D01*
X-41254535Y20218334D01*
X-41331551Y20188958D01*
X-41349278Y20182199D01*
X-41425466Y20153184D01*
X-41498303Y20125491D01*
X-41566988Y20099423D01*
X-41630722Y20075282D01*
X-41688703Y20053368D01*
X-41740132Y20033984D01*
X-41784207Y20017432D01*
X-41820130Y20004013D01*
X-41847099Y19994029D01*
X-41864313Y19987782D01*
X-41870974Y19985574D01*
X-41872766Y19986014D01*
X-41876131Y19992859D01*
X-41877996Y20009031D01*
X-41878571Y20035919D01*
X-41878571Y20086866D01*
X-41779804Y20122135D01*
X-41759020Y20129561D01*
X-41722056Y20142786D01*
X-41687025Y20155339D01*
X-41657099Y20166085D01*
X-41635451Y20173884D01*
X-41589866Y20190365D01*
X-41589866Y20456893D01*
X-41589866Y20689368D01*
X-41495657Y20689368D01*
X-41495657Y20458731D01*
X-41495657Y20455809D01*
X-41495568Y20394811D01*
X-41495295Y20344995D01*
X-41494807Y20305428D01*
X-41494073Y20275179D01*
X-41493061Y20253315D01*
X-41491743Y20238903D01*
X-41490086Y20231012D01*
X-41488059Y20228709D01*
X-41483748Y20229950D01*
X-41468875Y20234970D01*
X-41444668Y20243446D01*
X-41412315Y20254954D01*
X-41373003Y20269068D01*
X-41327920Y20285365D01*
X-41278251Y20303417D01*
X-41225185Y20322802D01*
X-41193507Y20334386D01*
X-41138672Y20354369D01*
X-41086107Y20373438D01*
X-41037336Y20391047D01*
X-40993882Y20406647D01*
X-40957268Y20419692D01*
X-40929016Y20429632D01*
X-40910648Y20435922D01*
X-40892645Y20442106D01*
X-40871343Y20450103D01*
X-40856781Y20456437D01*
X-40851388Y20460116D01*
X-40852337Y20461600D01*
X-40861369Y20466411D01*
X-40876860Y20471526D01*
X-40884975Y20474043D01*
X-40904276Y20480488D01*
X-40932703Y20490224D01*
X-40968981Y20502805D01*
X-41011833Y20517787D01*
X-41059984Y20534726D01*
X-41112160Y20553176D01*
X-41167085Y20572694D01*
X-41211129Y20588380D01*
X-41264467Y20607370D01*
X-41314248Y20625086D01*
X-41359156Y20641060D01*
X-41397875Y20654825D01*
X-41429090Y20665913D01*
X-41451486Y20673855D01*
X-41463747Y20678185D01*
X-41495657Y20689368D01*
X-41589866Y20689368D01*
X-41589866Y20723422D01*
X-41720543Y20770278D01*
X-41739445Y20777069D01*
X-41776420Y20790434D01*
X-41809289Y20802419D01*
X-41836216Y20812349D01*
X-41855363Y20819549D01*
X-41864896Y20823345D01*
X-41869644Y20825863D01*
X-41874487Y20831069D01*
X-41877172Y20840382D01*
X-41878326Y20856485D01*
X-41878571Y20882058D01*
X-41878510Y20897403D01*
X-41877897Y20916938D01*
X-41876242Y20927698D01*
X-41873077Y20931855D01*
X-41867935Y20931586D01*
X-41867333Y20931390D01*
X-41857945Y20927963D01*
X-41838380Y20920655D01*
X-41809607Y20909833D01*
X-41772593Y20895865D01*
X-41728308Y20879121D01*
X-41677721Y20859967D01*
X-41621800Y20838773D01*
X-41561514Y20815906D01*
X-41497831Y20791735D01*
X-41431721Y20766627D01*
X-41364151Y20740953D01*
X-41296092Y20715078D01*
X-41228510Y20689373D01*
X-41162376Y20664205D01*
X-41098658Y20639942D01*
X-41038324Y20616952D01*
X-40982344Y20595604D01*
X-40931685Y20576267D01*
X-40887318Y20559307D01*
X-40850209Y20545095D01*
X-40821329Y20533997D01*
X-40801645Y20526382D01*
X-40792127Y20522619D01*
X-40772374Y20514380D01*
X-40772374Y20460116D01*
X-40772374Y20459238D01*
G37*
%TD*%
M02*
